<?xml version="1.0" encoding="utf-8"?>
<!-- Generator: Adobe Illustrator 22.0.0, SVG Export Plug-In . SVG Version: 6.00 Build 0)  -->
<svg version="1.1" id="Layer_1" xmlns="http://www.w3.org/2000/svg" xmlns:xlink="http://www.w3.org/1999/xlink" x="0px" y="0px"
	 viewBox="0 0 2269 1094.7" style="enable-background:new 0 0 2269 1094.7;" xml:space="preserve">
<style type="text/css">
	.st0{fill:#0B2D4E;}
	.st1{fill:none;stroke:#0B2D4E;stroke-width:4;stroke-miterlimit:10;}
	.st2{fill:#061F33;}
	.st3{fill:#F8A17A;}
	.st4{fill:#8070F2;}
	.st5{clip-path:url(#SVGID_2_);fill:#9B87FF;}
	.st6{fill:#73B8D4;}
	.st7{fill:#E5785C;}
	.st8{fill:#DBCDFE;}
	.st9{fill:#B8D1CE;}
	.st10{fill:#FFFFFF;}
	.st11{fill:#9B87FF;}
	.st12{opacity:0.1;}
	.st13{fill:#00A3D5;}
	.st14{fill:#6DC9F0;}
	.st15{fill:#FFC73C;}
	.st16{opacity:0.3;fill:#FFFFFF;}
	.st17{fill:#FFE9CC;}
	.st18{fill:#51666F;}
	.st19{fill:#D8584E;}
	.st20{fill:#381F7A;}
	.st21{opacity:0.2;fill:#FFFFFF;}
	.st22{fill:#EFB126;}
	.st23{clip-path:url(#SVGID_6_);}
	.st24{fill:none;stroke:#26A8D1;stroke-width:5;stroke-miterlimit:10;}
	.st25{clip-path:url(#SVGID_8_);}
	.st26{fill:none;stroke:#3DC8E8;stroke-width:5;stroke-miterlimit:10;}
	.st27{opacity:0.1;fill:#231F20;}
	.st28{fill:#DFDBDA;}
	.st29{fill:#231F20;}
	.st30{fill:#8B018D;}
	.st31{fill:#3DC8E8;}
	.st32{fill:#26A8D1;}
</style>
<g>
	<path class="st0" d="M1425.8,679.7c-41.6,17-94.1,11.9-130.9-14.3c-37-26.3-70.8-45.6-117.8-47c-29.2-0.9-56.5,11.3-84.3,18.3
		c-24.4,6.1-43.1,25.7-69.4,29.4c-34.6,4.7-70.2-16.5-85.7-47.8c-15.6-31.3-12.2-70.2,5.2-100.5c12.7-22.1,24.4-38.6,10.1-63.2
		c-3.1-5.4-7-10.3-9.2-16.2c-2-5.5-2.3-11.5-2.1-17.3c1.3-31.9,25.5-55.9,41.6-82.2c3.8-6.2,7.6-12.6,8.7-19.7
		c2.9-18.2-11.5-33.8-19.2-50.5c-24.9-54.1,17.6-115.6,59-148.1c24.4-19.2,53.7-26.9,80-42.5c12-7.1,22.9-15.9,35.1-22.8
		c21.2-12,44.2-12.5,67.7-9.2c66.9,9.4,143,58,158.5,128c10.5,47.5-6.7,102.6,40.3,135.9c14.2,10,32,16,41.7,30.4
		c20.5,30.6-9.6,75.9,9.1,107.7c4.2,7.1,10.4,12.6,16.1,18.6c30,31.3,45.6,76,41.3,119.2c-1,10.5-3.2,21.2-8.4,30.4
		c-7.1,12.7-19.3,21.6-31.1,30.1c-17.7,12.6-35.8,25.1-55.9,33.4C1426.2,679.5,1426,679.6,1425.8,679.7z"/>
	<path class="st1" d="M1486.5,502.4c-20.8-17.9-25.2-49.1-19.2-75.8c3.9-17.5,11.7-34.5,11-52.4c-0.9-22.4-16.5-43.6-37.6-51.1
		c-10.8-3.8-22.7-4.3-33-9.2c-15.6-7.5-24.2-23.2-29.9-38.8c-6.2-17-3.6-31.5-3.7-49.3c-0.1-22.7-0.7-45.5-3-68.2
		c-2.7-26.1-18.3-52-36.2-70.7c-2.6-2.7-5.3-5.3-8-7.8c-46.5-41.5-135.4-59.7-190.5-25.9c-11,6.7-17.8,16-26.5,24.9
		c-8.9,9.1-20.3,16.4-31,23.1c-21.6,13.6-44.9,24.3-67.7,35.6c-14.6,7.2-29.4,15-40.2,27.3c-12.9,14.8-18.6,35-18.1,54.6
		c0.6,19.6,7,38.7,16,56.2c6.4,12.3,14.1,24.1,18.1,37.4c6.6,21.6-6,42-22,55.8c-12.1,10.5-26,20.1-32.6,34.7
		c-5.5,12.1-5,26.8,1.3,38.5c5.9,10.9,16.3,19,21.8,30.2c5.3,10.7,5.4,23.8,0.4,34.6c-6.4,13.8-20.9,26.6-16.1,41"/>
	<path class="st2" d="M1337.6,471.7c2.6,17.3,0.6,35.1-7,50.9c-20.5,42.6-71.2,50.9-114,52.6c-15.8,0.6-31.7-0.2-47.4-2.5
		c-14-2.1-26.4,0-40.5-0.3c-27.9-0.6-55.6-8.9-79.2-23.8c-11.5-7.3-22.3-16.5-28.1-28.7c-8.1-16.8-5.7-36.7-1.5-54.9
		c2.5-10.5,5.6-21,11-30.3c5.8-10,14-18.5,18.8-29c9-19.7,1.6-42.7,9.6-62.1c6.3-15.1,22.1-32.2,35.2-41.7
		c17.8-12.9,40.9-16.9,62.8-15.4c22,1.5,43.2,8.1,64.1,15c16.5,5.4,30.6,2.1,42.7,15.7c9.6,10.8,6.2,28.4,9.3,41.5
		C1283.8,402.5,1330.7,425.7,1337.6,471.7z"/>
	<path class="st3" d="M984.6,880.2c-48.3-11.3-93.9-32.7-143-40.7c-31.1-5.1-87.8-13.1-104.3,21.2c-8.3,17.2-4.4,38.6,7.4,53.3
		c26.5,32.9,81.6,41.7,120.4,50c61.9,13.2,124.7,15.8,187.8,13.9c17.8-0.5,36.4-1.8,51.7-11c15.3-9.2,25.7-28.9,18.6-45.3
		c-10.8-25-50.7-24.5-73.4-28.3C1027.8,889.5,1006.1,885.2,984.6,880.2z"/>
	<path class="st4" d="M1040.1,665.1c-36.2,42-75.5,81.5-113.6,121.8c-7.9,8.3-15.7,16.6-23.2,25.3c-3.8,4.3-8.1,8.6-11.2,13.4
		c-2.5,3.9-8.1,11.7-13,22.7c-45.3-13.5-98.2-3.6-141.8,12.2c5-34.1,18.6-55,22.4-63.6c19.1-43.2,50.3-79.5,79.7-116
		c35.7-44.2,73.3-86.8,107.6-132.1c27.9-36.8,74.9-78.2,121.2-44.4c35.6,26,19.6,78.7,5,111.9C1065.4,634.2,1053.2,650,1040.1,665.1
		z"/>
	<path class="st3" d="M1328.6,880.2c48.3-11.3,93.9-32.7,143-40.7c31.1-5.1,87.8-13.1,104.3,21.2c8.3,17.2,4.4,38.6-7.4,53.3
		c-26.5,32.9-81.6,41.7-120.4,50c-61.9,13.2-124.7,15.8-187.8,13.9c-17.8-0.5-36.4-1.8-51.7-11c-15.3-9.2-25.7-28.9-18.6-45.3
		c10.8-25,50.7-24.5,73.4-28.3C1285.3,889.5,1307.1,885.2,1328.6,880.2z"/>
	<path class="st4" d="M1273.1,665.1c36.2,42,75.5,81.5,113.6,121.8c7.9,8.3,15.7,16.6,23.2,25.3c3.8,4.3,8.1,8.6,11.2,13.4
		c2.5,3.9,8.1,11.7,13,22.7c45.3-13.5,98.2-3.6,141.8,12.2c-5-34.1-18.6-55-22.4-63.6c-19.1-43.2-50.3-79.5-79.7-116
		c-35.7-44.2-73.3-86.8-107.6-132.1c-27.9-36.8-74.9-78.2-121.2-44.4c-35.6,26-19.6,78.7-5,111.9
		C1247.8,634.2,1260,650,1273.1,665.1z"/>
	<g>
		<defs>
			<path id="SVGID_1_" d="M1314.4,1006c18.2-16.2,1-63.5-2.1-81.2c-5.8-33.8-7.8-70.8,3.7-103.7c16.5-47.2,36.7-84.5,37.9-137.1
				c1.1-45-8-89.4-17.1-133.2c-8.9-43.4-13-56.1-55.5-62.7c-15.2-2.4-30.1-6.5-45.3-9.2c-25.7-4.6-51.7-6.6-77.7-6.7
				c-0.3,0-0.7,0-1,0c-0.3,0-0.7,0-1,0c-26.1,0-52.1,2.1-77.7,6.6c-15.1,2.7-30.1,6.8-45.3,9.2c-42.5,6.6-46.6,19.2-55.5,62.7
				c-9,43.9-18.1,88.2-17.1,133.2c1.2,52.6,21.4,89.8,37.9,137.1c17.5,50.1,4.2,101.4-9.1,150.2c-2,7.4-2.7,15.9,2,21.9
				c2.9,3.7,7.4,5.8,11.9,7.3c15,5.3,31,6.2,46.9,6.9c82,3.8,164.2,3.8,246.3,3.6c4.1,0,8.3,0,12-1.6
				C1310.9,1008.7,1312.8,1007.5,1314.4,1006z"/>
		</defs>
		<use xlink:href="#SVGID_1_"  style="overflow:visible;fill:#9B87FF;"/>
		<clipPath id="SVGID_2_">
			<use xlink:href="#SVGID_1_"  style="overflow:visible;"/>
		</clipPath>
		<path class="st5" d="M1292,497.2c2.6-8.1,12.5-26.1,7.5-33.2c-5-7.1-23.6-5.6-30.9-5.3c-80,2.7-159.9,5.4-239.9,8.1
			c4.6,17.1,4.8,33.1,11.4,50.1c5.6,14.4,13,28.1,22.5,40.3c18.9,24.4,45.6,41.6,76,47.5c51.5,10.1,108.4-15,134.5-60.6
			C1281.5,529.5,1286.7,513.3,1292,497.2z"/>
	</g>
	<path class="st3" d="M1097.4,557c25.1,28.5,73.2,30.7,106.9,19.1c22.9-7.9,39.2-26,39.6-50.9c0.5-27.8-23.8-47.6-30-73.5
		c-3.5-14.7-3.2-29.8-2.8-44.8c0.4-17.4,0.5-34.9,1.4-52.3c-17.3-3.6-31.3-5.5-49.6-4.7c-15.2,0.6-30.3-1-45.5-0.1
		c-1.2,0.1-2.5,0.2-3.4,1c-0.9,0.8-1,2.1-1.1,3.3c-2,23.6,0,47.4-1.6,71c-1.5,21.7-6.3,43.5-19,61.5
		C1076.8,508.5,1080.6,537.9,1097.4,557z"/>
	<g>
		<g>
			<path class="st6" d="M1143.5,102.1c12.6-6.5,26.8-9.7,41-10.3c14.2-0.6,28.5,1.2,42.4,4.4c27.9,6.2,54,20.4,74.2,40.7
				c20.3,20.1,34.5,46.8,38.5,75.4c2,14.3,1.3,28.6,1.5,42.7c0.3,14,1.4,28.3,7.2,40.8c5.9,12.4,16.1,22.5,27.4,30.7
				c11.4,8.2,23.9,14.8,36.1,22.3c6,3.7,12.4,7.7,16.8,13.9c4.5,6.4,5.4,14.1,5.5,21.3c0.1,7.3-0.8,14.5-2.7,21.5
				c-1.8,7-5.1,13.6-7.8,20c-2.8,6.4-4.5,13.1-3.8,20c0.6,6.8,2.9,13.5,5.9,19.9c6,12.7,13.4,24.9,19.5,37.8
				c6.1,12.8,10.8,26.6,11.9,40.9c1.3,14.2-0.5,28.6-5.2,42c4.4-13.5,5.8-27.9,4.2-41.9c-1.4-14.1-6.3-27.5-12.7-40.1
				c-6.3-12.7-13.8-24.7-20-37.6c-3.1-6.5-5.6-13.3-6.4-20.7c-0.9-7.4,1-14.8,3.7-21.4c2.7-6.7,5.8-12.9,7.4-19.7
				c1.8-6.7,2.6-13.7,2.5-20.6c-0.1-6.9-1.1-13.9-5-19.3c-3.8-5.4-9.8-9.2-15.8-12.9c-12-7.4-24.7-13.9-36.4-22.3
				c-11.6-8.3-22.4-18.7-28.8-32.1c-6.2-13.5-7.2-28.2-7.4-42.4c-0.2-14.2,0.5-28.4-1.3-42.3c-3.7-27.8-17.6-53.7-37.1-73.8
				c-19.6-20.1-45-34.4-72.5-40.9c-13.7-3.5-27.8-5.6-41.9-5.3C1170.5,93.1,1156.3,95.9,1143.5,102.1z"/>
		</g>
	</g>
	<path class="st7" d="M1212.9,448.2c-2.7-13.7-2.4-27.6-2.1-41.5c0.4-17.4,0.5-34.9,1.4-52.3c-17.3-3.6-31.3-5.5-49.6-4.7
		c-15.2,0.6-30.3-1-45.5-0.1c-1.2,0.1-2.5,0.2-3.4,1c-0.9,0.8-1,2.1-1.1,3.3c-2,23.6,0,47.4-1.6,71c-0.5,6.8-1.3,13.5-2.5,20.2
		c2.4,2.1,4.8,4.1,7.3,5.9c18.7,13.8,44,18.4,66.4,12.1C1193.5,459.9,1203.7,454.8,1212.9,448.2z"/>
	<path class="st3" d="M1276.9,261.1c-0.5-23.1-4-45-10.2-63.1c-26.8-78.1-125-96.1-183.2-38.9c-64.9,63.8-37.5,213.7,32.5,265.5
		c18.7,13.8,44,18.4,66.4,12.1C1250.2,417.4,1278.4,333.2,1276.9,261.1z"/>
	<path class="st7" d="M1276.8,193.3c-21.1-79.9-117.8-104.9-179.9-52c-9.9,8.4-16.8,18.5-23.9,29.3c-6,9.1-14.3,16-19.6,26.1
		c-5.4,10.3-8.8,21.7-9.9,33.3c-1.1,11.3,2.6,21.2,2.9,32c-0.3-11.3,4.6-22.7,13.1-30.2c6.6-5.9,14.9-9.3,22.6-13.6
		c7.7-4.3,15.2-10.2,18-18.5c24.7,32.4,63.1,42.3,100.8,51.7c31.7,7.8,66.4,27.8,67.1,64.8c0.1,4.7,0.4,6,2.4,12.1
		c2.2-5.6,3-9.6,3.7-15.6c0.7-6,2.4-12,3.6-18.1c2.4-12.4,4-25,4.6-37.6C1283.6,233.9,1281.7,211.8,1276.8,193.3z"/>
	<path class="st0" d="M1294.8,330.4c6.3-4.8,11.1-11.8,13.8-19.1c8.4-24.8,7.5-52.3,6.5-78.9c-0.6-14.8-1.2-29.9-5.2-44
		c-4.4-15.4-12.8-29.1-22.7-40.8c-28.6-33.9-71.4-51.1-112.5-47.6c-16.5,1.4-28.6,9.3-43.1,16c-14.2,6.6-30.8,10.2-45.7,15.1
		c-17.2,5.7-34.9,11.6-48.5,23.5c-10,8.7-17.2,20.2-22.4,32.3c-6.2,14.6-6.8,30.8-5,46.4c1.5,12.8,3.1,26.5,8.8,38.5
		c5.3,11.2,17.2,18.5,27.8,24.1c-1.6-0.8-0.2-19.3-0.3-22.2c-0.2-16.3,0.7-33.1,5.8-48.7c4.9-15.3,14.7-24.6,27.4-34
		c5.1-3.7,10.2-7.6,14.5-12.3c2.1-2.4,11.4-13.2,9.9-16.5c7.2,15.9,18.5,32.3,32.7,42.7c26.9,19.8,56.8,33.8,87.1,45.7
		c2.2,0.9,4.5,1.7,6.7,2.6c8.3,3.3,16.6,7.2,23.4,13.4c15.3,13.9,16.4,35.3,15.8,54.6c-0.1,2.1-0.1,4.3,0.6,6.3
		C1273.3,336.9,1288.6,335.1,1294.8,330.4z"/>
</g>
<path class="st8" d="M2182.5,1036.4h-2054c-20.9,0-37.9-16.2-37.9-36.1l0,0c0-19.9,17-36.1,37.9-36.1h2054
	c20.9,0,37.9,16.2,37.9,36.1l0,0C2220.3,1020.2,2203.4,1036.4,2182.5,1036.4z"/>
<g>
	<path class="st9" d="M1413.9,931.6h-510l-36.5-379.7c-0.7-6.8,4.6-12.7,11.3-12.7h560.4c6.7,0,12,5.9,11.3,12.7L1413.9,931.6z"/>
	<path class="st10" d="M1417.9,942.4h-518l-37.1-379.7c-0.7-6.8,4.7-12.7,11.5-12.7h569.2c6.8,0,12.2,5.9,11.5,12.7L1417.9,942.4z"
		/>
	<rect x="899.9" y="942.4" class="st9" width="517.7" height="23"/>
	<path class="st9" d="M1194.8,746.2c0,19.8-16.1,35.9-35.9,35.9c-19.8,0-35.9-16.1-35.9-35.9c0-19.8,16.1-35.9,35.9-35.9
		C1178.7,710.2,1194.8,726.3,1194.8,746.2z"/>
</g>
<g>
	<g>
		
			<rect x="224.1" y="421.6" transform="matrix(0.9728 -0.2317 0.2317 0.9728 -152.0605 72.128)" class="st11" width="13.7" height="523.3"/>
		
			<rect x="252.7" y="415.9" transform="matrix(0.9728 -0.2317 0.2317 0.9728 -151.5042 78.7786)" class="st11" width="13.7" height="536.8"/>
		
			<rect x="329.6" y="84.4" transform="matrix(0.671 0.7415 -0.7415 0.671 309.1332 -161.407)" class="st11" width="13.7" height="366.4"/>
		
			<rect x="337.5" y="114.4" transform="matrix(0.671 0.7415 -0.7415 0.671 334.0031 -157.398)" class="st11" width="13.7" height="366.4"/>
		<rect x="265.8" y="942.3" class="st4" width="275.7" height="21.4"/>
		<path class="st11" d="M502.2,899.6H305.1c-21.7,0-39.3,17.6-39.3,39.3v3.4h275.7v-3.4C541.5,917.2,523.9,899.6,502.2,899.6z"/>
		<rect x="513" y="104.3" transform="matrix(0.5 0.866 -0.866 0.5 391.0558 -374.4741)" class="st11" width="13.7" height="94.3"/>
		<path class="st4" d="M233.5,425.1l-19.4,26.9c-2.8,3.9-8,5.2-12.3,3l-40.7-20.8c-5.3-2.7-7-9.6-3.4-14.4l30.9-42.2
			c3.8-5.2,11.4-5.3,15.4-0.4l29.1,36.1C236,416.7,236.1,421.5,233.5,425.1z"/>
		<circle class="st10" cx="165.4" cy="424.5" r="4.5"/>
		<path class="st10" d="M211.4,445.8c0,2.5-2,4.5-4.5,4.5c-2.5,0-4.5-2-4.5-4.5c0-2.5,2-4.5,4.5-4.5
			C209.4,441.3,211.4,443.3,211.4,445.8z"/>
		<path class="st10" d="M230,419c0,2.5-2,4.5-4.5,4.5c-2.5,0-4.5-2-4.5-4.5c0-2.5,2-4.5,4.5-4.5C228.1,414.6,230,416.6,230,419z"/>
		<path class="st4" d="M450.8,144.6l13.4,54c1.5,6,8.9,8.1,13.3,3.8l40.1-38.6c4.4-4.3,2.6-11.7-3.3-13.4L460.8,135
			C454.9,133.3,449.4,138.6,450.8,144.6z"/>
		<path class="st10" d="M477.3,194.5c-1.3,2.1-4.1,2.6-6.2,1.3c-2.1-1.3-2.6-4.1-1.3-6.2c1.3-2.1,4.1-2.6,6.2-1.3
			C478.1,189.7,478.7,192.5,477.3,194.5z"/>
		<path class="st10" d="M464.8,146.9c-1.3,2.1-4.1,2.6-6.2,1.3c-2.1-1.3-2.6-4.1-1.3-6.2c1.3-2.1,4.1-2.6,6.2-1.3
			C465.6,142.1,466.2,144.9,464.8,146.9z"/>
		<path class="st10" d="M513,161.7c-1.3,2.1-4.1,2.6-6.2,1.3c-2.1-1.3-2.6-4.1-1.3-6.2c1.3-2.1,4.1-2.6,6.2-1.3
			C513.7,156.8,514.3,159.6,513,161.7z"/>
		<path class="st10" d="M201.3,382.4c0,2.5-2,4.5-4.5,4.5c-2.5,0-4.5-2-4.5-4.5c0-2.5,2-4.5,4.5-4.5
			C199.3,377.9,201.3,379.9,201.3,382.4z"/>
		<g>
			<defs>
				<path id="SVGID_3_" d="M652.1,149.9l-88.8,19l-26-121.5c-1.4-6.4,2.7-12.8,9.2-14.1l65.5-14c6.4-1.4,12.8,2.7,14.1,9.2
					L652.1,149.9z"/>
			</defs>
			<use xlink:href="#SVGID_3_"  style="overflow:visible;fill:#9B87FF;"/>
			<clipPath id="SVGID_4_">
				<use xlink:href="#SVGID_3_"  style="overflow:visible;"/>
			</clipPath>
		</g>
		
			<rect x="553.6" y="107" transform="matrix(0.9779 -0.2092 0.2092 0.9779 -11.6632 127.9468)" class="st4" width="91.2" height="24.2"/>
		<polygon class="st11" points="756.4,208.3 501.4,262.8 557.3,140.3 646,121.3 		"/>
		<path class="st12" d="M603,130.5l43.1-9.2l110.3,86.9c0,0-92.2,20.3-129.5,28"/>
		<path class="st12" d="M646.4,121.3l-43.4,9.3L580.6,26.1l32-6.9c6.3-1.3,12.5,2.7,13.8,9L646.4,121.3z"/>
	</g>
</g>
<g>
	<g>
		<path class="st13" d="M490.6,877.3L490.6,877.3c-1.4,0.3-2.8-0.6-3.1-2l-4.5-21.6c-0.3-1.4,0.6-2.8,2-3.1l0,0
			c1.4-0.3,2.8,0.6,3.1,2l4.5,21.6C492.9,875.6,492,877,490.6,877.3z"/>
		<path class="st13" d="M457.6,718.9L457.6,718.9c-3.9,0.8-7.8-1.7-8.6-5.7l-5.4-25.8c-0.8-3.9,1.7-7.8,5.7-8.6l0,0
			c3.9-0.8,7.8,1.7,8.6,5.7l5.4,25.8C464,714.2,461.5,718.1,457.6,718.9z"/>
		<path class="st13" d="M488,864.8L488,864.8c-3.9,0.8-7.8-1.7-8.6-5.7l-5.4-25.8c-0.8-3.9,1.7-7.8,5.7-8.6l0,0
			c3.9-0.8,7.8,1.7,8.6,5.7l5.4,25.8C494.5,860.1,491.9,864,488,864.8z"/>
		<path class="st14" d="M461.4,697.1l-16.1,3.4c-4,0.8-6.6,4.8-5.8,8.8l13.7,65.7l17.1,65.4c1,3.8,4.8,6.2,8.7,5.4l9.5-2
			c3.9-0.8,6.5-4.5,5.8-8.5l-10.5-66.7l-13.7-65.7C469.4,698.9,465.5,696.3,461.4,697.1z"/>
		<path class="st13" d="M482.1,773.4l-25.2,5.3c-2.4,0.5-4.7-1-5.1-3.4l0,0c-0.5-2.4,1-4.7,3.4-5.1l25.2-5.3c2.4-0.5,4.7,1,5.1,3.4
			l0,0C486,770.6,484.4,772.9,482.1,773.4z"/>
		<path class="st13" d="M493.4,762.2L493.4,762.2c-1.8,0.4-3.7-0.8-4-2.6l-12.9-62c-0.4-1.8,0.8-3.7,2.6-4l0,0
			c1.8-0.4,3.7,0.8,4,2.6l12.9,62C496.4,760,495.2,761.8,493.4,762.2z"/>
		
			<rect x="472.1" y="702" transform="matrix(0.9789 -0.2042 0.2042 0.9789 -135.2329 112.121)" class="st14" width="7.1" height="18.6"/>
	</g>
	<g>
		
			<rect x="492.2" y="656.9" transform="matrix(0.9987 5.125135e-02 -5.125135e-02 0.9987 38.3673 -25.1094)" class="st15" width="33.1" height="157.4"/>
		
			<rect x="499.8" y="656.9" transform="matrix(0.9987 5.124070e-02 -5.124070e-02 0.9987 38.3592 -25.1044)" class="st16" width="18" height="157.4"/>
		<polygon class="st0" points="501.8,866.9 521.3,815 487.7,813.3 		"/>
		<polygon class="st17" points="512,839.8 521.3,815 487.7,813.3 494.4,838.9 		"/>
		
			<rect x="496.7" y="640.6" transform="matrix(0.9987 5.125135e-02 -5.125135e-02 0.9987 33.9251 -25.4517)" class="st0" width="33.1" height="16.4"/>
		<path class="st11" d="M530.2,642.1l-33.1-1.7l0,0c0.5-9,8.2-16,17.2-15.5l0.3,0C523.7,625.3,530.6,633,530.2,642.1L530.2,642.1z"
			/>
	</g>
	<g>
		
			<rect x="527.4" y="697.9" transform="matrix(-0.908 -0.4191 0.4191 -0.908 712.5076 1709.6212)" class="st15" width="33.1" height="157.4"/>
		
			<rect x="535" y="697.9" transform="matrix(-0.9079 -0.4191 0.4191 -0.9079 712.5002 1709.6223)" class="st16" width="18" height="157.4"/>
		<polygon class="st0" points="599.4,657.3 562,698.2 592.5,712.3 		"/>
		<polygon class="st17" points="579.9,678.6 562,698.2 592.5,712.3 595.8,686 		"/>
		
			<rect x="491" y="847.3" transform="matrix(-0.908 -0.4191 0.4191 -0.908 609.9553 1844.9026)" class="st18" width="33.1" height="16.4"/>
		<path class="st19" d="M489.4,855.4l30.1,13.9l-6,13.1c-0.5,1-1.7,1.4-2.7,1l-26.4-12.2c-1-0.5-1.4-1.7-1-2.7L489.4,855.4z"/>
	</g>
	<g>
		
			<rect x="454.2" y="803.1" transform="matrix(-1 -1.224647e-16 1.224647e-16 -1 1008.5452 1767.0009)" class="st20" width="100.2" height="160.8"/>
		
			<rect x="454.2" y="803.1" transform="matrix(-1 -1.224647e-16 1.224647e-16 -1 958.4426 1767.0009)" class="st12" width="50.1" height="160.8"/>
	</g>
</g>
<g>
	<g>
		<g>
			<path class="st15" d="M686.6,964.3h-62.8c-18.8,0-34-15.2-34-34V777h130.8v153.3C720.6,949,705.4,964.3,686.6,964.3z"/>
			<path class="st15" d="M729.7,819.3c-31.4,0-56.8,25.8-56.8,57.6c0,31.8,25.4,57.6,56.8,57.6c31.4,0,56.8-25.8,56.8-57.6
				C786.5,845.1,761.1,819.3,729.7,819.3z M729.7,914c-20.2,0-36.5-16.6-36.5-37.1c0-20.5,16.4-37.1,36.5-37.1
				c20.2,0,36.5,16.6,36.5,37.1C766.2,897.4,749.9,914,729.7,914z"/>
			<path class="st21" d="M609.4,893.2L609.4,893.2c-3.9,0-7.1-3.2-7.1-7.1V795c0-3.9,3.2-7.1,7.1-7.1l0,0c3.9,0,7.1,3.2,7.1,7.1
				v91.2C616.5,890,613.3,893.2,609.4,893.2z"/>
			<path class="st22" d="M690.4,777v154.2c0,18.3-14.8,33.1-33.1,33.1h30.2c18.3,0,33.1-14.8,33.1-33.1V777H690.4z"/>
		</g>
	</g>
</g>
<g>
	<g>
		<defs>
			<path id="SVGID_5_" d="M1950.3,153.6c-13.1-0.1-25.7-1.8-34.7-14.6c-17.6-25.2-44.4-47.7-74.4-22.2
				c-17.3,14.8-4.3,45.1-19.2,59.7c-13.2,12.9-30,10.8-36.7,32.2c-9.9,31.5,21.4,59.1,31.4,86.4c8.4,22.9-10.5,31.6-19,49.4
				c-6.6,13.7-3.2,28.5,4,41.6c12.6,23.2,40.6,41.8,34.1,71.8c-5.4,25-10.4,47.3,11.6,66.3c15.1,13,43.2,24.9,41.1,48.9
				c-0.8,8.5-6.7,15.8-8.3,24.2c-2.6,13.3,6.1,26.2,16,35.3c22.7,20.8,42.7,40.3,59.8,66.4c7.3,11.2,36.4,36.4,24.8,51.6
				c21.2-27.7,43.6-54.6,62.8-83.8c15.8-24,39.7-59,23.4-88.6c-5.1-9.2-14.4-16-17-26.2c-4.6-18.4,13.4-35.4,20.1-51
				c10.5-24.5,2.8-53-15.7-71.4c-8.8-8.7-18.3-18.3-19.6-30.6c-1.4-13.4,7-25.9,10.8-38.3c3.5-11.4,5.7-23.5,7-35.4
				c0.9-8.4,1.3-16.9-0.7-25.1c-3.7-15.6-17.8-24.2-28.1-35.3c-24.7-26.3-11.7-57.2-22.5-87.8C1991.5,150,1970.5,153.7,1950.3,153.6
				z"/>
		</defs>
		<use xlink:href="#SVGID_5_"  style="overflow:visible;fill:#3DC8E8;"/>
		<clipPath id="SVGID_6_">
			<use xlink:href="#SVGID_5_"  style="overflow:visible;"/>
		</clipPath>
		<g class="st23">
			<path class="st24" d="M1983.4,782c9.2-105.1,0.7-211.1-18.7-314.7c-18.5-98.8-42.8-197.9-79.7-291.5
				c-12.2-30.9-25.9-61.3-41.4-90.7"/>
			<path class="st24" d="M1760.6,226.1c51.8,18.3,101.1,43.3,146.4,74.2c11.5,7.9,17.9,10.3,27.5,20.4"/>
			<path class="st24" d="M1959,433.4c-49.7-32.1-106-53.8-164.4-63.4"/>
			<path class="st24" d="M1978.7,569c-46.2-40.1-102.6-68.3-162.3-81.5"/>
			<path class="st24" d="M1931.9,317.2c3.6-55.6,17.5-110.6,40.6-161.3"/>
			<path class="st24" d="M1958.4,428.8c23.5-50.3,57.4-95.6,99-132.3"/>
			<path class="st24" d="M1981.8,572.9c3.2-15.5,8.9-30.5,16.8-44.3c9.2-16,21.1-30.2,33.3-44.1c8.8-10,17.7-19.8,26.8-29.5"/>
		</g>
	</g>
	<g>
		<defs>
			<path id="SVGID_7_" d="M2110.8,345.2c9.5,1.8,18.9,2.3,27.2-5.8c16.2-15.8,38.8-28.5,57.1-5.8c10.5,13.1-3.1,33.3,5.7,46
				c7.8,11.2,20.3,12,22.2,28.4c2.8,24.2-23.7,39.9-34.7,58.3c-9.3,15.4,3.3,24.4,7,38.5c2.9,10.9-1.6,21.1-8.6,29.6
				c-12.4,15.1-35.2,24.7-34.7,47.4c0.5,18.9,1,35.8-17.6,46.5c-12.8,7.3-34.8,12-36.6,29.8c-0.6,6.3,2.6,12.4,2.7,18.7
				c0,10-8,18.2-16.5,23.4c-19.4,11.9-36.6,23.3-52.6,39.9c-6.8,7.1-31.5,21.3-25.1,34c-11.5-23-24-45.7-34-69.5
				c-8.2-19.6-20.6-48.3-4.7-67.5c4.9-6,12.7-9.6,16-16.6c5.9-12.7-4.8-27.5-7.5-39.8c-4.2-19.2,5.3-38.8,21.3-49.6
				c7.6-5.1,15.8-10.7,18.4-19.5c2.9-9.5-1.5-19.8-2.5-29.3c-1-8.8-0.9-17.9-0.2-26.6c0.5-6.2,1.4-12.5,4-18.1
				c4.9-10.8,16.2-15.1,25.3-21.7c21.6-15.7,16.4-39.9,28.5-60.6C2081.4,336.9,2096.1,342.5,2110.8,345.2z"/>
		</defs>
		<use xlink:href="#SVGID_7_"  style="overflow:visible;fill:#26A8D1;"/>
		<clipPath id="SVGID_8_">
			<use xlink:href="#SVGID_7_"  style="overflow:visible;"/>
		</clipPath>
		<g class="st25">
			<path class="st26" d="M1999.8,796.5c7.9-77.5,28.7-153.2,57.1-225.7c27.1-69.1,58.5-137.6,98.2-200.4
				c13.1-20.8,27.2-40.9,42.6-60.1"/>
			<path class="st26" d="M2238.4,424.1c-40.1,6.1-79.3,17.4-116.5,33.6c-9.4,4.1-14.4,5-22.8,11"/>
			<path class="st26" d="M2065.7,547c40.5-16.4,84.3-24.4,128-23.3"/>
			<path class="st26" d="M2032.7,642.6c39.1-22.7,83.9-35.4,129-36.6"/>
			<path class="st26" d="M2101.4,466.5c5.1-40.9,2.6-82.6-7.2-122.6"/>
			<path class="st26" d="M2066.8,543.7c-10.1-39.7-28.4-77.3-53.5-109.7"/>
			<path class="st26" d="M2029.9,645c-0.2-11.7-2.3-23.4-6.1-34.5c-4.4-12.9-11.1-24.9-18.1-36.6c-5-8.5-10.1-16.8-15.3-25.1"/>
		</g>
	</g>
	<polygon class="st22" points="1907.5,769.7 2101.4,769.7 2067.4,963.7 1941.6,963.7 	"/>
	
		<rect x="1883.8" y="715.2" transform="matrix(-1 -1.224647e-16 1.224647e-16 -1 4008.9377 1484.8685)" class="st15" width="241.3" height="54.5"/>
	<polygon class="st27" points="2096.9,795.4 1912.1,795.4 1907.5,769.7 2101.4,769.7 	"/>
</g>
<g>
	<g>
		<g>
			<g>
				<g>
					<path class="st11" d="M1935,963.5h-302.1c-25.1,0-45.5-15.9-45.5-35.4V919c0-19.6,20.4-35.4,45.5-35.4H1935v10.9h-281.1
						c-9.7,0-17.5,6.1-17.5,13.6V939c0,7.5,7.8,13.6,17.5,13.6H1935V963.5z"/>
				</g>
			</g>
			<g>
				<g>
					<path class="st4" d="M1970,963.5h-302.1c-25.1,0-45.5-15.9-45.5-35.4V919c0-19.6,20.4-35.4,45.5-35.4H1970v10.9h-302.1
						c-17.4,0-31.5,11-31.5,24.5v9.1c0,13.5,14.1,24.5,31.5,24.5H1970V963.5z"/>
				</g>
			</g>
			<g>
				<path class="st10" d="M1961.8,952.6h-297.3c-16,0-29.1-13-29.1-29.1l0,0c0-16,13-29.1,29.1-29.1h297.3V952.6z"/>
			</g>
			<g>
				<path class="st28" d="M1651.8,919.5c22.6-0.6,45.2-1.1,67.8-1.3c22.6-0.3,45.2-0.3,67.8-0.4c22.6,0,45.2,0.1,67.8,0.4
					c22.6,0.2,45.2,0.6,67.8,1.3c-22.6,0.6-45.2,1.1-67.8,1.3c-22.6,0.3-45.2,0.3-67.8,0.4c-22.6,0-45.2-0.1-67.8-0.4
					C1697,920.6,1674.4,920.2,1651.8,919.5z"/>
			</g>
			<g>
				<path class="st28" d="M1688.2,937.5c22.6-0.6,45.2-1.1,67.8-1.3c22.6-0.3,45.2-0.3,67.8-0.4c22.6,0,45.2,0.1,67.8,0.4
					c22.6,0.2,45.2,0.6,67.8,1.3c-22.6,0.6-45.2,1.1-67.8,1.3c-22.6,0.3-45.2,0.3-67.8,0.4c-22.6,0-45.2-0.1-67.8-0.4
					C1733.4,938.6,1710.8,938.2,1688.2,937.5z"/>
			</g>
			<g class="st12">
				<path class="st29" d="M1638.2,910.6c7.6-13.7,18.4-16.1,26.3-16.1h297.9v18.3"/>
			</g>
		</g>
		<g>
			<g>
				<path class="st20" d="M1954.9,883.6h-316.1c-17.4,0-31.5-14.1-31.5-31.5v-39.7c0-17.4,14.1-31.5,31.5-31.5h316.1v14h-316.1
					c-9.6,0-17.5,7.9-17.5,17.5v39.7c0,9.6,7.9,17.5,17.5,17.5h316.1V883.6z"/>
			</g>
			<g>
				<path class="st10" d="M1946.8,869.6h-308.9c-9.7,0-17.5-7.8-17.5-17.5v-39.7c0-9.7,7.8-17.5,17.5-17.5h308.9V869.6z"/>
			</g>
			<g class="st12">
				<path class="st29" d="M1620.4,812.4c0-9.7,7.8-17.5,17.5-17.5h308.9v18.3"/>
			</g>
			<g>
				<g>
					<path class="st28" d="M1663.6,827.4c22.6-0.7,45.2-1.2,67.8-1.5c22.6-0.3,45.2-0.4,67.8-0.4c22.6,0,45.2,0.1,67.8,0.4
						c22.6,0.2,45.2,0.7,67.8,1.5c-22.6,0.7-45.2,1.2-67.8,1.5c-22.6,0.3-45.2,0.4-67.8,0.4c-22.6,0-45.2-0.1-67.8-0.4
						C1708.8,828.6,1686.2,828.1,1663.6,827.4z"/>
				</g>
			</g>
			<g>
				<g>
					<path class="st28" d="M1639.1,843.5c22.6-0.7,45.2-1.2,67.8-1.5c22.6-0.3,45.2-0.4,67.8-0.4c22.6,0,45.2,0.1,67.8,0.4
						c22.6,0.2,45.2,0.7,67.8,1.5c-22.6,0.7-45.2,1.2-67.8,1.5c-22.6,0.3-45.2,0.4-67.8,0.4c-22.6,0-45.2-0.1-67.8-0.4
						C1684.3,844.7,1661.7,844.2,1639.1,843.5z"/>
				</g>
			</g>
		</g>
		<g>
			<g>
				<g>
					<path class="st30" d="M1657.3,728.6h302.1c25.1,0,45.5-15.9,45.5-35.4v-9.1c0-19.6-20.4-35.4-45.5-35.4h-302.1v10.9h281.1
						c9.7,0,17.5,6.1,17.5,13.6v30.9c0,7.5-7.8,13.6-17.5,13.6h-281.1V728.6z"/>
				</g>
			</g>
			<g>
				<g>
					<path class="st20" d="M1622.3,728.6h302.1c25.1,0,45.5-15.9,45.5-35.4v-9.1c0-19.6-20.4-35.4-45.5-35.4h-302.1v10.9h302.1
						c17.4,0,31.5,11,31.5,24.5v9.1c0,13.5-14.1,24.5-31.5,24.5h-302.1V728.6z"/>
				</g>
			</g>
			<g>
				<path class="st10" d="M1630.5,717.7h297.3c16,0,29.1-13,29.1-29.1l0,0c0-16-13-29.1-29.1-29.1h-297.3V717.7z"/>
			</g>
			<g>
				<path class="st28" d="M1940.5,684.6c-22.6-0.6-45.2-1.1-67.8-1.3c-22.6-0.3-45.2-0.3-67.8-0.4c-22.6,0-45.2,0.1-67.8,0.4
					c-22.6,0.2-45.2,0.6-67.8,1.3c22.6,0.6,45.2,1.1,67.8,1.3c22.6,0.3,45.2,0.3,67.8,0.4c22.6,0,45.2-0.1,67.8-0.4
					C1895.3,685.7,1917.9,685.2,1940.5,684.6z"/>
			</g>
			<g>
				<path class="st28" d="M1904,702.6c-22.6-0.6-45.2-1.1-67.8-1.3c-22.6-0.3-45.2-0.3-67.8-0.4c-22.6,0-45.2,0.1-67.8,0.4
					c-22.6,0.2-45.2,0.6-67.8,1.3c22.6,0.6,45.2,1.1,67.8,1.3c22.6,0.3,45.2,0.3,67.8,0.4c22.6,0,45.2-0.1,67.8-0.4
					C1858.8,703.7,1881.4,703.2,1904,702.6z"/>
			</g>
			<g class="st12">
				<path class="st29" d="M1954.1,675.7c-7.6-13.7-18.4-16.1-26.3-16.1h-297.9v18.3"/>
			</g>
		</g>
		<g>
			<g>
				<rect x="1596.7" y="728.6" class="st31" width="382.6" height="54"/>
			</g>
			<g>
				<rect x="1631.2" y="736.9" class="st15" width="14.4" height="37.3"/>
			</g>
			<g>
				<rect x="1703" y="736.9" class="st15" width="14.4" height="37.3"/>
			</g>
			<g>
				<rect x="1654.4" y="728.6" class="st15" width="40.7" height="54"/>
			</g>
		</g>
		<g>
			<g>
				<rect x="1561.7" y="511.8" class="st30" width="382.6" height="54"/>
			</g>
			<g>
				<rect x="1895.3" y="511.8" class="st20" width="14.4" height="54"/>
			</g>
			<g>
				<rect x="1864.4" y="511.8" class="st20" width="22.1" height="54"/>
			</g>
		</g>
		<g>
			<g>
				<rect x="1599.8" y="565.7" class="st15" width="382.6" height="83.7"/>
			</g>
			<g>
				<rect x="1634.3" y="578.6" class="st32" width="14.4" height="55.6"/>
			</g>
			<g>
				<rect x="1942.9" y="578.6" class="st32" width="14.4" height="55.6"/>
			</g>
			<g>
				<rect x="1916.9" y="578.6" class="st32" width="14.4" height="55.6"/>
			</g>
			
				<ellipse transform="matrix(0.7071 -0.7071 0.7071 0.7071 66.197 1372.6782)" class="st32" cx="1690.1" cy="606.4" rx="27.8" ry="27.8"/>
		</g>
		<rect x="1860.4" y="684.6" class="st13" width="19.7" height="58.1"/>
	</g>
</g>
</svg>
