<?xml version="1.0" encoding="utf-8"?>
<!-- Generator: Adobe Illustrator 22.0.0, SVG Export Plug-In . SVG Version: 6.00 Build 0)  -->
<svg version="1.1" id="Isolation_Mode" xmlns="http://www.w3.org/2000/svg" xmlns:xlink="http://www.w3.org/1999/xlink" x="0px"
	 y="0px" viewBox="0 0 1079.1 1041.1" style="enable-background:new 0 0 1079.1 1041.1;" xml:space="preserve">
<style type="text/css">
	.st0{fill:#070707;}
	.st1{fill:#FEFEFE;}
	.st2{fill:#8F8F8F;}
	.st3{fill:#CBCBCB;}
	.st4{fill:#252525;}
	.st5{fill:#3A3A3A;}
</style>
<g>
	<path class="st0" d="M522.8,1041.1c-1.4-19.2-1.3-38.3,3.4-57.1c0.3-1.3,0.8-2.6,0.4-3.9c-3.1-8.8-0.6-17.1,2.5-25.3
		c6.7-17.9,12.8-36,21.5-53.1c0.9-1.8,1.1-3.7,0.9-5.8c-0.3-4.6-1-9.4-0.4-14c0.7-6.1-1.8-8.8-8.5-9.7c0,4.6-0.2,9.2,0.1,13.7
		c0.2,4.5-1.6,6.8-6.1,7.5c-18.4,2.8-36.8,5.8-55.2,8.7c-4.4,0.7-8.9,1.4-13.3,1.9c-1.7,0.2-2.7,0.9-3.7,2.2
		c-5.9,7.9-13.8,12.9-23.1,15.7c-4.6,1.4-8.4,3.7-10.8,8.1c-2.2,4-6,5.1-10.4,4.2c-15.6-3.5-29.7,3.6-44.5,6.1
		c-0.6,0.1-1.2,0.6-1.7,1c-10.4,11.2-24,15.7-38.5,18.3c-24,4.3-48.1,4.5-72-0.6c-18.2-3.9-31.9-22.3-30.4-40.7
		c0.3-4-0.7-4.5-4.3-4.4c-52,1.9-103.9,3.6-155.9,5.3c-8.8,0.3-10.4-0.8-9.4-9.5c2.1-19.5-4.9-37.5-9.1-55.8
		C36.3,777,17.4,700.3,0.4,623.2c-1.6-7.5,2-12.8,9.9-13.4c10-0.7,20-1,30-1.3c52.1-1.5,104.3-3.1,156.4-4.4
		c64.8-1.6,129.6-3.5,194.4-4.3c6.3-0.1,12.6-0.4,18.9,1.3c7.1,1.9,11.6,5.6,12.8,13.4c3.5,23.7,7.5,47.3,11.1,71
		c2.5,15.9,4.7,31.9,7,48c1.6-0.8,1.2-2,1.2-3c0.4-19.1,7.8-34.8,23.1-46.5c5.2-4,7.9-9.3,7.3-15.6c-2-22.7,3.9-44,11.7-64.8
		c3-8.1,3.8-14.2-1.8-22c-6.7-9.3-7.9-21.4-10.9-32.4c-7.4-27.3-12.4-55-11.3-83.3c1.3-34.8,4.1-69.5,15.7-102.8
		c7.3-20.8,19.8-38.7,32.5-56.5c1.6-2.2,2.8-4.3,2.5-7.2c-2.3-19.9-1.9-39.9-0.9-59.9c1.6-31.6,5.9-62.9,17.1-92.4
		c17.6-46.2,47.8-82.6,91.1-107.5c31.4-18,65.2-29.2,100.5-36c23.5-4.5,47.4-4.5,71.2-2.1c18.5,1.9,37.2,3.5,55.1,9.1
		c39.2,12.4,68.7,37,89.3,72.5c13,22.3,22,46.2,27,71.5c0.5,2.7,1.2,3.8,4.6,3.8c23.2,0,46.1,3,68.7,8.4c17,4.1,27.6,15,33.5,31.2
		c6.3,17.3,7.6,35.4,8.7,53.5c2.4,41.9,2.9,83.9,1.9,125.9c-1.1,46.3-5.7,92.4-11.5,138.4c-7.2,57.8-16,115.4-27.3,172.5
		c-2,10.1-4.5,20.1-7,30.1c-2.9,11.6-8.6,21.8-17.6,29.6c-24.1,21.2-52.2,34.8-82.9,43c-12.3,3.3-25.2,1.2-37.7-0.8
		c-2.8-0.4-4-0.4-4.6,2.6c-4,18.4-10.3,36.1-18.3,53.2c-1.4,2.9-1.2,5.4,0,8.4c10,23.8,18,48.2,24.5,73.2c1.3,5,2.6,10,0.9,15.2
		c-0.3,0.8-0.1,1.5,0.3,2.3c10.9,21.4,12.6,44.6,13.5,68c0.3,8,0.2,16,0.4,24c0,1.3-0.6,2.7,0.7,3.7c-2,0-4,0-6,0
		c1.1-17-0.3-33.9-1.5-50.8c-1-13.4-4.3-26.2-9.5-38.5c-0.7-1.6-0.7-3.3-3.6-2.1c-23.8,9.6-46.2,22-68.8,33.8
		c-16.9,8.8-30.2,21-39.8,37.4c-4.1,7-8.9,13.6-13.7,20.2c-1.7,0-3.3,0-5,0c-0.9-1.4,0.4-2.2,1-3c6.4-7.9,11.4-16.8,17.1-25.2
		c6.3-9.3,13.1-18.2,22.8-24.2c25.3-15.8,51.7-29.7,79.3-41c8-3.3,9.9-6,8.1-14.5c-4.1-19.4-10.6-38.1-17.2-56.8
		c-1.9-5.3-4-10.4-6-15.6c-1.4,8.7-4.9,16.1-8.9,23.4c-3.9,7.1-9.8,11.5-18,13c-7.4,1.3-14.8,2.2-22.4,1.9c-3.7-0.1-5.1,0.9-4.8,4.7
		c0.6,8.1-1,15.9-3.3,23.6c-2.4,8.1-7,13.9-15.8,15.6c-3.9,0.7-7.6,2.1-11.5,2.8c-40.2,6.8-80.6,12.4-121.4,14.3
		c-2.3,0.1-3.1,0.8-3.2,3.2c-0.2,18-0.8,36-0.8,54c0,7.9,1.1,15.9,1.7,23.8c-1.7,0-3.3,0-5,0c-0.6-8.8-1.6-17.5-1.7-26.3
		c-0.1-16.5,0.3-33,0.9-49.5c0.1-4.1-0.9-5.1-5.1-5.3c-23.5-1.1-46.7-4.1-69.4-10.7c-14-4.1-21.9-13.1-24.8-27.1
		c-0.8-4-1.8-8-2.8-12.2c-2,1.2-2.2,3-2.9,4.4c-6.8,14.9-11.8,30.4-17.6,45.6c-4.7,12.3-1.9,22.2,8.2,30.7
		c11.7,9.9,22.9,20.4,34.2,30.7c6.2,5.6,11.6,11.8,15,19.6c-2,0-4,0-6,0c-1.9-6.1-6.3-10.4-10.8-14.6c-10.7-10-21.7-19.7-32.6-29.5
		c-3.2-2.9-6.5-5.9-10.3-9.4c-3.3,18.4-4.2,35.9-2.3,53.5C526.2,1041.1,524.5,1041.1,522.8,1041.1z M763.6,601.8
		c-0.1-0.4-0.2-0.9-0.8-0.7c-1-4-1.6-8.2-6.8-9c-0.6,0.3-1.3,0.6-1.9,0.8c-5.3-2.6-11.3-1.5-16.8-2.9c-2.9-0.8-3.9,0.5-4,3.2
		c-0.1,1.3-0.2,2.6-0.3,3.9c-2.1,4-0.9,8-0.1,11.9c0,0.7,0.1,1.4-0.1,2c-0.5,1.7,2,4.2-0.9,5.1c-2.7,0.8-4.7-0.9-5.9-3.3
		c-1.1-2.2-2.1-4.5-3.1-6.7c-0.8-4.5-2.1-8.9-3.8-13.1c-0.4-2.9,0.1-5.9-4.2-6.7c-26.6-4.9-53.4-5.7-80.4-4
		c-1.1,0.1-2.2,0.7-3.2,1.1c-0.6,0.1-1.4,0-1.8,0.3c-0.5,0.5-0.1,1.1,0.5,1.5c-0.4,0.7-0.7,1.4-1.1,2.1c-1-0.8-1.6-2.8-3-2.1
		c-1.5,0.8,0,2.6-0.1,3.9c-0.9,0.6-2.3,0.7-2.4,2.1c0,0.2,0.7,0.7,1.1,0.6c1.6-0.3,1.3-1.6,1.3-2.8c0.8,0,1.6,0,2.4,0
		c-0.4,1.4-0.7,2.7-1.1,4.1c-0.8,1.9-1.6,3.7-2.4,5.6c-1.5-1.4,0.1-3.8-1.7-5.4c-1.5,3.3-3,6.3-3.2,9.8c0,0.6,0,1.2,0,1.8
		c-4,4.1-6.9,8.9-9,14.2c0.1,0.5,0.2,0.9,0.3,1.4c-4.2,2.4-6.1,6.9-9.4,10.1c-2.3,2.2-3.2,4.3-1.2,7.1c0.1,0.1-0.3,0.5-0.7,1.1
		c-4.3-1.2-9-1.9-13-4c-2.9-1.5-5.8,2.5-8-1c0-0.3,0-0.6,0-0.9c0.6-0.3,2.2-0.1,1.4-1.3c-3-4.6-6.2-9-9.4-13.5
		c-0.1-0.4-0.1-1.2-0.3-1.3c-1-0.4-1,1-1.7,1.2c-0.5-2.1-1-4.2-1.8-7.4c-4.1,12.6-9,23.7-9.5,36.1c-1.5,33.4,0.2,66.8,0.5,100.3
		c-0.4,6.8-0.2,13.6,0.3,20.4c0.1,1.3-0.2,2.9,1.3,3.5c5.5,2.1,11.1,4.2,16.7,6.3c1-5.6-1-10.9,0.3-16.1c4.7-5.5,10.7-5.8,19.1-1
		c3.5,3.5,3.8,8.3,5.2,13c4.2-2.2,8.1-4.4,12-6.5c4-2.1,7.9-4.3,12.1-6c10.7-4.4,13.5-3.6,21.3,5c7.6,8.4,16.9,13.5,28.4,13.1
		c11.1-0.4,22.2-1.8,33.2-3.1c12.4-1.5,24.1-6.5,36.4-7.9c6.7-0.8,11.6-4.2,17.2-7c0.9-0.4,2-0.7,2.1-1.9c0.3-5.2,3.1-9.8,4-14.8
		c2.3-3.3,4.6-6.7,6.9-10c6.5-7.8,12.5-15.8,17-25c4.1-5.2,6.9-11.1,9.8-17c0.5-1.1,0.6-2.6,0.3-3.9c-1.2-5.1-2.7-10.1-4.1-15.1
		c0-1.7,0-3.3-0.1-5c1.4-4.3,1.4-8.7,0-13c0-0.6-0.1-1.3-0.1-1.9c0.3-11.9-2.8-23.1-7.3-33.9c-0.2-0.5-1-0.8-1.5-1.2
		c-0.5,0-1.1-0.1-1.6-0.1c1.9-1.6,1.9-3.1-0.2-4.8c-2.3,2.6-4.4,5.3-5.7,8.5c-0.4,0.7-0.8,1.3-1.3,2c-0.1,0.8-0.2,1.6-0.3,2.5
		c0,0,0.1-0.1,0.1-0.1c-0.2,0.1-0.4,0.3-0.6,0.4c0.2,0.1,0.3,0.3,0.5,0.4c0.1,0.5,0.1,1,0.2,1.5c-1.5,3.9-4.5,6.6-7.1,9.7
		c-2.1,0.1-3.8,3.6-5.7,1.8c-1.8-1.7,1-3.7,1.5-5.7c0.2-0.6,0.3-1.3,0.4-1.9c1.4-1.4,1.7-3.2,2-5c1.6-2.8,1.7-5.9,1.6-9
		c0-0.2,0.1-1.2-0.6-0.5c-0.3,0.3-0.5,0.8-0.8,1.2c-2.1-0.7-0.7-2.5-1.1-3.7c0.3-0.2,0.6-0.4,0.8-0.7c-0.4-0.1-0.8-0.3-1.2-0.4
		c-0.4-0.7-0.8-1.4-1.2-2l0.3,0.3l0.4-0.1c4.1-1.3,1.1-3.8,0.6-5.5c-0.6-2.1-2.2-2.1-3.3,0c-1.1-0.5-2-1.3-1.8-2.6
		c0.2-0.8,0.9-0.7,1.6-0.5c0.4-1,0.5-1.9-0.5-2.6c-0.2-0.1-0.4-0.3-0.6-0.4c0.1,0.2,0.2,0.4,0.4,0.6c0.2,0.8,0.5,1.6,0.7,2.4
		c-1,1-1.9,0.5-2.8-0.2C763.6,602.9,763.6,602.4,763.6,601.8z M603.9,613.1l-0.1,0.1c1.2-0.8,1.4-1.7,0.2-2.6
		c-0.1-0.6-0.3-1.2-0.4-1.8c0-1.2,0.1-2.4,0.1-3.7c1.3-0.1,2.3-0.6,2.1-2.2c-0.4-3.2-0.3-6.5-1.9-9.4l0,0c0.2-3.8-0.6-7.3-1.7-11.8
		c-1.9,3.3-0.7,5.9-1,8.4c-0.4,0-0.8,0-1.2,0c-0.6-7.1-0.6-7.1-7-5.8c-0.7,0.2-1.5,0.4-2.2,0.6c-1.6,2.9-2,6.1-1.9,9.4
		c-0.5,7,0.1,13.9,1,20.8c-0.3,2.3,0.6,3.4,3,3.2c0,1,0,2-0.1,3c-0.4,0.2-0.9,0.3-1.3,0.5c0.4,0.2,0.8,0.4,1.3,0.5
		c0.3,4.4,3.2,7.2,5.8,10.3c0.3-3.2-0.2-6.3,0.4-9.3c0.4,0.8,0.8,2.3,1.2,2.3c0.9,0,0.8-1,0.6-1.8c1.2-2.4,2.6-4.8,2.1-7.6l-0.1,0.1
		C604.6,615.6,603.8,614.2,603.9,613.1z M732,540.9c-0.1-0.4-0.2-0.7-0.4-1.1c-0.1-0.3,0-0.5,0.2-0.8c0.9,0.3,2.3,1.4,2.5,0.2
		c0.5-2.3,3-4.8,0.3-7.2c0.1-2.3,2.1-4.4,0.7-6.9c2.4-2.4,1.9-4.4-0.7-6.2c0.6-9.2-0.7-18.5,0.8-27.8c0-0.1-0.7-0.4-1.1-0.6
		c0.1-0.7,0.1-1.3,0.2-2c2-2.5,1-5.4,1.3-8.2c0.2-2.1-0.9-2.6-2.8-2.4c-12.2,1.5-24.5,1.8-36.8,2.5c-1.9,0.1-3,0.8-3.7,2.6
		c-2.6,6.7-5.5,13.3-6.6,20.3c-3.7,23.3-3.7,47.1-8.1,70.3c-0.4,2,0.1,3.2,2.5,3.1c1.5-0.1,3,0,4.5,0.1c3.3,0.9,6.6,1.1,10,1
		c6.9,1.1,13.7,2.2,20.6,3.4c0.9,0.2,2,0.1,1.9-0.9c-0.3-6.3,5.6-11,4.4-17.6l0.5,0l0.5,0c0.9,1.7,1,1.7,1.2,1.4
		c3.1-5,4.8-10.4,4-16.4c2.8-3.6,1.4-8,2.2-12c0.3,0,0.6,0,0.9,0c0,1.2,0.1,2.5,0.1,3.7c0.2,0.5,0.4,1,0.6,1.5
		c0.3,0.5,0.5,1.2,1,1.4c0.5,0.3,1-0.3,0.8-0.7C733.1,541.5,732.5,541.3,732,540.9z M751.9,558.1c1.8-1.4,2.1-3.1,0.9-5.1
		c-0.6-1.3,2.1-2.4,0-4.1c-5.6,9.2-11.1,18.2-16.6,27.3c-0.4,1.2-0.8,2.5-1.4,3.7c-1.9,4.4,0.2,5.8,4.3,6.1
		c3.6,0.2,7.3,0.7,10.9,1.1c0.7,0,1.3-0.1,2-0.1c1.4,0.6,2.7,1.2,4.4,0.4c-1.6-3.8-3.1-7.5-4.7-11.3c-1.1-4.9-1.1-9.9-0.5-14.8
		C752.1,560.4,751.7,559.2,751.9,558.1z M813.8,542.1c-0.1,1-0.1,2-0.2,2.9c-0.7,0.1-1.3,0.1-2,0.2c-2.4,3.9-2.8,8.4-3.5,12.8
		c-0.2,3.4-3.9,6.5-0.9,10.1c-3.3,8.7-4.1,18-7,26.7c-0.5,1.4,0.5,2.1,1.3,3c4.9,5.2,9.1,10.9,11.7,18c4-10,8-19.3,11.4-28.8
		c1.8-4.9,4.6-8.7,8.8-11.8c9.5-6.8,18.4-14.3,26.6-22.7c8.1-8.3,18-13.5,29.4-16c7.3-1.6,14.8-2.2,22.2-3.1
		c4.6,0.5,9.2,1.1,13.8,1.4c8,0.5,8.9-0.7,8.1-8.7c-1.4-14.7-8.3-26.7-17.6-37.7c-5-6-10.6-10.3-18.7-11.8
		c-10.5-2-20.8-5.3-31.6-6.7c-0.5-0.9-1.3-0.9-2.2-0.9c-4.9,0-6.2,2.6-4.6,8.9c-0.1,0.3-0.2,0.6-0.4,0.9c-2.7,3.3-4.2,6.9-2.6,11.2
		c-5.8,7.9-12.7,14.8-20.4,20.8c-1.8,0.5-2.1,1.5-0.9,3c-4.8,2.2-8.5,5.5-11.2,10c-0.7,0.1-1.5-0.2-1.9,0.7c0.4,0.1,0.9,0.3,1.3,0.4
		c-0.2,0.4-0.3,0.7-0.5,1.1c-0.2,0.2-0.5,0.4-0.7,0.5c0.2-0.2,0.5-0.3,0.7-0.5c-0.3,0.9-0.5,1.9-0.8,2.8c-0.6-0.3-1.3-0.6-1.9-0.9
		c-3.2,0.9-2.2,4.2-3.7,6.1C813.2,536.3,810.7,538.4,813.8,542.1z M563.9,600.9c1.8,0.6,2-0.6,1.8-1.8c-0.7-5-1.2-10.1-4-14.6
		c0.3-1.4-0.1-2.3-1.6-2.5c-1.2-8.3-6.7-14.3-11.4-20.7c-7.7-10.5-18.2-19-22.1-32.8c-1.6,2.2-2.6,3.6-3.6,5.2
		c-17.8,26.7-29.7,56-39.2,86.5c-4.3,13.6-7.7,27.4-6.5,41.6c1,12.8-3.1,21.7-13.2,29.6c-10.5,8.2-15.2,20.5-16.9,33.5
		c-0.7,5.6,0.3,11.4-4.4,15.8c-0.4,0.4-0.7,1.3-0.5,1.8c1.1,4.8,0.8,9.9,2.6,14.6c0.3,3.2,0,6.6,1.3,9.6c3.3-1,6.6-2,9.9-2.9
		c14.1-2.8,28.3-4.1,42.7-2.9c11.8,1,23.5,2.5,35.2,4c4.3,0.9,8.7,1.8,13,2.7c6.5,1.6,6.5,1.6,6.4-5.1c-0.4-34.2-0.8-68.5-1.1-102.7
		c-0.1-14.4,2.1-28.4,7-42c1.7-4.8,4.2-9.4,4.7-14.6C563.8,602.4,563.8,601.7,563.9,600.9z M566.9,526.9c1.6-1.6,1.4-3.8,2.1-5.8
		c2.6,1.1,2-0.6,1.8-2c2.6-6.3,8.2-12.3,2.2-19.6c-0.2-0.3,0-1,0-1.4c2.1-1.4-0.4-3.4,0.6-4.9c4.3-4.1,4.4-9.8,0.5-18.9
		c-2,4.5-0.8,9.3-1.2,13.8c-1.9-3.1-0.1-6.9-1.9-10.9c-0.2,5.2-0.8,9.6,0.2,14c-0.3,1.7-1.2,2-2.5,0.8c0-1.3,0-2.7,0.1-4
		c0-2.7,0-5.3,0-8c-0.2-7.1-0.5-7.2-7-4.8c-5.1,1.9-8.5,5.5-11.5,9.8c-5.7,8.4-9.7,17.8-16,25.8c-4.1,5.2-4.4,10.8-2.7,16.9
		c2.2,8,7.2,14.1,12.4,20.2c2.3,2.7,4.5,3.1,6.9,0.4c6.5-4.8,9.9-12,14.5-18.3C565.9,529.1,566.4,528,566.9,526.9z M566.9,550.3
		c3.9-1.4,3.9-1.4,5-4.8c-5.6,2.4-10.1,7.2-16.7,6.9c-0.3,0.1-0.5,0.2-0.8,0.3c0.2,0.1,0.5,0.1,0.7,0.2c0.2,0.3,0.4,0.6,0.7,0.9
		c-0.7,0.1-1.4,0.2-2.1,0.3c-1.5-0.3-2.9-1.8-5-0.4c4.7,5.4,8.8,11.2,12.5,17.2c1.6-1.1,1.8-2.6,1.8-4.1c0.6-0.6,1.2-1.3,1.8-1.9
		c0.5,2.4-0.7,4.6-1.4,6.7c-0.6,2-0.6,3.7,1.7,4.9c0.6-3.5,1.2-6.9,1.8-10.3c0.4-2.4-0.9-1.7-2.1-1.2c0.6-4.3,3-7.9,4.4-11.9
		c0.5-1.5,0.7-2.2-1.2-1.9C567.6,551,567.3,550.7,566.9,550.3z M657.8,534.1c-1.7,5.7-5,10.7-7.9,15.9c0.9,2.3-3.3,3.6-1.2,6.1
		c-0.7,1-1.4,2-2,3.1c-0.8,0.2-1.6,0.4-2.4,0.5c-4.1,5.7-8.2,11.4-12.4,17.2c2.3,1.1,4,0.3,5.7-0.9c0.5-0.3,1-0.6,1.5-0.8
		c0.1,1.6,0.9,2.1,2.5,2c4.4-0.3,8.9,0.2,13.2-1.1c5.1,1,10.3,0,15.4,0.4c1.9,0.1,2.5-1,2.7-2.7c1.3-9.7,2.8-19.4,3.9-29.1
		c2.3-20.4,1.6-41.3,10.3-60.5c1.4-3.1-0.2-3.2-2.6-3.3c-4.5-0.1-9-0.1-13.4-0.6c-4-0.4-5.6,1-5.1,4.9c-0.5,3-0.5,6,0.2,9
		c-0.1,0.6-0.2,1.3-0.4,1.9c-2.8-2.7-3.4,0.5-3.7,1.8c-0.5,2-0.1,4.3-0.1,6.4c0,3.5,0,7,0,10.5c0.3,0.4,0.6,0.8,1,1.3
		c-2.1,4.8-2.2,9.8-2.5,14.9C658.7,531.4,657.8,532.3,657.8,534.1z M594.8,771.1c0.5-3.9-0.9-6.9-4.6-8.4c-2.6-1.1-5.9-2-8,0.1
		c-2.4,2.3-0.9,5.6,0,8.5c-0.3,3-0.9,5.9-0.3,8.9c-1.5,17.3-4.4,34.4-8.4,51.4c-3,12.7-5.9,25.5-6.8,38.6c-1.5,3.2-1.1,6.6-1.1,10
		c-1.4,4.7,0.3,9.1,1,13.6c0.7,4,3,4.3,6.1,2.6c4.5-2.5,7.7-6.1,9.1-11.2c2.5-3.3,3-7.2,4-11c0.7-2.2,1.5-4.4,1.9-6.6
		c4-20.4,6.2-41,7.7-61.6c0.6-8.9,2.5-17.8,0.3-26.7C596.2,776.4,595.9,773.7,594.8,771.1z M900.7,456.3c-1.3-0.6-2.5-1.2-4-1
		c-1.1-0.4-2.1-1-3.2-1.3c-15.4-4-31.1-5.6-46.9-5.7c-40.8-0.2-81.5,3.5-121.9,8.3c-45.7,5.4-91,2.6-136.3-4
		c-9.8-1.4-19.5-4.5-29.6-3.5c-4.4-0.4-8.2,1.3-12,2.9c-2.7-0.3-4.7,1.4-6.8,2.6c-1.9,1.2-4.4,2.2-4.1,5c0.3,3,2.2,5.2,5,6.3
		c3.2,1.3,6.6,2,10.1,1.4c3.7,0.2,7.4-0.3,10.9-1.6c14.7-0.4,29.1,2.4,43.7,3.8c19,1.7,38,4.2,57.1,5.5c25.2,1.7,50.2,0.3,75.3-2.2
		c23.8-2.4,47.7-4.3,71.4-7.5c13.8-1.9,27.7-3.8,41.7-2.6c13.8,1.1,27.1,4.8,40.7,7.4c1.4,1.8,3.4,0.3,5,0.9
		c2.5,1.9,5.5,2.2,8.4,2.7c4.1,0.7,7.1-1.7,8.9-5c1.9-3.4-0.1-6.1-2.6-8.3C908.5,457.9,904.9,456.5,900.7,456.3z M514.1,362.1
		c2.1,0.9,3.1,3.4,5.6,3.7c-0.2-17.5-6.5-41.1-12.9-48.3c-1.6,1.7-3.1,3.4-4,5.6c-1.8,2.6-3.9,5-5,8c-2,2.2-4,4.4-1.7,7.6
		c0.3,0.5,0.6,1,0.9,1.4c0.6,0.6,1.3,1.6,0.3,2c-2.8,1.1-2.3-2.5-4.5-3.2c-3.9,6-7,12.5-9.9,19.2c-1.7,3.8-3.7,7.6-0.3,11.5
		c0.6,0.7,0.8,2-0.3,2.6c-1,0.5-1.3-0.7-1.8-1.2c-0.4-0.5-0.3-1.6-1.7-1.4c-3.5,9.8-5.5,20-7.5,30.3c-0.9,4.4-1.1,8.5,2.5,11.8
		c-0.5,0.5-0.9,1-1.4,1.5c-0.8-0.6-1.5-1.2-3-2.4c-1.2,12.6-2.4,24.6-3.6,36.7c-0.1,1.3,0.5,2.1,1.5,2.9
		c8.3,6.7,16.8,12.9,27.5,15.5c3,1.3,6.1,2.5,9.5,2.6c4.8,2.3,9.9,2.3,15,2.5c3,0.1,3.6-1.2,3.6-3.9c0-8,0-15.9,0.3-23.9
		c0.1-2.4-0.9-3.3-3-3.6c-5.9-0.8-11.5-2.9-17.3-4.5c-2-1.6-4.4-2.5-6.8-3.3c-3.6-2.1-7.1-4.2-10.6-6.4c-1.1-0.7-3.4-1.2-2.2-3.1
		c1.1-1.6,2.3,0.4,3.3,0.9c3,1.7,5.8,3.9,9.1,5c2.2,1.6,4.6,2.6,7.2,3.3c5.4,3.1,11.5,4.1,17.5,5.5c2.6,0.6,3.3-0.4,3.8-3
		c1.3-7.2,2.8-14.3,4.4-21.5c0.6-2.4,0-3.7-2.5-4.4c-6.8-1.8-13.1-4.8-19.1-8.4c-0.3-0.4-0.7-0.7-1-1.1c-0.6-0.9-2.8-1.2-1.5-2.9
		c1-1.2,2,0.4,2.9,0.7c0.5,0.2,0.9,0.3,1.4,0.5c4.8,4.8,11.2,6.1,17.2,8.5c3.6,1.4,4.6,0.2,3.6-3.4c-2.3-8.5-4.7-17-6.7-25.6
		c-1-4.4-3.1-7.6-7.1-9.4c-0.7-1-1.4-1.9-2.1-2.9C513.8,363.7,514,362.9,514.1,362.1z M383.1,917c-0.1,2.3-0.1,4.7-0.2,7
		c-0.9,3.2-1.8,6.5-2.8,10c1.1-0.1,1.7-0.2,2.4-0.3c12.9-2.8,25.5-7.7,39.1-4.3c2.6,0.6,4.3-1,5.6-3.2c1.9-3.5,4.7-5.9,8.4-7.4
		c3.9-1.5,7.8-2.9,11.6-4.5c3.9-1.7,7.4-3.9,9.9-8.2c-9.2-0.1-17.7,0-26.3,0.9c-0.4,0.1-0.7,0.1-1.1,0.2c-15.8-0.7-31.5,1.3-47.9,1
		C383.2,911.4,382.6,914.3,383.1,917z M510.9,536.2c3.1,0.3,5.1-1,7-3.6c4.4-6.1,8-12.4,9.5-19.8c0.8-3.7-1.2-7.1-4.1-6.3
		c-5.5,1.7-11.1,1.8-16.7,2.1c-3.6-0.4-7.3-0.7-10.9-1.1c-10.2-1.7-20-4.7-29.2-10.8c0.5,11.2,2.8,21.3,4.7,31.4
		c0.3,1.6,1.4,2.5,2.9,3.1c8.2,3.3,16.6,5.9,25.6,5.2C503.5,537.1,507.2,537.1,510.9,536.2z M504.8,472.2c-3.4-1.8-7.1-2.6-10.8-3.4
		c-10.4-3.5-19.6-9.1-28.7-16.5c-0.8,13.9-0.8,26.6,0.5,39.3c0.1,1.3,0.6,2.1,1.7,2.8c8.1,4.9,16.5,9.3,26.3,9.7
		c3.8,1.4,7.9,1.3,11.9,1.7c5.7,0.9,11.2-0.4,16.7-1.7c2.1-0.5,2.7-1.5,2.3-3.5c-1.7-8-1.9-16.2-1.9-24.3c0-1.9-0.3-3.3-2.7-3.1
		C515,473.7,509.9,472.4,504.8,472.2z M503.7,556.1c3.1-5.5,6.2-10.9,9.5-16.7c-4.8,0-8.6,0-12.4,0c-9.5-0.3-18.7-2-28.6-6.4
		c2.3,8.7,4.3,16.5,6.4,24.3c0.3,1,1.2,1.5,2.1,1.9c3.8,1.6,7.6,3.2,11.8,3.8C500.5,563.9,500.8,563.7,503.7,556.1z M942.5,350.8
		c-7.3,3.8-12.7,0.5-17.6-4.7c-5.4-6.6-5.9-14.6-6.1-22.6c-0.9-33.4,5.6-66.3,6.4-99.6c0.2-8,4.6-14.4,11.5-18.9
		c2.8-0.3,5.7-0.6,8.3,0.9c4.6,2.8,9.7,3,14.8,3.9c4,0.7,4.6-0.6,4.1-4.1c-1.1-7.7-2-15.5-3-23.3c-4.1-32.8-12.7-64.2-29-93.3
		c-21.4-38.2-52.3-65-95-75.3c-38.2-9.2-77.3-12-116.5-5.6c-15.9,2.6-31.4,6.8-46.5,12.7c-25.3,6.9-48.1,19-69.9,33.1
		c-9.8,6.3-18.4,14.1-25.9,23.1c-13.9,13.6-25.1,29.3-35,45.9c-15.2,25.6-20.6,54.3-24.9,83c-5.9,38.9-5.8,78,0.2,116.9
		c-0.3,0.8-0.2,1.6,0.5,2.1c0.1,0.6,0.1,1.3,0.2,1.9c0.9,11.5,2.9,22.9,5.8,34.1c0.1,1,0.3,1.9,0.4,2.9c-0.3,0.8-0.1,1.5,0.6,2.1
		c0.1,0.6,0.2,1.3,0.3,1.9c-0.2,0.8-0.3,1.6,0.6,2.1c0.1,0.6,0.2,1.3,0.4,1.9c0,0.3-0.2,0.7-0.1,1c5.6,23.9,12.9,47.3,20.6,70.6
		c0.8,2.4,1.7,2.1,3.5,1.6c6.5-1.8,13.1-1.6,19.7-0.4c7,1.2,14.1,2,21.1,3c9.4,1.3,18.8,2.7,28.2,3.8c22.5,2.7,45.1,4.8,67.7,3
		c33.7-2.7,67.3-5.9,100.9-8.9c1.1,0.3,2.2,0.5,3.1-0.4c0.7-0.1,1.3-0.2,2-0.2c1.5,0,3,0.2,4.4,0.1c29.9-2.6,59.8-3.2,89.5,2.3
		c1.4,0.4,2.8,0.8,4.3,1.1c7.9,1.8,7.8,1.7,12.7-4.9c20.6-27.5,29.6-59.8,38.5-92.2c0.3-0.4,0.6-0.9,0-1.2
		C943.1,350.3,942.8,350.6,942.5,350.8z M347.8,910.1c-17.6-0.3-35.2,0.9-52.7,1.6c-10.4,0.4-20.9-0.1-31.3,1.4
		c-5.8,0-11.7-0.5-17.4,0.8c-7.4-1.4-8.4-0.7-8.7,6.1c-0.8,14.6,11.1,30.8,25.6,34c24.2,5.4,48.5,5.2,72.9,0.5
		c12.6-2.4,24.5-6.4,33.7-16c4.5-4.7,7.7-9.9,8-16.7c0.7-13.7,0.8-13.7-13.2-12.4C359.1,909.2,353.4,909.2,347.8,910.1z M935,337
		c0.7,2.8,2.3,5,5.3,5.1c8.5,0.4,16.9-0.4,23.6-6.2c13.3-11.6,22.5-25.8,24.8-43.7c1.2-9,1.6-18,0.9-26.9
		c-0.9-12.3-2.3-24.5-6.9-36.2c-2.4-6.2-6.4-10.7-13.1-12.7c-7.5-2.1-15.1-2.4-22.7-2.6c-2.2-0.1-4.3,0.7-4.9,3.3
		c-0.7,1.9-1.4,3.9-1,6c-0.4,2.1-0.9,4.2-1.1,6.4c-2.6,24-5.4,47.9-7.7,71.9c-0.9,9.5-3.1,19.2,0.7,28.6
		C932.8,332.6,934,334.8,935,337z M791.8,901.1c0.2-4.8-1.4-5.4-8-3c-1.3,0.1-2.6,0.2-3.9,0.4c-4.4,0.7-8.8,1.4-13.2,2.2
		c-8.8,1.4-17.4,5.2-26.5,2.5c-9.8-2.9-19.6-2.2-28.7,2c-15.1,7-29.9,6.8-45.4,0.9c-10-3.8-20.3-1.9-29.6,2.7
		c-11.2,5.5-22.5,5.2-34,2.4c-5.1-1.2-8.3-4.4-9.9-9.5c-1.4-4.5-3.4-8.8-5.5-13.9c-1.6,2.4-2.6,4-3.7,5.6c-2.5,3.7-5.7,6.5-9.9,8.1
		c-5.8,2.3-9.3,0.7-11.2-5.2c-1.5-4.6-2-9.5-2.1-14.3c0-3-1.2-4.2-4.3-4.1c-0.2,14.4,0.1,28.6,4.9,42.3c0.9,12.7,7.7,20.7,22.2,24.8
		c26.4,7.5,53.5,10.7,80.9,10.3c19.7-0.3,39.2-3.1,58.7-5.3c19.8-2.3,39.6-4.9,59.2-8.8c2.1-0.4,4.4-0.6,5.4-2.9
		c2.1-4.5,4.4-9,4.3-14.2c1.5-3.5,1.1-7.2,0.9-10.9C792.9,909.1,793,905.1,791.8,901.1z M449,789.2c1.2,13.2,3.3,26.2,5.3,39.2
		c0.8,5.6,1.5,11.3,2.3,16.9c0.4,3.5,1,6.9,1.2,10.4c0.1,2.9,1.3,3.6,4.1,3.3c11.6-1.4,23.3-0.9,34.9-0.8
		c21.1,0.2,41.1,5.3,60.2,14.1c4.4,2,4.3-0.8,4.6-3.4c1.8-14.2,4.8-28.2,7.9-42.1c2.9-13.3,6-26.6,6.6-40.3c0.1-2.8-0.5-4.1-3.1-5.2
		c-5.5-2.2-11-4.7-16.8-6.3c-13.2-3.5-26.6-5.9-40.1-7.6c-20.1-2.4-40.1-3.5-60,1.5c-9.9,2.5-10.4,3-8,13.2
		C447.7,784.6,448.3,786.9,449,789.2z M1001,753.3c1.3-0.2,2.3-0.9,2.8-2.2c1.7-1.6,3.4-3.3,5-4.9c10.3-8.2,16.7-18.8,19.9-31.5
		c8.7-34.2,14.1-69.1,19.8-103.8c7.8-47.3,14-94.9,19-142.6c3.2-31,5.5-62,6.1-93.2c0.7-41.6,0.4-83.3-2.1-124.9
		c-1-17.3-2.5-34.5-8.6-51c-5.3-14.6-15.1-24.2-30.3-27.7c-21.8-5.1-43.9-7.4-66.3-8.2c-3.2-0.1-3.3,0.9-2.9,3.7
		c1.8,12,3.8,24,4.7,36.1c0.4,6,2.3,9.3,8,11.1c2.6,0.8,3.5,0.5,4.6-1.6c1.8-3.4,4.4-6.2,7.5-8.6c11.3-8.9,23.8-15.3,38.4-16.6
		c4.6-0.4,9.3-0.7,13.9-1c2-0.1,4.6-0.3,4.8,2.3c0.2,2.9-2.5,2.4-4.4,2.6c-0.5,0-1,0-1.5,0.1c-17.4,0.4-33.6,4.4-47.3,15.8
		c-3.4,2.8-6.3,5.9-8.1,9.9c-0.6,1.2-1.2,2.4-0.3,3.7c3.6,4.9,4.6,11,7.1,16.4c0.2,1.5,0.3,3,0.6,4.4c4.9,29.7,6.9,59.1-11.9,85.5
		c-5.8,5.6-10.4,12.6-18,16.3c-1.2,0.6-0.8,1.6-0.8,2.6c-0.7,36.1-2.3,72.2-3.9,108.3c-1.3,30.1-3.5,60.2-5.5,90.2
		c-2.3,33.9-5.1,67.7-7.5,101.6c-2.1,30.1-4.8,60.1-7.9,90c-1.6,15-2.4,29.8,5.5,43.7c1.7,3,2.6,3.3,5.4,2.1
		c15.4-6.3,30.4-13.5,44.7-22C995,758,998.5,756.3,1001,753.3L1001,753.3z M378,605.5c-11.1,0-22.2-0.5-33.4,0.4
		c-14.7,1.2-29.6-0.2-44.4,1c-14.6,1.2-29.2-0.2-43.9,1c-12.9,1.1-25.9-0.2-38.9,1c-13.2,1.2-26.6-0.2-39.9,1
		c-12.1,1.1-24.2-0.1-36.4,1c-12.4,1.1-24.9-0.2-37.4,1c-11.1,1.1-22.2,0.5-33.4,0.8c-15.8,0.5-31.6,1.4-47.4,1.3
		c-4.3,0-8.6,0.2-12.9,1.1c-3.8,0.7-5.8,2.7-4.8,7c6.8,29.5,13.4,59.1,20.3,88.6c5.9,25.2,12.1,50.3,18,75.4
		c7,29.5,13.9,59,20.9,88.5c2.8,11.8,6.2,23.5,3.4,35.8c-0.7,3,1.1,3.6,3.7,3.6c9.1-0.1,18.3-0.4,27.4-0.9
		c9.5-0.5,19.1-0.8,28.6-1.1c18.1-0.6,36.2-1.4,54.3-2c18.3-0.6,36.5-1.3,54.8-2c19.8-0.7,39.5-1.3,59.3-2c18.3-0.6,36.5-1.4,54.8-2
		c21.6-0.7,43.2-1.6,64.8-2c8.2-0.2,15.8-0.5,22.5-6c2.9-2.4,6.8-3.5,10.3-5.1c4.7-2.1,6.3-6.6,8.4-10.6c0.5-1,0.5-2.8-1.3-3.3
		c-2.8-0.8-2.6-3.1-2.6-5.3c0-6.2,0.6-12.4-0.2-18.5c-3.3-24.7-7.2-49.4-10.7-74.2c-3.5-24.9-6.6-49.9-10.3-74.7
		c-4.1-28-8.6-55.9-12.9-83.9c-1.8-11.6-3-14-12.3-15C397,604.7,387.5,605.5,378,605.5z M758.9,768.7c11.4,5.5,21.4,12.3,30.4,20.6
		c8.3,7.6,11.8,17.6,14.5,28c0.4,1.6,0.8,3.7-1.4,4.2c-2.4,0.6-2.9-1.5-3.5-3.3c-0.9-3-1.8-6.1-2.8-9.1c-2.4-7.3-6.7-13.3-12.5-18.3
		c-6.6-5.7-13.7-10.5-21.3-14.8c-6.2-3.5-12.7-4.8-19.7-2.9c-16.9,4.7-34,7.6-51.4,9.8c-20,2.5-37.9,0.5-51.2-16.8
		c-2.3-3-5.4-3.4-9-2.2c-9.9,3.3-18.5,9-27.7,13.8c-2.1,1.1-1.8,2.8-1.8,4.7c-0.1,23.5-2.8,46.8-6.2,70.1c-2.3,15.7-9,31.6,1.6,46.9
		c0.5,0.7,0.6,1.5,0.9,2.3c0.8,2.1,2.3,3.8,4.5,4.4c10.1,2.8,20.3,3.8,30.2-0.9c11.9-5.7,24.1-7.4,36.8-3.4c4.4,1.4,9,2.4,13.5,3.8
		c4.7,1.4,9.1,1,13.7-0.5c7.4-2.5,14.9-4.8,22.3-7.1c4.3-1.3,8.7-1.5,13.3-1c7.7,1,15.2,3.6,23.2,1.4c7.7-2.1,15.6-3.4,23.4-4.9
		c6.2-1.2,12.7-2.5,18.8-1c10.1,2.5,20.2,2,30.3,1.7c20.2-0.6,26.3-5,33.2-23.9c0.9-2.3,1.5-4.8,1.7-7.3c0.7-8.6,3.1-16.6,6.7-24.4
		c4.6-10,8.7-20.2,11.5-30.8c7.4-28.3,14.2-56.8,22.6-84.9c11-36.7,22.8-73,27.8-111.2c2.8-21.4,5.3-42.6-0.4-63.9
		c-1.4-5.3-3.1-7.9-9.1-8.4c-23-1.6-44.2,1.5-61,19.2c-5.5,5.8-11.3,11.4-18.1,15.7c-8,5.2-13.3,12-16.3,21.1
		c-4,12-10.2,23.2-12.4,35.8c-1.5,8.4-3.3,16.7-7,24.3c-4.6,9.4-5,18.8-1.2,28.5c1.8,4.5,1.2,8.6-1.1,12.9
		c-7.7,14.3-16.2,28-26.2,40.7c-3.6,4.6-6.7,9.5-8.4,15.2c-1.1,3.6-0.5,4.6,3.4,4.3c7.7-0.6,15.3,0.1,22.8,1.8
		c1.7,0.4,3.6,0.8,3,3.1c-0.5,2.1-2.3,2-4.1,1.7c-2.5-0.4-4.9-0.9-7.4-1.2C777.7,761.3,767.7,761.1,758.9,768.7z M955.9,372.7
		c0-7.5,0.1-15-0.1-22.5c0-1.5,1.5-4.7-2.2-4.1c-2.1,0.3-6.2-0.9-4.9,4.1c0.3,1.1-0.5,2.6-0.8,3.8c-2.3,8-4.6,16-6.9,24
		c-7.3,24.9-16.8,48.8-32.8,69.6c-2.5,3.2-2.4,4.5,1.6,6c10.5,3.9,13.7,16.6,4.7,22.3c-2.2,1.4-1.4,2.5,0,3.8
		c1.9,1.9,3.8,3.7,5.5,5.8c9.8,11.7,17,24.6,18.3,40.2c0.4,4,1.2,8.4-1.7,11.5c-2.4,2.6-2.1,4.9-1.5,7.7c2.9,12.5,5.5,25.1,4.4,38
		c-2.7,30.1-7.1,59.9-15.5,88.9c-9.9,34.2-20.9,68-29.2,102.7c-2.5,10.4-2.6,10.8,7.9,11.9c10.6,1.1,21.2,2.1,31.8-0.3
		c3.1-0.7,4.4-1.3,2.5-4.9c-5.8-11-8.2-22.5-6.7-35.2c2.6-22.6,4.5-45.4,6.3-68.1c2.3-29.4,4.3-58.8,6.4-88.2
		c2.6-36,5.4-72.1,7.5-108.1C952.8,445.3,954.2,409,955.9,372.7z M533.3,415.4c-7.1,18.5-8,77.1-1.4,90.5
		c8-11.1,12.4-24.6,23.6-33.5c-5.5,0.6-10.6,0.2-15.5-1.4c-5.2-1.7-8.3-5.6-9.1-10.9c-0.7-4.9,3-7.4,6.6-9.6c1.1-0.7,2.2-1.6,3.4-2
		c2.3-0.6,2.6-1.6,1.8-3.9C539.6,435.1,536.6,425.4,533.3,415.4z M937.1,346.8c-3.6-1.7-5.5-4.7-6.8-8.2c-3.1-8.2-4.8-16.6-3.9-25.4
		c3.2-30.3,6.3-60.6,9.5-90.8c0.5-4.6,1-9.2,6-12.3c-3.4-0.9-5,0.5-6.4,2.2c-3.4,3.9-5.4,8.3-5.6,13.5c-1.1,23.8-3.2,47.5-5.6,71.2
		c-1.3,12.5-1.4,25.3,0.6,37.9C925.9,341.5,931.6,347.1,937.1,346.8z M796.7,600.3c-1.4,1.9-3.1,4.3-5,6.6c-1.3,1.6-1.1,2.9-0.2,4.5
		c4,7.6,6.7,15.6,8.4,23.9c1.1,5.4,1.9,10.9,2.8,16.3C809.5,633.4,816.2,615.2,796.7,600.3z M797.1,897.4c0.7,13.8,2.3,27.5-4,40.8
		c7.5-1.1,10.2-2.8,12.5-8.3c3.7-8.9,4.9-18.2,4.6-27.8c-0.1-1.7-0.5-2.7-2.5-2.9C804.3,898.7,800.9,898,797.1,897.4z M490.6,585.6
		c3-6.9,5.7-13.4,8.7-20.4c-7.2,0.8-13.1-1-19.6-3.7C482.4,570.5,484.4,578.7,490.6,585.6z M599.5,562.6c-2.8,4.3-4.2,8.4-5.1,12.5
		c-0.3,1.4-1.8,3.5,0.6,4c2.3,0.5,4.7,0,4.5-3.6C599.4,571.5,599.5,567.5,599.5,562.6z M742.1,477.5c-5.9,0.2-4.6,3.8-4.7,6.7
		C739.8,482.9,740.5,480.5,742.1,477.5z M511.6,311.1c-4.9,4.1-0.4,6.2,1.1,8.8C512.4,317.2,512.1,314.5,511.6,311.1z M811.4,542.8
		c0,0.2,0,0.4-0.1,0.7c0.1-0.1,0.2-0.2,0.2-0.3C811.6,543,811.5,542.9,811.4,542.8z"/>
	<path class="st1" d="M743.8,1041.1c-23.7,0-47.3,0-71,0c-0.7-13.8,1.8-27.4,2.8-41.1c1.2-16.1,7.6-25.5,23.5-28.9
		c13.2-2.9,26.7-2.4,40-3.8c17.6-1.9,35.3-2.6,52.3-8.5c10.6-3.7,18.8-10.1,25.8-19.1c6.8-8.9,12.9-18.6,23-24.5
		c5.3-3.1,11.3-3.8,16.8-6.2c4.1-1.8,8.2-3.4,12.1-0.1c4.3,3.7,5.7,8.6,4.3,14c-2.2,9-8.5,14.2-17.2,16.2c-9.9,2.2-18.2,6.8-25,14.4
		c-2.3,2.6-4.9,5-7.4,7.4c-6.6,6.5-14.1,11.7-22.8,14.8c-14.1,5.1-25.8,13.4-32.7,27c-5.1,10-11.3,19.2-17.4,28.5
		C748.6,1034.5,745,1036.9,743.8,1041.1z"/>
	<path class="st2" d="M660.8,1041.1c-0.6-7.9-1.7-15.9-1.7-23.8c0-18,0.5-36,0.8-54c0-2.4,0.8-3.1,3.2-3.2
		c40.8-1.9,81.2-7.5,121.4-14.3c3.9-0.7,7.6-2,11.5-2.8c8.7-1.7,13.4-7.5,15.8-15.6c2.3-7.7,3.9-15.6,3.3-23.6
		c-0.3-3.9,1.1-4.9,4.8-4.7c7.5,0.3,14.9-0.5,22.4-1.9c8.1-1.5,14-5.9,18-13c4-7.2,7.5-14.7,8.9-23.4c2,5.2,4.2,10.4,6,15.6
		c6.6,18.7,13.1,37.4,17.2,56.8c1.8,8.5-0.1,11.2-8.1,14.5c-27.6,11.3-54,25.2-79.3,41c-9.7,6-16.5,15-22.8,24.2
		c-5.7,8.4-10.7,17.3-17.1,25.2c-0.6,0.8-1.9,1.6-1,3c-3,0-6,0-9,0c-0.2-2.3,1.6-3.7,2.9-5c7.9-8,14.2-17.3,19.4-27.1
		c8-15,19.9-25.3,34.4-33.5c11.4-6.5,23.3-12.4,33.2-21.1c5.6-5,11.9-7.6,19-9.3c2.4-0.6,4.8-1.3,7.2-2.1c7.5-2.8,11.9-9.2,12-17.2
		c0.1-7.8-2.1-15.2-5.3-22.1c-4.4-9.5-14.7-11.1-22.1-3.7c-2.3,2.3-4.7,3.8-8.1,4.4c-11.6,1.9-19.5,7.8-24.2,19.5
		c-6.5,15.9-18.8,26.3-36.3,29.3c-8.2,1.4-16.4,2.5-24.6,3.6c-10.8,1.5-21.6,3.6-32.5,4.4c-11.9,0.9-23.8,1.8-35.7,3
		c-12.1,1.2-21.1,7-25,18.9c-1.4,4.3-1.9,9.1-2.2,13.7c-1.2,14.8-1.2,29.6-1,44.4C664.2,1041.1,662.5,1041.1,660.8,1041.1z"/>
	<path class="st1" d="M640.8,1041.1c-11,0-22,0-33,0c-0.3-1.4-0.5-2.9-1-4.3c-5.7-17.6-17.9-29.9-32.7-40.1
		c-7.3-5-15.2-8.8-22.5-13.7c-6.9-4.7-9.5-11.9-6.7-18c4-8.9,12.5-11.3,21.7-5.9c4.5,2.6,8.8,5.8,13.8,6.8
		c9.7,1.9,19.6,3.2,29.5,4.2c18.3,1.9,29.2,12.2,29.9,29.2C640.3,1013.2,640.5,1027.2,640.8,1041.1z"/>
	<path class="st2" d="M768.8,1041.1c4.8-6.5,9.6-13.2,13.7-20.2c9.6-16.4,23-28.6,39.8-37.4c22.7-11.8,45.1-24.2,68.8-33.8
		c3-1.2,3,0.5,3.6,2.1c5.1,12.4,8.5,25.1,9.5,38.5c1.2,16.9,2.6,33.8,1.5,50.8c-6.3,0-12.7,0-19,0c-0.1-2.2,0.1-4.3,0.6-6.4
		c2.5-10.5,4-21.2,3.6-32.1c-0.4-9.6-4.1-17.1-12.7-21.7c-8.6-4.6-17.1-4-25.6,1.1c-5.1,3.1-8.5,7.9-13.3,11.3
		c-17.1,12.3-30.4,27.7-37.7,47.8C790.8,1041.1,779.8,1041.1,768.8,1041.1z"/>
	<path class="st3" d="M665.8,1041.1c-0.2-14.8-0.2-29.6,1-44.4c0.4-4.6,0.8-9.3,2.2-13.7c3.9-11.9,12.9-17.8,25-18.9
		c11.9-1.2,23.8-2.1,35.7-3c10.9-0.8,21.7-2.9,32.5-4.4c8.2-1.1,16.4-2.2,24.6-3.6c17.5-3,29.8-13.4,36.3-29.3
		c4.8-11.6,12.6-17.5,24.2-19.5c3.4-0.6,5.8-2,8.1-4.4c7.4-7.4,17.7-5.8,22.1,3.7c3.2,7,5.4,14.3,5.3,22.1
		c-0.1,8.1-4.5,14.4-12,17.2c-2.3,0.9-4.7,1.6-7.2,2.1c-7,1.6-13.3,4.3-19,9.3c-9.9,8.7-21.8,14.6-33.2,21.1
		c-14.5,8.3-26.4,18.6-34.4,33.5c-5.2,9.8-11.5,19.1-19.4,27.1c-1.3,1.3-3.1,2.7-2.9,5c-3.7,0-7.3,0-11,0c1.1-4.2,4.8-6.6,7-10
		c6.1-9.3,12.3-18.5,17.4-28.5c6.9-13.5,18.5-21.8,32.7-27c8.7-3.2,16.2-8.3,22.8-14.8c2.5-2.4,5.1-4.8,7.4-7.4
		c6.8-7.5,15.1-12.2,25-14.4c8.7-1.9,15-7.1,17.2-16.2c1.3-5.4,0-10.3-4.3-14c-3.9-3.3-7.9-1.7-12.1,0.1c-5.4,2.4-11.5,3.1-16.8,6.2
		c-10.1,5.9-16.3,15.6-23,24.5c-6.9,9.1-15.1,15.4-25.8,19.1c-16.9,5.9-34.7,6.6-52.3,8.5c-13.3,1.5-26.9,1-40,3.8
		c-15.8,3.4-22.3,12.8-23.5,28.9c-1,13.7-3.5,27.3-2.8,41.1C670.5,1041.1,668.2,1041.1,665.8,1041.1z"/>
	<path class="st1" d="M879.8,1041.1c-23.3,0-46.7,0-70,0c1.7-6.9,5-13,9.2-18.6c10.1-13.5,23.7-23.3,37.4-32.5
		c12.1-8.1,27.3,1.2,27.4,15.7c0.1,11,0.4,21.9-3.9,32.4C879.7,1039,879.9,1040.1,879.8,1041.1z"/>
	<path class="st2" d="M589.8,1041.1c-3.3-7.8-8.8-14-15-19.6c-11.3-10.3-22.5-20.8-34.2-30.7c-10.1-8.5-12.9-18.4-8.2-30.7
		c5.8-15.2,10.8-30.8,17.6-45.6c0.7-1.4,0.9-3.2,2.9-4.4c1,4.2,2,8.2,2.8,12.2c2.8,14,10.8,23,24.8,27.1
		c22.7,6.6,45.9,9.6,69.4,10.7c4.2,0.2,5.2,1.2,5.1,5.3c-0.5,16.5-0.9,33-0.9,49.5c0,8.8,1.1,17.5,1.7,26.3c-2.7,0-5.3,0-8,0
		c-0.6-4.8-1.1-9.5-1-14.4c0.1-11.2-0.1-22.3,0.1-33.5c0.1-5.1-0.9-10-2.5-14.7c-2.8-7.9-8.2-13.9-16.9-14.1
		c-9-0.3-17.8-1.9-26.8-2.4c-11.7-0.7-22.9-3.2-32.6-10.9c-5.9-4.6-12.8-7.5-20.4-3c-5.7,3.4-11.9,17.7-10.4,24.2
		c2.1,8.9,7.2,15.6,15.1,20.2c2.9,1.7,5.5,3.6,8.1,5.7c12.8,10.4,23.3,23.3,35.3,34.6c2.5,2.3,5,4.9,6,8.4
		C597.8,1041.1,593.8,1041.1,589.8,1041.1z"/>
	<path class="st3" d="M601.8,1041.1c-1-3.5-3.5-6-6-8.4c-12-11.3-22.4-24.1-35.3-34.6c-2.6-2.1-5.3-4-8.1-5.7
		c-7.9-4.6-13-11.3-15.1-20.2c-1.5-6.5,4.7-20.8,10.4-24.2c7.6-4.5,14.5-1.6,20.4,3c9.7,7.6,20.8,10.1,32.6,10.9
		c8.9,0.6,17.8,2.2,26.8,2.4c8.8,0.2,14.1,6.2,16.9,14.1c1.7,4.7,2.6,9.6,2.5,14.7c-0.2,11.2,0,22.3-0.1,33.5
		c-0.1,4.8,0.4,9.6,1,14.4c-2.3,0-4.7,0-7,0c-0.3-14-0.6-27.9-1.1-41.9c-0.6-17-11.5-27.3-29.9-29.2c-9.9-1-19.7-2.3-29.5-4.2
		c-5-1-9.3-4.2-13.8-6.8c-9.2-5.3-17.7-3-21.7,5.9c-2.7,6.1-0.2,13.3,6.7,18c7.3,4.9,15.2,8.7,22.5,13.7
		c14.8,10.2,27,22.5,32.7,40.1c0.5,1.4,0.7,2.9,1,4.3C605.8,1041.1,603.8,1041.1,601.8,1041.1z"/>
	<path class="st3" d="M879.8,1041.1c0-1-0.2-2.1,0.2-3c4.3-10.4,4-21.4,3.9-32.4c-0.2-14.6-15.4-23.8-27.4-15.7
		c-13.8,9.2-27.3,19-37.4,32.5c-4.2,5.6-7.5,11.7-9.2,18.6c-2.7,0-5.3,0-8,0c7.3-20.1,20.6-35.5,37.7-47.8
		c4.7-3.4,8.2-8.2,13.3-11.3c8.4-5.1,16.9-5.7,25.6-1.1c8.5,4.6,12.3,12,12.7,21.7c0.4,10.9-1.1,21.5-3.6,32.1
		c-0.5,2.1-0.7,4.3-0.6,6.4C884.5,1041.1,882.2,1041.1,879.8,1041.1z"/>
	<path class="st2" d="M527.8,1041.1c-1.9-17.6-1-35.2,2.3-53.5c3.8,3.5,7.1,6.5,10.3,9.4c10.9,9.8,21.8,19.6,32.6,29.5
		c4.5,4.1,8.9,8.5,10.8,14.6c-3.3,0-6.7,0-10,0c-0.3-4.8-3.7-8-7.1-10.3c-4.4-3-7-7.4-10.2-11.3c-1.7-2-3.2-4.3-5.1-6.1
		c-6.8-6.3-15.9-4.1-18,4.5c-1.8,7.6-2.7,15.4-0.6,23.1C531.2,1041.1,529.5,1041.1,527.8,1041.1z"/>
	<path class="st1" d="M564.8,1041.1c-9,0-18,0-27,0c0.6-6.1-1.5-12.1-0.1-18.2c0.6-2.9,2-4.8,4.5-6c2.8-1.3,5.4,0.3,6.6,2.1
		c4.3,6.8,10.2,12.1,15,18.4C564.6,1038.6,565.1,1039.7,564.8,1041.1z"/>
	<path class="st3" d="M564.8,1041.1c0.3-1.4-0.2-2.6-1.1-3.7c-4.8-6.3-10.7-11.7-15-18.4c-1.2-1.8-3.8-3.4-6.6-2.1
		c-2.5,1.2-3.9,3-4.5,6c-1.3,6.1,0.8,12.1,0.1,18.2c-1.7,0-3.3,0-5,0c-2.1-7.8-1.1-15.6,0.6-23.1c2-8.7,11.2-10.8,18-4.5
		c1.9,1.8,3.4,4.1,5.1,6.1c3.3,3.9,5.8,8.2,10.2,11.3c3.4,2.3,6.7,5.5,7.1,10.3C570.8,1041.1,567.8,1041.1,564.8,1041.1z"/>
	<path class="st4" d="M378,605.5c9.5,0,19.1-0.8,28.4,0.2c9.3,1,10.5,3.4,12.3,15c4.3,27.9,8.8,55.9,12.9,83.9
		c3.6,24.9,6.7,49.8,10.3,74.7c3.5,24.7,7.3,49.4,10.7,74.2c0.8,6.1,0.2,12.3,0.2,18.5c0,2.2-0.2,4.4,2.6,5.3
		c1.7,0.5,1.8,2.3,1.3,3.3c-2.1,4.1-3.8,8.5-8.4,10.6c-3.5,1.6-7.4,2.7-10.3,5.1c-6.7,5.6-14.3,5.9-22.5,6
		c-21.6,0.4-43.2,1.4-64.8,2c-18.3,0.6-36.5,1.3-54.8,2c-19.8,0.7-39.5,1.3-59.3,2c-18.3,0.6-36.5,1.4-54.8,2
		c-18.1,0.6-36.2,1.4-54.3,2c-9.5,0.3-19.1,0.6-28.6,1.1c-9.1,0.5-18.3,0.9-27.4,0.9c-2.6,0-4.4-0.6-3.7-3.6
		c2.9-12.3-0.6-24-3.4-35.8c-7-29.5-13.9-59-20.9-88.5c-6-25.1-12.2-50.2-18-75.4c-6.9-29.5-13.5-59.1-20.3-88.6c-1-4.3,1-6.3,4.8-7
		c4.2-0.8,8.5-1.1,12.9-1.1c15.8,0.2,31.6-0.8,47.4-1.3c11.1-0.4,22.3,0.2,33.4-0.8c12.5-1.2,25,0.1,37.4-1
		c12.2-1.1,24.3,0.1,36.4-1c13.3-1.2,26.7,0.1,39.9-1c13-1.1,26,0.2,38.9-1c14.6-1.3,29.3,0.2,43.9-1c14.8-1.2,29.6,0.2,44.4-1
		C355.7,605,366.9,605.5,378,605.5z M236.7,859.9c15.4,1.1,31.4,0.3,47.1-2.2c18-2.9,36.1-4.3,54.2-6.4c14-1.7,27.7-4.3,40.2-10.5
		c16.5-8.2,27.5-22.1,34.7-38.8c3.7-8.5,4.9-17.8,6.3-27c3.8-24.8,1.9-48.6-10-71.1c-6.8-13-17.3-22-30.7-27.8
		c-14.3-6.2-29.5-7.7-44.7-7.9c-45.7-0.4-91.3-0.1-137-0.2c-4.8,0-9.6,2-14.4,0.9c-6.9-1.5-14-1.2-20.9-0.8
		c-10.2,0.6-20.3,1.9-29.6,7.1c-19.8,11.2-30.2,27.5-29.1,50.4c0.7,13.8,4.5,27.1,8.9,40.1c3.6,10.7,9.6,20.4,12.3,31.5
		c0.6,2.5,2.3,4.8,3.6,7.1c7.4,13.9,18.5,24.5,30.4,34.5c7.7,6.4,15.7,12,25.3,15.3C200.6,860.2,218.3,860.7,236.7,859.9z"/>
	<path class="st1" d="M793.8,445.1c-0.7,0.1-1.3,0.2-2,0.2c-1.3-1.9-2.3-1.6-3.1,0.4c-33.6,3-67.3,6.2-100.9,8.9
		c-22.7,1.8-45.2-0.3-67.7-3c-9.4-1.1-18.8-2.5-28.2-3.8c-1.6-3.2-5-3.6-7.8-4.7c-11.7-5-22.4-11.2-30.7-21.4
		c-11-13.6-17.5-29.3-23.7-45.3c-0.6-1.6-0.2-3.9-2.6-4.4c-0.1-0.6-0.2-1.3-0.4-1.9c1.5-1.2,0.9-1.8-0.6-2.1
		c-0.1-0.6-0.2-1.3-0.3-1.9c1.3-1.1,0.9-1.8-0.6-2.1c-0.1-1-0.3-1.9-0.4-2.9c0.8-0.5,1-1.3,0.9-2.2c-1.2-7.2-2.2-14.4-3.7-21.5
		c-0.7-3.5,0.3-7.6-3-10.4c-0.1-0.6-0.1-1.3-0.2-1.9c1.4-1.1,0.9-1.7-0.5-2.1c-6-39-6.1-78-0.2-116.9c4.3-28.7,9.7-57.5,24.9-83
		c9.9-16.6,21.1-32.3,35-45.9c1.1-0.2,2.4-0.1,3.4-0.5c14.2-5.8,28.9-10.1,43.3-15.1c22.3-7.6,45.3-11.5,68.9-11.6
		c5,0,9.9-0.6,14.9-1.1c18.4-1.8,36.9-1.8,55,2.1c13.2,2.8,25.9,7.3,38.5,12c18.5,6.9,35.7,16.7,51.6,28.1
		c11.4,8.1,21.5,18.3,30.8,29c14.8,17,25.2,35.9,29,58.5c2.9,17.4,3.1,34.3-1.4,51.3c-5,19-6.8,38.5-8.1,58
		c-1.1,16.1,4.7,31.4,5.8,47.3c1,14.2,3.3,28.4,1,42.6c-2.4,14.9-10.4,27.1-21.3,36.9c-12,10.8-25.6,19.6-41.9,23
		c-9.6,2-19.4,2.7-29.1,3.2c-6.1,0.3-12.3,0.4-18.4,1.3C797.9,442.6,794.7,441.8,793.8,445.1z M704.2,86.9
		c-28.1-0.1-49.9,2.4-71,10.6c-29.4,11.5-52,31.6-70.5,56.3c-25.9,34.6-31.2,74.9-28.4,116.8c1.7,25.5,7.5,50.3,13.6,75
		c5.1,20.8,12.5,40.7,25.9,57.9c5,6.5,10.2,12.9,17.7,16.6c13.3,6.4,27.2,10.8,42.2,10.2c21.8-0.7,43.6-2.2,65.4-2.6
		c40-0.7,79.8-2.8,119.3-10.4c22.3-4.3,39.5-14.6,49.4-35.4c12.1-25.2,20.9-51.5,22.9-79.6c2.8-40.5-5-79.3-23.1-115.6
		c-20.7-41.4-53.3-70.6-95.6-88.8C748.5,87.9,723.3,87.7,704.2,86.9z"/>
	<path class="st1" d="M722.8,606.1c1,2.2,2,4.5,3.1,6.7c1.2,2.5,3.2,4.1,5.9,3.3c2.9-0.9,0.4-3.4,0.9-5.1c0.2-0.6,0.1-1.3,0.1-2
		c8.7,0.9,15.8,5.1,22.8,10.1c5.2,3.7,8.3,9.4,13.5,12.9c-0.1,0.6-0.3,1.3-0.4,1.9c-0.5,2-3.3,4-1.5,5.7c1.8,1.7,3.5-1.7,5.7-1.8
		c-0.1,3.3,3.9,5.1,3,8.7c-12.5-0.5-24.9-0.9-37.4-1.4c-11.1-0.4-22.3-0.7-33.4-1.2c-3.9-0.2-5.7,1.2-5.5,5.4
		c0.3,6.1,0.3,12.3,0,18.4c-0.2,4.2,1.4,5.3,5.3,5.4c22.9,0.9,45.8,2.1,68.7,3.4c2.8,0.2,3.5-0.7,3.5-3.2c0-8.5,0.2-17,0.3-25.4
		c3.6,3,4.8,7.4,6.4,11.5c4.9,12.2,4.6,25,2.7,37.6c-1.4,8.8-5.2,17-11.1,23.9c0.1-5,0.1-10,0.2-15c0.1-2.6-0.5-4-3.5-4
		c-22.5-0.5-44.9-1.1-67.4-1.8c-3.3-0.1-4.8,1-4.8,4.6c0.1,7.3,0.1,14.7-0.4,22c-0.3,4.3,0.9,5.8,5.4,5.8
		c19.3,0.4,38.6,1.1,57.9,1.6c0,1.3-0.7,2.1-1.6,3c-7.1,6.9-15.2,12.3-24.4,16c-14.9,5.9-30.2,3.9-45.3,2.5
		c-20.6-1.8-40.6-8.1-61.2-10.6c-10.1-1.3-19.8-2.3-28.9,3.6c-3,2-6.5,1.1-9.7,1.3c-16,0.9-28.7-13.5-28-27.9
		c0.4-7.3,0.3-14.6,1-21.9c1.3-13.2,1.6-26.5,3.3-39.6c1.2-9.3,3.6-18.6,8.9-26.7c0.6,0,1.3,0,1.9-0.1c2.2,3.5,5.2-0.5,8,1
		c4,2.1,8.7,2.7,13,4c0.4-0.6,0.7-1,0.7-1.1c-2-2.8-1.1-4.9,1.2-7.1c3.3-3.2,5.2-7.7,9.4-10.1c0.6-0.3,1.4-0.4,0.8-1.4l0,0
		c3.1-0.3,4.7-2.5,6-5c0,0,0,0,0,0c2.4-1.7,3.1-4.4,3.8-7.1c0.4-1.4,0.8-2.9,1.2-4.3c0.7,0.3,1-0.1,1.3-0.6c2.7-1.6,5.8-2.4,8.8-3.1
		c13.9-3,27.6,1.8,41.4,1.6c6.5-0.1,13.1,1.3,19.7,2.1C703.8,603.9,713.3,605,722.8,606.1z M622.9,718.6c0.1-10-7.6-18.1-17.4-18.2
		c-9.4-0.1-17.4,7.9-17.5,17.6c-0.2,10,7.6,18,17.4,18C615,736,622.8,728.3,622.9,718.6z M606.8,676.2c9.9,0,17.9-8,17.8-17.6
		c-0.1-9.7-8.2-17.4-18.1-17.3c-9.6,0.1-17.5,7.9-17.5,17.4C588.9,668.3,596.9,676.2,606.8,676.2z"/>
	<path class="st2" d="M758.9,768.7c8.8-7.6,18.9-7.4,29.1-6.2c2.5,0.3,4.9,0.7,7.4,1.2c1.8,0.3,3.6,0.4,4.1-1.7
		c0.5-2.2-1.3-2.7-3-3.1c-7.5-1.6-15.2-2.3-22.8-1.8c-3.9,0.3-4.5-0.7-3.4-4.3c1.8-5.7,4.8-10.6,8.4-15.2
		c10.1-12.7,18.5-26.4,26.2-40.7c2.3-4.3,2.9-8.4,1.1-12.9c-3.8-9.7-3.4-19.1,1.2-28.5c3.8-7.7,5.6-15.9,7-24.3
		c2.2-12.5,8.4-23.8,12.4-35.8c3-9.2,8.3-16,16.3-21.1c6.7-4.3,12.5-9.9,18.1-15.7c16.8-17.7,38.1-20.9,61-19.2
		c5.9,0.4,7.6,3,9.1,8.4c5.7,21.4,3.2,42.5,0.4,63.9c-5,38.2-16.9,74.5-27.8,111.2c-8.4,28-15.2,56.5-22.6,84.9
		c-2.8,10.7-6.9,20.9-11.5,30.8c-3.6,7.8-6,15.8-6.7,24.4c-0.2,2.5-0.8,4.9-1.7,7.3c-6.9,18.9-13,23.3-33.2,23.9
		c-10.1,0.3-20.2,0.8-30.3-1.7c-6.2-1.5-12.6-0.2-18.8,1c-7.8,1.5-15.8,2.8-23.4,4.9c-8,2.2-15.5-0.5-23.2-1.4
		c-4.6-0.6-9-0.4-13.3,1c-7.5,2.3-14.9,4.6-22.3,7.1c-4.6,1.6-9,1.9-13.7,0.5c-4.5-1.3-9-2.4-13.5-3.8c-12.8-4-25-2.3-36.8,3.4
		c-9.9,4.7-20.1,3.7-30.2,0.9c-2.2-0.6-3.7-2.2-4.5-4.4c-0.3-0.8-0.5-1.7-0.9-2.3c-10.6-15.3-3.9-31.2-1.6-46.9
		c3.3-23.3,6-46.6,6.2-70.1c0-1.9-0.2-3.6,1.8-4.7c9.2-4.7,17.8-10.5,27.7-13.8c3.6-1.2,6.7-0.8,9,2.2
		c13.3,17.3,31.2,19.3,51.2,16.8c17.4-2.2,34.5-5.1,51.4-9.8c7-2,13.5-0.6,19.7,2.9c7.6,4.2,14.7,9.1,21.3,14.8
		c5.8,5,10.1,11,12.5,18.3c1,3,1.9,6,2.8,9.1c0.5,1.8,1.1,3.9,3.5,3.3c2.2-0.5,1.8-2.6,1.4-4.2c-2.7-10.4-6.2-20.4-14.5-28
		C780.2,781,770.2,774.2,758.9,768.7z M810.8,887.1c3.9,0,6.7,0.3,9.5-0.1c12.1-1.5,23.5-4.6,28.3-17.7c2.1-5.6,3.5-11.5,3.1-17.5
		c-0.5-7.5,1.4-14.5,4.3-21.3c6.7-16,12.1-32.3,16-49.2c3.8-16.2,7.4-32.5,13.2-48c8.2-22,16.3-43.9,23.2-66.4
		c7.9-25.9,14.2-52.2,18.3-79c0.7-4.3,0.9-8.9-1-13.3c-5.9-12.9-19.8-17.9-33.1-11.3c-11.3,5.6-22.6,11.5-32.6,19.4
		c-9.4,7.5-19.4,15-23.8,26.4c-4.5,11.6-7.2,23.8-10.4,35.9c-3.6,13.5-5.8,27.3-8.5,40.9c-2.4,12.6-9.1,23.5-14.5,34.9
		c-2,4.3-3.1,8.6-3.2,13.4c-0.3,7.2,3.9,12.6,6.3,18.7c4,10.3,4.7,8.2-5.4,15.1c-9,6.2-9.9,10.2-2.4,18c8,8.3,12.8,18.1,12.7,29.9
		c0,5.6-3.2,10.9-7.9,11.9c-5.3,1.1-7.8-3-9.9-6.7c-3.7-6.3-7.7-12.4-12.2-18.2c-7.1-9.1-15.1-17-27.2-18.7
		c-17.5-2.5-34.4-0.6-50.5,7.2c-4,1.9-7.8,4.5-12.5,4.6c-11.3,0.4-22-2.8-32.8-5.6c-1.2-0.3-2.3-1.3-3.2-2.2
		c-3.4-3.6-7.6-5.9-12.1-7.9c-15.9-7.2-32.5,3.3-32.7,20.7c-0.1,5.7,0.1,11.3-0.1,17c-0.5,15.3-1.9,30.5-6.2,45.2
		c-1.2,4-2.7,8-2.4,12.1c0.6,8.9,4.6,16.1,13,19.7c9.2,4,17.6,1.8,24.6-5.3c2.8-2.9,5.8-3.7,9.9-2.9c10.7,2.1,21.1,5.7,32.3,5.5
		c12-0.2,23.9-1.7,35.9-1.3c4.2,0.2,8.3-0.3,12.3-1.4c4.2-1.1,8.3-0.8,12.4-0.5c9.5,0.7,18.9,0.5,27.8-3.4
		c6.3-2.7,12.7-3.6,19.4-1.9C796.3,886,803.8,888.1,810.8,887.1z"/>
	<path class="st3" d="M793.8,445.1c0.9-3.4,4.1-2.5,6.2-2.8c6.1-0.9,12.2-1,18.4-1.3c9.7-0.5,19.5-1.1,29.1-3.2
		c16.4-3.5,29.9-12.2,41.9-23c10.9-9.8,18.9-22,21.3-36.9c2.3-14.2,0-28.4-1-42.6c-1.2-15.9-7-31.2-5.8-47.3c1.3-19.5,3.1-39,8.1-58
		c4.5-16.9,4.4-33.9,1.4-51.3c-3.8-22.7-14.2-41.5-29-58.5c-9.3-10.7-19.4-20.9-30.8-29c-15.9-11.4-33.1-21.1-51.6-28.1
		c-12.6-4.7-25.3-9.2-38.5-12c-18.2-3.9-36.6-3.9-55-2.1c-5,0.5-9.9,1-14.9,1.1c-23.6,0.2-46.6,4-68.9,11.6
		c-14.5,4.9-29.2,9.3-43.3,15.1c-1,0.4-2.3,0.3-3.4,0.5c7.4-9,16.1-16.8,25.9-23.1C625.7,40,648.5,27.9,673.8,21
		c0.3,0.7,0.9,1,1.6,0.8c10.6-3.9,21.7-2.5,32.6-2.6c15.3-0.1,30.8-1.4,45.9,0.4c21.6,2.6,42.7,8,62.3,18.2
		c11.4,5.9,23.6,10.2,34.7,16.4c18.6,10.3,31.4,27,43.6,43.8c12.1,16.6,21.3,34.8,29.5,53.6c7.5,17.1,12.2,34.7,12.6,53.4
		c-6.9,4.4-11.4,10.9-11.5,18.9c-0.8,33.3-7.3,66.2-6.4,99.6c0.2,8,0.7,16,6.1,22.6c-2.5,16.3-3.1,33-9,48.8
		c-3.9,10.6-6.9,21.3-13.4,30.9c-4.9,7.3-11,13.7-14.7,21.8c-29.7-5.6-59.6-4.9-89.5-2.3C796.8,445.3,795.3,445.2,793.8,445.1z"/>
	<path class="st3" d="M979.6,327.1c18.8-26.4,16.8-55.7,11.9-85.5c-0.2-1.5-0.4-3-0.6-4.4c3.1-1.9,3.3-5.5,4.8-8.3
		c7-12.6,16.8-21,31.7-21.7c20.4-0.9,34.2,13.4,37.2,33.5c2.9,19.4,2.2,39.1,2.7,58.7c0.3,13.9-2.2,27.8-2.5,41.7
		c-0.5,23.6-0.2,47.3-0.3,70.9c0,1.7,0,3.3-0.1,5c-1.5,18-3.8,36-4.5,54c-0.7,18-3.5,35.6-6.9,53.2c-2.9,15.3-7.7,30.3-9.8,45.7
		c-1.7,12.6-2.9,25.4-4.7,38c-1.5,10.7-3.7,21.2-4.9,31.9c-2.5,20.6-4.3,41.2-8.2,61.6c-2.5,13.4-5.8,26.6-13.6,38.2
		c-1.3,1.9-3.9,3.4-3.2,6.5c-1.7,1.6-3.4,3.3-5,4.9c-1.6-0.1-3.1-0.1-2.8,2.2c0,0,0,0,0,0c-1.8-0.6-3.3,0.3-4.7,1.1
		c-18.8,11-46.4-3.9-50.6-24.5c-1.3-6.4-0.3-12.5,0-18.8c0.9-16.6,4.7-32.8,5.5-49.4c0.6-14.1,3.8-27.9,3.6-42.1
		c-0.1-5-0.5-10.1,0.2-15c2.8-17.4,5.3-34.7,5.6-52.3c0.5-23.4,3.4-46.6,6.1-69.8c2.5-20.9,5.5-41.7,8.3-62.6
		c2.5-18.6,4.6-37.2,4.8-56c0.1-9.6-0.6-19.3,0.8-28.9C981,332.5,982.2,329.4,979.6,327.1z M1000.8,301.4
		c0.5,14.5-0.5,35.4-2.1,56.3c-0.8,9.8-1.6,19.5-2.2,29.3c-0.9,14.1-3.1,28.1-3.6,42.1c-0.5,16.5-3.1,32.7-5.8,48.8
		c-4.3,26.2-7.5,52.5-11.3,78.7c-2.9,19.8-5.6,39.7-9.5,59.4c-3.3,16.3-7,32.5-7.4,49.1c-0.5,17.1-0.1,34.3-0.1,51.5
		c0,2,0.2,3.9,0.6,5.9c2.3,11.5,19.1,23.8,34.1,19.2c9.5-2.9,14.9-8.2,17-16.6c2.9-11.7,4.4-23.8,6.4-35.7c1.5-9,0.9-18.3,2.4-27.2
		c4.6-26.1,10.8-51.9,15.2-78c2.9-17,7.2-33.7,10.7-50.6c3-14.4,5.5-28.9,7.1-43.7c1.6-14.7,4.1-29.3,4.4-44
		c1.2-47.7-1.6-95.5,2-143.3c0.8-9.9,0-20,0.1-30c0.3-16.8-5-30.3-20.1-39.5c-8.2-5-16.2-5.5-24.1-1.6c-7.6,3.8-12.2,10.6-12.9,19.5
		C1000.6,265.6,1000.6,280.3,1000.8,301.4z"/>
	<path class="st2" d="M936.8,205c-0.4-18.7-5.2-36.3-12.6-53.4c-8.2-18.8-17.4-37-29.5-53.6c-12.2-16.9-25-33.5-43.6-43.8
		c-11.2-6.2-23.4-10.5-34.7-16.4c-19.6-10.2-40.7-15.6-62.3-18.2c-15.1-1.8-30.6-0.5-45.9-0.4c-10.9,0.1-22-1.3-32.6,2.6
		c-0.7,0.3-1.3,0-1.6-0.8c15-5.9,30.6-10.1,46.5-12.7c39.2-6.4,78.3-3.6,116.5,5.6c42.7,10.3,73.7,37.1,95,75.3
		c16.3,29.1,24.9,60.5,29,93.3c1,7.8,1.9,15.5,3,23.3c0.5,3.4-0.1,4.8-4.1,4.1c-5.1-0.9-10.2-1-14.8-3.9
		C942.5,204.3,939.6,204.6,936.8,205z"/>
	<path class="st1" d="M533.8,764.9c-11.7-1.5-23.4-3-35.2-4c-14.4-1.2-28.6,0.1-42.7,2.9c-0.6-3.4,1-6.1,2.6-8.9
		c3.5-5.9,7.5-11.7,8.8-18.4c3.2-16,10.6-30,18.2-44.1c5.8-10.8,11.7-21.6,13.3-34.2c1.5-11.1,0.1-22.3,1.9-33.3
		c2.2-13,6-25.5,10.6-37.7c2.7-7.1,11-8.8,17.8-5.3c9.4,4.8,12.1,13,12.6,22.7c0.6,12.5-0.7,24.9-1.3,37.4c-0.4,8.6,0.8,17.5-1,25.9
		c-3.8,18.1-3.4,36.2-2.8,54.5c0.3,7.7-0.1,15.3,0.1,23C537,752.1,536.1,758.6,533.8,764.9z"/>
	<path class="st2" d="M955.9,372.7c-1.7,36.3-3.1,72.6-5.3,108.9c-2.1,36.1-5,72.1-7.5,108.1c-2.1,29.4-4.1,58.8-6.4,88.2
		c-1.8,22.7-3.7,45.5-6.3,68.1c-1.5,12.7,0.9,24.2,6.7,35.2c2,3.7,0.6,4.2-2.5,4.9c-10.6,2.5-21.2,1.4-31.8,0.3
		c-10.5-1.1-10.4-1.5-7.9-11.9c8.2-34.7,19.3-68.5,29.2-102.7c8.4-29,12.8-58.8,15.5-88.9c1.2-13-1.5-25.5-4.4-38
		c-0.6-2.8-0.9-5.1,1.5-7.7c2.9-3.1,2-7.5,1.7-11.5c-1.4-15.5-8.5-28.5-18.3-40.2c-1.7-2-3.6-3.9-5.5-5.8c-1.4-1.4-2.2-2.5,0-3.8
		c9-5.8,5.8-18.4-4.7-22.3c-4.1-1.5-4.1-2.8-1.6-6c16-20.8,25.5-44.7,32.8-69.6c2.3-8,4.6-16,6.9-24c0.4-1.3,1.1-2.7,0.8-3.8
		c-1.3-5,2.8-3.7,4.9-4.1c3.7-0.6,2.2,2.5,2.2,4.1C956,357.7,955.9,365.2,955.9,372.7z"/>
	<path class="st2" d="M1008.9,746.2c-0.7-3,1.9-4.5,3.2-6.5c7.8-11.6,11-24.9,13.6-38.2c3.9-20.4,5.7-41,8.2-61.6
		c1.3-10.7,3.4-21.3,4.9-31.9c1.8-12.6,2.9-25.4,4.7-38c2.1-15.5,6.9-30.4,9.8-45.7c3.3-17.6,6.2-35.2,6.9-53.2
		c0.7-18,2.9-36,4.5-54c0.1-1.7,0.1-3.3,0.1-5c0.1-23.7-0.2-47.3,0.3-70.9c0.3-13.9,2.8-27.8,2.5-41.7c-0.5-19.6,0.2-39.3-2.7-58.7
		c-3-20.1-16.7-34.4-37.2-33.5c-14.9,0.7-24.8,9.1-31.7,21.7c-1.5,2.8-1.8,6.4-4.8,8.3c-2.5-5.4-3.5-11.4-7.1-16.4
		c-1-1.3-0.3-2.5,0.3-3.7c1.8-4,4.8-7.1,8.1-9.9c13.8-11.4,29.9-15.5,47.3-15.8c0.5,0,1,0,1.5-0.1c1.9-0.1,4.6,0.4,4.4-2.6
		c-0.2-2.6-2.8-2.4-4.8-2.3c-4.7,0.2-9.3,0.6-13.9,1c-14.6,1.3-27,7.7-38.4,16.6c-3.1,2.4-5.7,5.2-7.5,8.6c-1.1,2.1-2,2.4-4.6,1.6
		c-5.8-1.8-7.6-5.1-8-11.1c-0.9-12.1-2.9-24.1-4.7-36.1c-0.4-2.8-0.3-3.8,2.9-3.7c22.3,0.7,44.5,3.1,66.3,8.2
		c15.1,3.5,24.9,13.2,30.3,27.7c6,16.5,7.5,33.7,8.6,51c2.5,41.6,2.8,83.2,2.1,124.9c-0.6,31.1-2.8,62.2-6.1,93.2
		c-5,47.7-11.2,95.3-19,142.6c-5.7,34.8-11.2,69.6-19.8,103.8C1025.6,727.4,1019.2,738,1008.9,746.2z"/>
	<path class="st2" d="M979.6,327.1c2.6,2.3,1.4,5.4,1,7.9c-1.4,9.6-0.7,19.3-0.8,28.9c-0.1,18.8-2.3,37.4-4.8,56
		c-2.8,20.9-5.8,41.7-8.3,62.6c-2.7,23.2-5.6,46.4-6.1,69.8c-0.4,17.6-2.8,35-5.6,52.3c-0.8,4.9-0.3,10-0.2,15
		c0.2,14.2-3,28-3.6,42.1c-0.7,16.6-4.6,32.8-5.5,49.4c-0.3,6.3-1.3,12.4,0,18.8c4.2,20.6,31.8,35.4,50.6,24.5
		c1.4-0.8,2.9-1.7,4.7-1.1c-2.5,3-6,4.7-9.2,6.6c-14.3,8.6-29.3,15.7-44.7,22c-2.8,1.1-3.7,0.8-5.4-2.1c-7.9-13.9-7.1-28.7-5.5-43.7
		c3.1-30,5.8-60,7.9-90c2.3-33.9,5.2-67.7,7.5-101.6c2-30.1,4.2-60.1,5.5-90.2c1.6-36.1,3.2-72.2,3.9-108.3c0-1-0.3-2.1,0.8-2.6
		C969.2,339.7,973.8,332.7,979.6,327.1z"/>
	<path class="st1" d="M792.5,913.2c0.3,3.7,0.7,7.3-0.9,10.9c-1.3-0.1-2.1,0.9-2.9,1.7c-7.4,6.7-15.8,11.2-25.7,13.5
		c-14.6,3.3-29.5,4.2-44.3,6.1c-19.2,2.4-38.5,3.2-57.8,3.7c-22.4,0.6-44.3-2.8-65.7-9.4c-7-2.1-14.5-2.1-21-5.8
		c-6.4-3.6-8.9-9.3-6.4-15.4c2.2-5.4,9.3-8.5,15.5-6.7c4.5,1.3,8.7,3.1,13,4.9c10.7,4.4,21.7,7.8,32.8,0.8c1.2-0.8,2.8-1.1,4.3-1.4
		c13.7-2.7,27.1-0.9,40.2,3.3c6.2,2,12.8,3.9,19,3.1c18.3-2.2,36.6-3.9,55-3.6c9.3,0.1,18-1.9,25.3-8.4c5.8-5.2,11.1-4.6,16.7,0.7
		C790.5,912.1,791.2,913.2,792.5,913.2z"/>
	<path class="st1" d="M558.9,449.2c10.1-1,19.8,2,29.6,3.5c45.3,6.6,90.5,9.5,136.3,4c40.5-4.8,81.1-8.5,121.9-8.3
		c15.8,0.1,31.5,1.7,46.9,5.7c1.1,0.3,2.1,0.8,3.2,1.3c0.8,3.4,1.5,6.8-0.8,10c-1.3,1.7-2.7,3.3-4.1,4.9
		c-13.5-2.6-26.8-6.3-40.7-7.4c-14.1-1.1-27.9,0.8-41.7,2.6c-23.7,3.2-47.6,5.1-71.4,7.5c-25,2.5-50.1,3.9-75.3,2.2
		c-19.1-1.3-38.1-3.7-57.1-5.5c-14.6-1.3-29-4.1-43.7-3.8C558.2,460.8,556.5,455.4,558.9,449.2z"/>
	<path class="st2" d="M444.7,757.1c-1.8-4.7-1.5-9.8-2.6-14.6c-0.1-0.6,0.1-1.4,0.5-1.8c4.7-4.4,3.7-10.2,4.4-15.8
		c1.7-13,6.3-25.3,16.9-33.5c10.1-7.9,14.3-16.8,13.2-29.6c-1.1-14.2,2.2-28,6.5-41.6c9.5-30.4,21.4-59.8,39.2-86.5
		c1-1.5,2.1-3,3.6-5.2c3.9,13.8,14.4,22.3,22.1,32.8c4.7,6.4,10.2,12.3,11.4,20.7c-0.7,7.4-0.4,14.6,3.8,21.1
		c-0.5,5.2-3,9.8-4.7,14.6c-4.9,13.6-7.1,27.6-7,42c0.3,34.2,0.7,68.5,1.1,102.7c0.1,6.6,0.2,6.6-6.4,5.1
		c-1.5-6.3-0.1-12.5,0.1-18.7c0.4-11.4-3.7-22.2-3.6-33.6c0.1-7.4-1.9-14.8-1.3-22.3c0.6-8.8,1.1-17.6,2-26.3
		c1.1-10.2,0.8-20.5,2.6-30.7c1.7-9.3,4.8-18.3,6.7-27.6c2.7-12.9-1.8-23.6-10.6-32.7c-2.6-2.7-5.6-4.7-7.9-7.9
		c-6.1-8.5-17-7.3-21.8,2.1c-1.5,3-3.1,5.9-4.2,9c-4.9,13.8-9.3,27.8-14.7,41.3c-5.6,13.8-7.6,28.1-8.1,42.8
		c-0.3,9.2-2.7,17.6-7.8,25.3c-5.8,8.8-12.9,17-14.9,27.9c-1.6,8.7-4.8,16.9-10.5,24c-2.9,3.6-4.1,7.9-5.6,12.2
		C446.5,754.1,446.6,756.1,444.7,757.1z"/>
	<path class="st2" d="M448,782.2c-2.4-10.2-1.9-10.7,8-13.2c19.9-5,39.9-3.9,60-1.5c13.5,1.6,26.9,4,40.1,7.6
		c5.8,1.6,11.2,4,16.8,6.3c2.6,1.1,3.3,2.4,3.1,5.2c-0.6,13.7-3.7,27-6.6,40.3c-3.1,14-6.1,27.9-7.9,42.1c-0.3,2.5-0.2,5.4-4.6,3.4
		c-19.1-8.8-39.1-13.8-60.2-14.1c-11.6-0.1-23.3-0.7-34.9,0.8c-2.8,0.3-3.9-0.4-4.1-3.3c-0.2-3.5-0.8-6.9-1.2-10.4
		c6.7,0.5,13.1-1.9,19.8-2.2c15.9-0.8,31.3,2.3,46.8,5.3c17.7,3.5,27.1-1.3,35.8-15.3c10.2-16.5,2-38.4-16.3-45.4
		c-14.3-5.5-29.3-8.7-44.7-9.4C481.3,777.6,464.4,777.7,448,782.2z"/>
	<path class="st3" d="M444.7,757.1c1.9-1,1.8-3,2.4-4.7c1.5-4.2,2.7-8.6,5.6-12.2c5.6-7.1,8.8-15.3,10.5-24c2-11,9.1-19.1,14.9-27.9
		c5.1-7.7,7.5-16,7.8-25.3c0.5-14.6,2.5-29,8.1-42.8c5.5-13.6,9.8-27.6,14.7-41.3c1.1-3.1,2.7-6.1,4.2-9c4.9-9.4,15.7-10.7,21.8-2.1
		c2.3,3.2,5.3,5.3,7.9,7.9c8.8,9,13.3,19.7,10.6,32.7c-1.9,9.3-5,18.2-6.7,27.6c-1.8,10.2-1.5,20.5-2.6,30.7
		c-0.9,8.7-1.4,17.5-2,26.3c-0.5,7.5,1.4,14.9,1.3,22.3c-0.1,11.4,4.1,22.2,3.6,33.6c-0.2,6.2-1.6,12.5-0.1,18.7
		c-4.3-0.9-8.7-1.8-13-2.7c2.3-6.3,3.3-12.8,3.1-19.6c-0.2-7.7,0.2-15.3-0.1-23c-0.6-18.2-1-36.4,2.8-54.5c1.8-8.3,0.6-17.2,1-25.9
		c0.6-12.4,1.9-24.9,1.3-37.4c-0.5-9.7-3.1-17.9-12.6-22.7c-6.8-3.5-15.1-1.8-17.8,5.3c-4.6,12.2-8.5,24.8-10.6,37.7
		c-1.8,11-0.4,22.2-1.9,33.3c-1.7,12.5-7.6,23.4-13.3,34.2c-7.5,14.1-15,28.1-18.2,44.1c-1.3,6.7-5.4,12.5-8.8,18.4
		c-1.6,2.8-3.2,5.5-2.6,8.9c-3.3,1-6.5,1.9-9.9,2.9C444.7,763.7,445,760.4,444.7,757.1z"/>
	<path class="st3" d="M448,782.2c16.4-4.5,33.2-4.6,50-3.9c15.3,0.6,30.4,3.9,44.7,9.4c18.3,7.1,26.5,29,16.3,45.4
		c-8.7,14-18.1,18.7-35.8,15.3c-15.6-3-30.9-6.1-46.8-5.3c-6.7,0.3-13,2.7-19.8,2.2c-0.8-5.6-1.5-11.3-2.3-16.9
		c10.8-0.1,21.5-0.3,32.3,0.4c12.3,0.8,24.8,2.8,37.2,0.4c7.8-1.5,13.3-7.5,13.9-15.4c0.6-6.7-4.4-14.4-11.3-16.5
		c-7.6-2.3-15.3-4.8-23.1-6c-18-2.6-36.2-4.6-54.4-2.1C448.3,786.9,447.7,784.6,448,782.2z"/>
	<path class="st3" d="M576.9,634c-5.3,8.1-7.8,17.3-8.9,26.7c-1.7,13.1-2,26.5-3.3,39.6c-0.7,7.3-0.7,14.6-1,21.9
		c-0.7,14.4,11.9,28.8,28,27.9c3.3-0.2,6.7,0.7,9.7-1.3c9.1-5.9,18.7-4.9,28.9-3.6c20.6,2.6,40.5,8.8,61.2,10.6
		c15.1,1.3,30.5,3.4,45.3-2.5c9.3-3.7,17.3-9.1,24.4-16c0.9-0.8,1.6-1.7,1.6-3c4-0.1,8.1-0.1,12.1-0.2c0,0-0.1-0.1-0.1-0.1
		c-2.3,3.3-4.6,6.7-6.9,10c-1.1-0.2-1.9,0.4-2.7,1.1c-10.1,9.7-22.8,14.8-35.3,20.3c-22.8,10-45,6.6-66.2-4.6
		c-18.2-9.6-36.5-14-56.3-5.2c-3.8,1.7-7.4,3.8-11.6,4.5c-8.4-4.8-14.3-4.5-19.1,1c-7.9-2.4-12.9-8.7-18.6-14.1
		c-0.3-33.4-1.9-66.8-0.5-100.3c0.5-12.4,5.4-23.5,9.5-36.1c0.8,3.3,1.3,5.3,1.8,7.4c1,3.8-0.2,8.4,4,11l0-0.1c-1,1.3,0,1.7,1,2.1
		l-0.1-0.1c0.3,1.1,0.7,2,2.1,1l-0.1,0C575,633.4,576.8,633.3,576.9,634z"/>
	<path class="st1" d="M821.7,529.1c0.3-0.9,0.5-1.9,0.8-2.8c0,0,0,0,0,0c0.2-0.4,0.3-0.7,0.5-1.1c0.6-0.1,0.7-0.5,0.6-1.1
		c2.7-4.5,6.4-7.8,11.2-10c2.3-0.9,5-1.1,6.1-3.9l-0.1,0.1c1.7,0.4,2.8-0.2,3-2l0,0c2.2,0.1,3.7-0.8,4-3.1l0,0
		c1.1,0.4,1.5,0.1,1-1.1l-0.1,0.1c1.3,0.9,1.7,0,2-1l0,0c0.7,0,1-0.3,1-1l0,0c1-0.4,1.9-0.7,1-2c0,0-0.1,0.1-0.1,0.1
		c3.5-1.1,3.6-4.4,4.7-7.1c0.8-2,0.3-4.5,2.4-5.9c10.2-0.8,16.4,4.4,20.6,13.2c8.8,18.7,4.5,34.7-12.8,42.1
		c-11.3,4.8-20.8,11.4-29.1,20.3c-4.8,5.2-10.8,6.2-17.8,4.7c-3.4-0.7-4.7-4.3-8.1-4.3c-0.2-4.2,0.6-8.1,2-12.1
		C817.2,543.8,819.4,536.4,821.7,529.1z"/>
	<path class="st1" d="M449,789.2c18.3-2.5,36.4-0.5,54.4,2.1c7.8,1.1,15.5,3.6,23.1,6c6.9,2.1,11.9,9.8,11.3,16.5
		c-0.7,7.9-6.2,13.9-13.9,15.4c-12.4,2.4-24.9,0.5-37.2-0.4c-10.8-0.7-21.6-0.6-32.3-0.4C452.3,815.4,450.2,802.3,449,789.2z"/>
	<path class="st1" d="M473.8,411.7c-3.6-3.4-3.4-7.4-2.5-11.8c2-10.2,4-20.4,7.5-30.3c1.4-0.2,1.3,0.9,1.7,1.4
		c0.5,0.6,0.8,1.7,1.8,1.2c1.2-0.6,1-1.8,0.3-2.6c-3.4-4-1.4-7.8,0.3-11.5c2.9-6.6,6.1-13.1,9.9-19.2c2.2,0.7,1.7,4.3,4.5,3.2
		c1-0.4,0.3-1.4-0.3-2c-0.3-0.5-0.6-1-0.9-1.4c-2.2-3.2-0.3-5.4,1.7-7.6c5.1,4.7,7.1,10.4,5,17.1c-0.4,1.4-0.4,2.5,0.9,3.4
		c-1.9,1.3-0.9,2.4,0.1,3.6c0.2,4.7-0.3,9.3-1,13.9c-1,7.2-2,14.3-3,21.5c-3.3,1.2-0.6,2.4,0,3.6c-0.8,9.2-2.2,18.3-2.3,27.6
		c0,2,0.1,4.7-1.8,6.5c-3.3-1.1-6.1-3.3-9.1-5c-1-0.6-2.2-2.5-3.3-0.9c-1.3,1.9,1.1,2.4,2.2,3.1c3.5,2.2,7.1,4.3,10.6,6.4
		c-0.3,11.4-1.8,22.7-1.3,34.1c-10.6-2.5-19.2-8.7-27.5-15.5c-1-0.8-1.6-1.6-1.5-2.9c1.2-12,2.4-24.1,3.6-36.7
		c1.5,1.2,2.2,1.8,3,2.4c0.5,0.4,1,0.6,1.6,0.1C474.5,412.6,474.3,412.1,473.8,411.7z M497.8,345.3c0.5,0.7,1.4,1.2,1.9,0.3
		c0.9-1.6-0.6-2.7-1.5-3.6c-1-1-1.6-0.1-1.8,1C496.4,344,496.9,344.8,497.8,345.3z M491.8,386.2c1.1-0.3,1.8-0.7,1.4-1.4
		c-1-2-2.3-3.9-4.6-4.6c-0.6-0.2-1.3,0.5-1,1.2C488.5,383.6,490.1,385.1,491.8,386.2z M477.4,415.9c-0.6,0.2-1.2,0.5-1.1,1.2
		c0.1,1.5,1.3,2.1,2.6,2.4c0.2,0,1-1,0.9-1.4C479.5,417,478.6,416.2,477.4,415.9z M485.1,374.1c-0.3-0.4-0.7-1.3-1.4-1.7
		c-0.7-0.4-1.6,0.2-1.4,1.2c0.2,1.1,0.4,2.3,1.9,2.3C484.8,375.9,485.1,375.3,485.1,374.1z M480.5,419.3c-0.2,0.1-0.4,0.2-0.6,0.4
		c0.1,0.1,0.2,0.3,0.3,0.3c0.2-0.1,0.4-0.2,0.7-0.3C480.7,419.5,480.6,419.4,480.5,419.3z"/>
	<path class="st3" d="M812.7,563.2c3.4,0.1,4.8,3.6,8.1,4.3c7,1.5,13,0.5,17.8-4.7c8.3-8.9,17.8-15.5,29.1-20.3
		c17.3-7.4,21.7-23.4,12.8-42.1c-4.2-8.8-10.4-14-20.6-13.2c0.3-0.7,0.6-1.4,0.9-2c0,0-0.1,0.1-0.1,0.1c0.8,0,1.1-0.4,1.1-1.1
		l-0.1,0.1c3.3-2.1,3.8-5.5,4.4-9c4.3,0.4,8.3-1.9,12.8-0.5c17.6,5.6,27.8,18.5,33.8,35c2.8,7.8,1,16-1.1,23.9
		c-7.4,0.8-14.9,1.5-22.2,3.1c-11.4,2.5-21.3,7.7-29.4,16c-8.2,8.4-17.1,15.9-26.6,22.7c-4.2,3-7,6.8-8.8,11.8
		c-3.5,9.5-7.5,18.8-11.4,28.8c-2.6-7.1-6.9-12.8-11.7-18c-0.8-0.9-1.8-1.6-1.3-3c2.9-8.8,3.7-18.1,7-26.7c0.8-1.4,1.7-2.8,2.5-4.2
		c0.2,0.2,0.3,0.3,0.5,0.4c0.6,3.9-1.3,7.2-2.7,10.6C812.1,572.3,811.4,567.3,812.7,563.2z"/>
	<path class="st3" d="M792.5,913.2c-1.3,0-2-1.1-2.8-1.8c-5.7-5.3-10.9-5.9-16.7-0.7c-7.4,6.5-16,8.5-25.3,8.4
		c-18.5-0.3-36.7,1.4-55,3.6c-6.1,0.7-12.8-1.2-19-3.1c-13.2-4.2-26.5-6-40.2-3.3c-1.5,0.3-3,0.6-4.3,1.4c-11.1,7-22.1,3.6-32.8-0.8
		c-4.3-1.8-8.5-3.7-13-4.9c-6.1-1.7-13.3,1.3-15.5,6.7c-2.5,6.1,0,11.8,6.4,15.4c6.6,3.7,14.1,3.6,21,5.8c21.4,6.6,43.3,10,65.7,9.4
		c19.3-0.6,38.6-1.3,57.8-3.7c14.8-1.9,29.6-2.8,44.3-6.1c9.9-2.2,18.3-6.8,25.7-13.5c0.9-0.8,1.6-1.8,2.9-1.7
		c0.2,5.2-2.2,9.6-4.3,14.2c-1.1,2.3-3.3,2.5-5.4,2.9c-19.6,3.9-39.4,6.5-59.2,8.8c-19.5,2.2-39,5-58.7,5.3
		c-27.5,0.4-54.5-2.8-80.9-10.3c-14.5-4.1-21.3-12.2-22.2-24.8c1.7-1.2,0.9-3.1,1.1-4.6c0.8-5,2.9-8.9,8.3-9.9
		c4.1-0.7,8.2-1.1,12.3-1.4c4.1-0.3,7.2,1.3,8.8,5.1c0.9,2.1,2.5,3.4,4.5,4.4c11.3,5.5,22.8,6.9,34.4,0.7c5.8-3.1,12-4.3,18.7-4.5
		c9.3-0.2,18,2.5,26.8,4.7c7.5,1.9,14.5,5.8,22.7,3.6c4.3-1.2,8.6-2.3,12.8-4c12.4-5,25.4-4.2,38.4-4c11.8,0.2,21-5.9,30.4-11.7
		c1.3-0.1,2.6-0.2,3.9-0.4c2.4,1.7,5.3,2.2,8,3C793,905.1,792.9,909.1,792.5,913.2z"/>
	<path class="st2" d="M364.7,909.4c13.9-1.2,13.8-1.2,13.2,12.4c-0.3,6.8-3.5,12-8,16.7c-9.2,9.6-21.1,13.6-33.7,16
		c-24.3,4.7-48.7,4.9-72.9-0.5c-14.5-3.2-26.4-19.5-25.6-34c0.4-6.8,1.4-7.5,8.7-6.1c1.3,7.1,5.4,12.5,10.8,16.8
		c13.2,10.4,29.1,13.9,45.3,14.1c12.9,0.2,25.7-3.1,37.7-8C352.7,931.7,362.4,923.7,364.7,909.4z"/>
	<path class="st1" d="M727.8,548.1c0.8,6-0.8,11.4-4,16.4c-0.2,0.4-0.3,0.3-1.2-1.4c-1.2-3.6,3-5.7,2.7-9c-2,2.7-6,4.6-3.7,9
		c1.2,6.5-4.7,11.3-4.4,17.6c0,1-1,1-1.9,0.9c-6.9-1.1-13.7-2.3-20.6-3.4c-0.3-3.1-0.9-6.2-1-9.4c-0.1-13.1-0.2-26.3,0-39.4
		c0.1-7.5,2-14.8,4.8-21.7c4.7-11.5,18.1-14,27-5.3c1.2,1.1,2.1,2.7,4,2.8c0.5,3.6,1.1,7.3,1.6,10.9c-2.7,5.2-3.6,10.9-4.1,16.5
		C726.7,537.7,725.7,543,727.8,548.1z"/>
	<path class="st1" d="M933,330.1c-3.8-9.4-1.6-19.1-0.7-28.6c2.3-24,5.1-47.9,7.7-71.9c0.2-2.1,0.7-4.3,1.1-6.4
		c4.6,0.2,9.3-0.7,13.7,1.5c7.7,3.9,9.8,12.4,7.4,22.3c-4.4,18-8.1,35.9-7.6,54.6c0.1,5.7-0.5,11.6-0.9,17.4
		c-0.7,9.3-6.1,14.6-13.4,14.2C937.3,332.9,935.6,330.5,933,330.1z"/>
	<path class="st1" d="M566.7,870.1c0.9-13.1,3.8-25.9,6.8-38.6c4-16.9,6.8-34.1,8.4-51.4c4.4-3,9.2-2.2,13.9-1
		c2.2,8.9,0.3,17.9-0.3,26.7c-1.5,20.7-3.7,41.3-7.7,61.6c-0.4,2.2-1.3,4.4-1.9,6.6c-1.3-0.1-2.1,0.8-3,1.5
		c-5.8,4.2-10.7,3.1-14.4-3.2C568,871.6,567.3,870.9,566.7,870.1z"/>
	<path class="st2" d="M942,217.2c0.7-2.6,2.7-3.3,4.9-3.3c7.6,0.2,15.3,0.5,22.7,2.6c6.7,1.9,10.7,6.5,13.1,12.7
		c4.6,11.6,6,23.9,6.9,36.2c0.7,9,0.3,18-0.9,26.9c-2.4,18-11.5,32.1-24.8,43.7c-6.6,5.8-15.1,6.5-23.6,6.2
		c-3.1-0.1-4.6-2.3-5.3-5.1c2.6,0.4,5.2,0.8,7.8,1.3c10.9,2,22-5.8,23.9-16.9c1.3-1.6,1-3.5,1-5.3c0.1-6.5-0.1-13,0.5-19.5
		c1.9-20.1,4.7-40,10.2-59.4c0.9-3.3-0.1-4.8-3.7-4.3c-0.5-7.5-3.6-11.5-10.6-14C957,216.3,949.5,217.3,942,217.2z"/>
	<path class="st3" d="M364.7,909.4c-2.3,14.4-12,22.3-24.5,27.4c-12.1,4.9-24.9,8.1-37.7,8c-16.2-0.2-32-3.6-45.3-14.1
		c-5.4-4.3-9.5-9.7-10.8-16.8c5.8-1.3,11.6-0.8,17.4-0.8c0.4,4.6,2.7,8.1,6.7,10.4c4.3,2.6,9.1,5,13.8,5.3c17,0.9,34.2,1.6,50.6-4.3
		c6.7-2.4,11.8-6.7,13-14.3C353.4,909.2,359.1,909.2,364.7,909.4z"/>
	<path class="st2" d="M595.8,760.1c4.2-0.7,7.8-2.8,11.6-4.5c19.8-8.7,38-4.4,56.3,5.2c21.2,11.2,43.4,14.5,66.2,4.6
		c12.5-5.5,25.2-10.6,35.3-20.3c0.7-0.7,1.6-1.3,2.7-1.1c-1,5-3.8,9.6-4,14.8c-0.1,1.2-1.2,1.5-2.1,1.9c-5.5,2.8-10.4,6.2-17.2,7
		c-12.3,1.4-24,6.4-36.4,7.9c-11.1,1.3-22.1,2.7-33.2,3.1c-11.6,0.4-20.9-4.7-28.4-13.1c-7.8-8.6-10.6-9.4-21.3-5
		c-4.1,1.7-8.1,3.9-12.1,6c-4,2-7.9,4.2-12,6.5C599.7,768.4,599.4,763.6,595.8,760.1z"/>
	<path class="st2" d="M780,898.5c-9.4,5.8-18.5,11.9-30.4,11.7c-12.9-0.2-26-1.1-38.4,4c-4.2,1.7-8.5,2.8-12.8,4
		c-8.2,2.2-15.3-1.7-22.7-3.6c-8.8-2.2-17.5-4.9-26.8-4.7c-6.7,0.2-12.8,1.4-18.7,4.5c-11.6,6.2-23,4.8-34.4-0.7
		c-2-1-3.6-2.3-4.5-4.4c-1.7-3.8-4.7-5.5-8.8-5.1c-4.1,0.3-8.3,0.7-12.3,1.4c-5.4,1-7.5,5-8.3,9.9c-0.2,1.6,0.6,3.4-1.1,4.6
		c-4.8-13.7-5.2-27.9-4.9-42.3c3.1-0.1,4.3,1.1,4.3,4.1c0.1,4.8,0.5,9.7,2.1,14.3c2,5.9,5.5,7.5,11.2,5.2c4.1-1.7,7.4-4.4,9.9-8.1
		c1.1-1.6,2.1-3.2,3.7-5.6c2,5.1,4,9.4,5.5,13.9c1.6,5.1,4.9,8.3,9.9,9.5c11.6,2.8,22.8,3.1,34-2.4c9.3-4.6,19.6-6.5,29.6-2.7
		c15.4,5.9,30.3,6.1,45.4-0.9c9.2-4.2,18.9-4.9,28.7-2c9.2,2.7,17.7-1,26.5-2.5C771.1,899.9,775.6,899.2,780,898.5z"/>
	<path class="st2" d="M887.8,447.5c3.7-8.1,9.8-14.6,14.7-21.8c6.5-9.6,9.5-20.3,13.4-30.9c5.9-15.8,6.5-32.4,9-48.8
		c4.9,5.3,10.3,8.6,17.6,4.7c0.3,0.3,0.5,0.5,0.8,0.8c-8.9,32.4-17.9,64.7-38.5,92.2c-4.9,6.6-4.8,6.7-12.7,4.9
		C890.7,448.3,889.2,447.9,887.8,447.5z"/>
	<path class="st3" d="M966.8,321.5c-1.9,11.1-13,18.9-23.9,16.9c-2.6-0.5-5.2-0.9-7.8-1.3c-1.1-2.2-2.2-4.4-2.1-7
		c2.7,0.4,4.3,2.9,7.2,3c7.3,0.5,12.8-4.8,13.4-14.2c0.4-5.8,1.1-11.7,0.9-17.4c-0.5-18.7,3.2-36.6,7.6-54.6
		c2.4-9.9,0.3-18.4-7.4-22.3c-4.5-2.2-9.1-1.3-13.7-1.5c-0.4-2.1,0.3-4.1,1-6c7.4,0.1,14.9-0.8,22.2,1.8c6.9,2.5,10.1,6.6,10.6,14
		c-2.7,8.7-4.9,17.5-6.5,26.5c-3.3,18.7-5.6,37.5-5.3,56.6C963,318.6,962.3,322,966.8,321.5z"/>
	<path class="st1" d="M347.8,910.1c-1.1,7.7-6.3,11.9-13,14.3c-16.4,5.9-33.6,5.2-50.6,4.3c-4.7-0.3-9.5-2.7-13.8-5.3
		c-4-2.4-6.3-5.8-6.7-10.4c10.4-1.5,20.9-1,31.3-1.4C312.7,911,330.2,909.8,347.8,910.1z"/>
	<path class="st1" d="M493.8,504.1c-9.8-0.4-18.1-4.8-26.3-9.7c-1.1-0.7-1.6-1.5-1.7-2.8c-1.2-12.7-1.3-25.5-0.5-39.3
		c9.1,7.4,18.3,13.1,28.7,16.5C494,480.5,493.9,492.3,493.8,504.1z"/>
	<path class="st3" d="M775.8,646.7c1-3.6-3.1-5.4-3-8.7c2.6-3,5.7-5.8,7.1-9.7c0.9-0.5,1.3-1.2,1-2.2l-0.1,0c1.1,0.4,1.1-1,1.9-1.1
		c7,6.8,10.8,15.3,13,24.6c0.3,1.4-0.3,3.2,1.9,3.5c0,0.6,0.1,1.3,0.1,1.9c-1.6,4.3-1.5,8.7,0,13c0,1.7,0,3.3,0.1,5
		c-2.7,7.1-3.2,14.7-4.9,22c-1.1,4.5-1.8,9.2-1.1,14c-4.4,9.2-10.5,17.2-17,25c0,0,0.1,0.1,0.1,0.1c0.2-4.4,0.3-8.7,0.5-13.1
		c5.9-6.9,9.7-15.1,11.1-23.9c1.9-12.6,2.3-25.4-2.7-37.6c-1.6-4.1-2.8-8.5-6.4-11.5C776.8,647.7,776.3,647.2,775.8,646.7z"/>
	<path class="st2" d="M911.7,533.6c2.1-7.9,3.9-16.1,1.1-23.9c-5.9-16.6-16.1-29.5-33.8-35c-4.4-1.4-8.5,0.9-12.8,0.5
		c-0.1-1.7-0.3-3.4-0.4-5.1c10.7,1.4,21,4.6,31.6,6.7c8.1,1.6,13.7,5.9,18.7,11.8c9.3,11,16.2,23,17.6,37.7c0.8,8-0.1,9.2-8.1,8.7
		C920.9,534.8,916.3,534.1,911.7,533.6z"/>
	<path class="st2" d="M665.9,485.2c-0.5-3.9,1.1-5.4,5.1-4.9c4.4,0.5,9,0.5,13.4,0.6c2.4,0,4,0.2,2.6,3.3
		c-8.6,19.3-8,40.2-10.3,60.5c-1.1,9.7-2.6,19.4-3.9,29.1c-0.2,1.7-0.8,2.8-2.7,2.7c-5.1-0.3-10.3,0.6-15.4-0.4
		c0-2.8,2.5-3.8,4.1-5.3c3.5-3.4,5.1-7.6,6-12.3c3.4-19.2,5.6-38.6,7.8-58C673.3,494.1,670.6,487.4,665.9,485.2z"/>
	<path class="st3" d="M729.6,505.2c-1.9-0.1-2.8-1.7-4-2.8c-8.9-8.6-22.2-6.2-27,5.3c-2.8,6.9-4.7,14.2-4.8,21.7
		c-0.2,13.1-0.1,26.3,0,39.4c0,3.1,0.6,6.2,1,9.4c-3.4,0.1-6.7-0.2-10-1c-0.5-6.9,0.2-13.6,2-20.2c1.4-5,3-10,2.8-15.1
		c-0.6-14,1.8-27.8,3.3-41.6c1-10.1,7.5-17.5,18-16.2c2.1,0.3,4.3,0.1,6.5,0.1c6,0.1,10.9,2.6,14.7,7.2c0.1,1-1.4,1.8-0.2,2.9
		l0.1-0.1C728.2,497.2,730.6,501.5,729.6,505.2z"/>
	<path class="st1" d="M499.8,536.3c-9,0.7-17.4-1.9-25.6-5.2c-1.5-0.6-2.6-1.4-2.9-3.1c-1.9-10.1-4.2-20.2-4.7-31.4
		c9.2,6.2,19,9.2,29.2,10.8C498.5,516.9,498.4,526.7,499.8,536.3z"/>
	<path class="st2" d="M550.9,548.4c-2.5,2.7-4.6,2.3-6.9-0.4c-5.2-6.1-10.2-12.2-12.4-20.2c-1.7-6.1-1.4-11.7,2.7-16.9
		c6.3-8,10.3-17.4,16-25.8c3-4.3,6.4-7.9,11.5-9.8c6.5-2.4,6.8-2.3,7,4.8c-2.6,0-3.8,2.1-5,3.7c-7.4,9.1-13.1,19.2-17.2,30.1
		c-4,10.5-4,20.8,3.1,30.3C550.5,545.5,551.1,546.8,550.9,548.4z"/>
	<path class="st2" d="M732,491.3c-3.8-4.7-8.6-7.2-14.7-7.2c-2.2,0-4.4,0.2-6.5-0.1c-10.5-1.3-17,6.1-18,16.2
		c-1.4,13.9-3.9,27.6-3.3,41.6c0.2,5.1-1.4,10.2-2.8,15.1c-1.8,6.6-2.5,13.4-2,20.2c-1.5,0-3-0.1-4.5-0.1c-2.4,0.1-2.9-1.2-2.5-3.1
		c4.4-23.2,4.5-47,8.1-70.3c1.1-7.1,4-13.7,6.6-20.3c0.7-1.8,1.8-2.5,3.7-2.6c12.3-0.6,24.6-1,36.8-2.5c1.8-0.2,3,0.3,2.8,2.4
		c-0.3,2.7,0.6,5.7-1.3,8.2c-0.6,0.3-0.9,0.8-0.7,1.5c0,0,0.1-0.1,0.1-0.1C733.3,490.5,732.7,490.9,732,491.3z"/>
	<path class="st2" d="M627.1,593.2c0.4-1.4,0.7-2.7,1.1-4.1c0.2-0.6,0.5-1.2,0.7-1.9c0.4-0.7,0.7-1.4,1.1-2.1
		c0.4-0.6,0.8-1.2,1.2-1.8c1.1-0.4,2.1-1,3.2-1.1c26.9-1.7,53.7-0.8,80.4,4c4.3,0.8,3.8,3.8,4.2,6.7c-6.1-1.2-12.2-1.1-18.3-0.9
		c-12.4,0.4-24.8,1.2-37.2,0.2C651.3,591.3,639.2,593,627.1,593.2z"/>
	<path class="st3" d="M527.1,372.1c2.4,0.5,2,2.8,2.6,4.4c6.2,16,12.7,31.7,23.7,45.3c8.3,10.2,19,16.4,30.7,21.4
		c2.8,1.2,6.2,1.5,7.8,4.7c-7-1-14.1-1.8-21.1-3c-6.6-1.1-13.2-1.4-19.7,0.4c-1.8,0.5-2.7,0.8-3.5-1.6c-7.6-23.3-15-46.7-20.6-70.6
		C526.9,372.7,527,372.4,527.1,372.1z"/>
	<path class="st3" d="M627.1,593.2c12.1-0.2,24.2-1.9,36.3-0.9c12.4,1,24.8,0.2,37.2-0.2c6.1-0.2,12.3-0.3,18.3,0.9
		c1.6,4.3,2.9,8.6,3.8,13.1c-9.5-1.1-19-2.3-28.5-3.4c-6.6-0.8-13.1-2.2-19.7-2.1c-13.9,0.2-27.5-4.6-41.4-1.6
		c-3.1,0.7-6.1,1.4-8.8,3.1c0.5-1.1,0.9-2.2,0.5-3.4C625.5,596.9,626.3,595.1,627.1,593.2z"/>
	<path class="st3" d="M503.7,351.6c-1.3-0.9-1.3-2-0.9-3.4c2.1-6.8,0.1-12.4-5-17.1c1.2-3,3.2-5.4,5-8c1.5,0.1,1.8,1.1,2,2.3
		c1.7,10.7,4.7,21,8.3,31.2c0.4,1.2,1.4,2.5-0.3,3.5c-1.6-0.8-2.1-3.2-4.4-3.2c-0.1-0.8-0.5-1.5-1.4-1.2c-0.8,0.2-0.6,0.9-0.5,1.5
		c1.9,2.9,4.3,5.3,7.1,7.2c0.7,1,1.4,1.9,2.1,2.9c0.3,2.4-0.5,4.6-1,6.8c-1.7,7.7-6,14.8-5.9,23c-0.5-0.2-0.9-0.3-1.4-0.5
		c-1-0.3-1.9-1.9-2.9-0.7c-1.3,1.6,0.9,2,1.5,2.9c0.3,0.4,0.7,0.7,1,1.1c-2.4,10.4-4.9,20.8-4.1,31.7c-2.6-0.7-5-1.7-7.2-3.3
		c2-1.7,1.8-4.4,1.8-6.5c0.1-9.3,1.5-18.4,2.3-27.6c0.7,0.4,1.4,0.8,2.1,1.2c0.6,0.8,1.3,1.7,2.3,0.8c1.1-0.9,0.4-1.7-0.6-2.2
		c-1.3-1.2-2.5-2.3-3.8-3.5c1-7.2,2-14.3,3-21.5c0.7-4.6,1.1-9.2,1-13.9c1-0.1,2.6,1.1,2.7-0.6C506.6,353.2,505.9,351.4,503.7,351.6
		z"/>
	<path class="st2" d="M430.8,907.1c8.5-0.9,17.1-1.1,26.3-0.9c-2.5,4.3-6,6.5-9.9,8.2c-3.8,1.6-7.7,3.1-11.6,4.5
		c-3.8,1.4-6.5,3.9-8.4,7.4c-1.2,2.2-3,3.9-5.6,3.2c-13.6-3.4-26.2,1.4-39.1,4.3c-0.6,0.1-1.3,0.2-2.4,0.3c1-3.5,1.9-6.7,2.8-10
		c6.2-1.3,11.9-5.2,18.8-3.8c8.6,1.8,16.4-0.9,23.5-5.5C427.9,913.1,431,911.2,430.8,907.1z"/>
	<path class="st2" d="M502.9,431.6c-0.7-10.8,1.7-21.3,4.1-31.7c6,3.5,12.3,6.5,19.1,8.4c2.5,0.7,3,1.9,2.5,4.4
		c-1.6,7.1-3.2,14.3-4.4,21.5c-0.4,2.5-1.2,3.5-3.8,3C514.4,435.7,508.3,434.7,502.9,431.6z"/>
	<path class="st2" d="M502.9,435.1c5.7,1.5,11.3,3.7,17.3,4.5c2.1,0.3,3.1,1.1,3,3.6c-0.3,8-0.4,15.9-0.3,23.9c0,2.7-0.6,4-3.6,3.9
		c-5.1-0.2-10.2-0.2-15-2.5C503.5,457.3,502,446.2,502.9,435.1z"/>
	<path class="st1" d="M503.7,556.1c-2.9,7.6-3.2,7.8-11.2,6.8c-4.2-0.5-8-2.2-11.8-3.8c-1-0.4-1.8-0.9-2.1-1.9
		c-2.1-7.8-4.1-15.5-6.4-24.3c9.8,4.4,19.1,6.1,28.6,6.4C501.2,545,502.4,550.6,503.7,556.1z"/>
	<path class="st1" d="M937.1,346.8c-5.4,0.3-11.1-5.3-12.2-12c-2.1-12.6-1.9-25.3-0.6-37.9c2.4-23.7,4.5-47.4,5.6-71.2
		c0.2-5.2,2.3-9.7,5.6-13.5c1.4-1.6,3-3,6.4-2.2c-5,3.1-5.5,7.8-6,12.3c-3.2,30.3-6.4,60.6-9.5,90.8c-0.9,8.8,0.7,17.2,3.9,25.4
		C931.6,342.1,933.5,345.1,937.1,346.8z"/>
	<path class="st2" d="M504.8,472.2c5.1,0.2,10.2,1.5,15.3,1c2.4-0.2,2.7,1.1,2.7,3.1c0,8.2,0.2,16.3,1.9,24.3c0.4,2-0.2,3.1-2.3,3.5
		c-5.5,1.3-11,2.6-16.7,1.7C505.9,494.6,506.7,483.3,504.8,472.2z"/>
	<path class="st3" d="M769.1,632.2c-5.2-3.6-8.3-9.2-13.5-12.9c-7-5-14.1-9.2-22.8-10.1c-0.8-4-2-8,0.1-11.9
		c8.4,0.6,15.2,5.2,22.3,8.9c4.4,2.2,8.3,5.4,13.4,6c0.4,0.7,0.8,1.4,1.2,2c0.1,0.4,0.2,0.7,0.3,1.1c0.4,1.2-1,3,1.1,3.7
		c0,0,0,0.1,0,0.1c-2.9,0.8-2.9,4.1-4.9,5.6c1.8,0.1,2.4,2.5,4.4,2.2l0,0.3l0.3,0C770.8,629,770.5,630.8,769.1,632.2z"/>
	<path class="st2" d="M796.7,600.3c19.5,14.9,12.8,33.1,6,51.4c-0.9-5.4-1.7-10.9-2.8-16.3c-1.7-8.3-4.4-16.4-8.4-23.9
		c-0.8-1.6-1.1-2.9,0.2-4.5C793.7,604.6,795.3,602.2,796.7,600.3z M797.8,605.2c-0.1-0.3-0.2-0.6-0.3-0.8c-0.2,0.2-0.5,0.3-0.5,0.5
		c0,0.3,0.2,0.6,0.3,0.8C797.4,605.5,797.6,605.4,797.8,605.2z"/>
	<path class="st3" d="M550.9,548.4c0.2-1.6-0.3-2.9-1.3-4.2c-7.1-9.5-7.1-19.8-3.1-30.3c4.2-10.9,9.8-21.1,17.2-30.1
		c1.3-1.6,2.5-3.7,5-3.7c0,2.7,0,5.3,0,8c-2.6,0.7-5.5,1-6.7,3.7c-4.8,10.4-8.4,21.2-12,32.1c-1,3,0.4,6,3.2,7.7
		c3,1.8,6,1.7,8.6-0.9c0.8-0.8,1.6-1.7,3-1.6c0.2,0.3,0.4,0.7,0.6,1C560.8,536.4,557.3,543.6,550.9,548.4z"/>
	<path class="st2" d="M508.8,397.1c-0.1-8.2,4.2-15.3,5.9-23c0.5-2.3,1.3-4.5,1-6.8c4.1,1.9,6.1,5.1,7.1,9.4
		c2,8.6,4.4,17.1,6.7,25.6c1,3.5,0,4.8-3.6,3.4C520.1,403.3,513.6,401.9,508.8,397.1z"/>
	<path class="st3" d="M665.9,485.2c4.6,2.2,7.4,9,6.7,15.2c-2.2,19.4-4.4,38.8-7.8,58c-0.8,4.7-2.5,8.9-6,12.3
		c-1.6,1.6-4,2.6-4.1,5.3c-4.3,1.3-8.8,0.8-13.2,1.1c-1.6,0.1-2.4-0.4-2.5-2c0,0-0.3,0-0.3,0l0,0c0.4,0,0.7,0,1.1,0.1
		c0-0.4,0-0.7,0-1.1l0,0c2.8-0.1,2.3-3,3.6-4.4c4.6,2.4,6.9,1.9,10.1-3.3c5.5-9.1,10.5-18.4,11.5-29.3c1.2-12.5,4.5-24.7,3.8-37.4
		c-0.1-2.2,0.6-4.9-2.8-5.5C665.4,491.2,665.4,488.2,665.9,485.2z"/>
	<path class="st1" d="M564.8,529.1c-1.3-0.1-2.1,0.7-3,1.6c-2.6,2.7-5.6,2.8-8.6,0.9c-2.9-1.7-4.2-4.8-3.2-7.7
		c3.6-10.8,7.2-21.7,12-32.1c1.3-2.7,4.2-3,6.7-3.7c0,1.3,0,2.7-0.1,4l0.2-0.1c-1.1-0.4-1.1,0.3-1.1,1.1c0,0,0.1-0.1,0.1-0.1
		c-4.2,3.1-5,7.1-3.1,11.8c1.3,3.3,2.9,6.5,2,10.2l0,0c-2.4,0.7-2.4,3-2.5,4.7C564.1,522.8,564.6,526,564.8,529.1z"/>
	<path class="st2" d="M797.1,897.4c3.8,0.7,7.2,1.4,10.6,1.8c2,0.2,2.4,1.2,2.5,2.9c0.3,9.6-0.9,18.9-4.6,27.8
		c-2.3,5.6-5,7.2-12.5,8.3C799.4,924.8,797.7,911.1,797.1,897.4z"/>
	<path class="st1" d="M666.1,494.2c3.3,0.6,2.6,3.3,2.8,5.5c0.8,12.7-2.6,24.9-3.8,37.4c-1,11-6,20.3-11.5,29.3
		c-3.2,5.2-5.5,5.7-10.1,3.3c1.1-3.6,2.2-7.1,3.3-10.7c0.7-1,1.4-2,2-3.1c7.7-6.6,12.5-14.5,11.6-25c0.3-5,0.5-10.1,2.5-14.9
		c3,0.1,1.6,2.5,1.5,3.7c-0.3,3-1,6-1.5,9c0.9-0.1,1.3-0.5,1.4-0.9c2.6-9.4,1.8-19,2-28.6c0-0.1-0.3-0.2-0.4-0.3
		c-0.1-0.7-0.1-1.3-0.2-2c0.1-0.3,0.1-0.6,0-1C665.8,495.4,666,494.8,666.1,494.2z"/>
	<path class="st3" d="M504.8,472.2c1.9,11.2,1.1,22.4,0.9,33.6c-4-0.4-8-0.3-11.9-1.7c0.1-11.8,0.1-23.6,0.2-35.3
		C497.7,469.6,501.4,470.4,504.8,472.2z"/>
	<path class="st2" d="M506.7,508.6c5.6-0.3,11.2-0.4,16.7-2.1c2.9-0.9,4.8,2.6,4.1,6.3c-1.5,7.4-5.1,13.8-9.5,19.8
		c-1.9,2.6-3.9,3.9-7,3.6C510.5,526.9,508.3,517.8,506.7,508.6z"/>
	<path class="st2" d="M558.1,747c5.7,5.4,10.7,11.7,18.6,14.1c-1.3,5.2,0.8,10.5-0.3,16.1c-5.7-2.1-11.2-4.2-16.7-6.3
		c-1.6-0.6-1.2-2.2-1.3-3.5C557.9,760.6,557.7,753.8,558.1,747z"/>
	<path class="st1" d="M383.1,917c-0.6-2.7,0.1-5.6-1.2-8.8c16.4,0.3,32.1-1.7,47.9-1c-4.2,5.1-9.6,8-16.3,7.8
		c-9.8-0.3-19.7-1.4-29.3,1.9C383.8,917,383.5,917,383.1,917z"/>
	<path class="st3" d="M506.7,508.6c1.6,9.2,3.9,18.2,4.2,27.6c-3.7,0.8-7.4,0.8-11.1,0.1c-1.4-9.6-1.3-19.4-4.1-28.8
		C499.4,507.9,503,508.2,506.7,508.6z"/>
	<path class="st2" d="M768.7,612.1c-5.1-0.7-9.1-3.8-13.4-6c-7.2-3.7-13.9-8.3-22.3-8.9c0.1-1.3,0.2-2.6,0.3-3.9
		c0.1-2.6,1.2-3.9,4-3.2c5.5,1.5,11.5,0.4,16.8,2.9c0.4,0.7,0.5,1.9,1.8,1.1l0,0c-0.7,1.2,0,1.7,1,2.1l0,0c0.1,1.3,0.4,2.3,2,2l0,0
		c-0.2,0.9,0,1.4,1,1l0,0c-0.3,1,0,1.4,1,1l0,0c-0.3,1,0.1,1.3,1,1l0,0c-0.3,1,0.2,1.2,1,1l0,0c-0.3,0.8,0.2,1.1,0.8,1.3
		c0.9,0.7,1.8,1.2,2.8,0.2c0,0,0,0,0,0c-0.7-0.3-1.4-0.3-1.6,0.5c-0.3,1.4,0.7,2.1,1.8,2.6c0.9,1.8,1.8,3.7,2.7,5.5l-0.4,0.1
		L768.7,612.1z"/>
	<path class="st2" d="M512.8,360.1c1.7-1,0.7-2.3,0.3-3.5c-3.6-10.2-6.6-20.5-8.3-31.2c-0.2-1.3-0.5-2.3-2-2.3
		c0.9-2.2,2.5-3.9,4-5.6c6.5,7.3,12.8,30.8,12.9,48.3c-2.5-0.4-3.6-2.8-5.6-3.7C513.7,361.5,513.2,360.8,512.8,360.1z"/>
	<path class="st3" d="M502.9,435.1c-0.8,11.2,0.7,22.2,1.4,33.3c-3.4,0-6.5-1.3-9.5-2.6c-0.5-11.4,0.9-22.7,1.3-34.1
		C498.5,432.6,500.8,433.5,502.9,435.1z"/>
	<path class="st3" d="M383.1,917c0.3,0,0.7,0,1-0.1c9.6-3.3,19.5-2.2,29.3-1.9c6.8,0.2,12.1-2.6,16.3-7.8c0.4-0.1,0.7-0.1,1.1-0.2
		c0.2,4-3,5.9-5.6,7.6c-7.1,4.6-14.9,7.3-23.5,5.5c-6.8-1.4-12.5,2.5-18.8,3.8C383,921.7,383.1,919.4,383.1,917z"/>
	<path class="st1" d="M490.6,585.6c-6.2-7-8.2-15.1-10.8-24.1c6.5,2.7,12.4,4.5,19.6,3.7C496.3,572.2,493.6,578.7,490.6,585.6z"/>
	<path class="st3" d="M558.9,449.2c-2.3,6.2-0.7,11.6,3,16.7c-3.5,1.3-7.1,1.8-10.9,1.6c-3.2-1.7-4.9-4.1-5.7-7.8
		c-0.7-3.1,1.5-5,1.6-7.5C550.7,450.5,554.5,448.8,558.9,449.2z"/>
	<path class="st3" d="M566.7,870.1c0.6,0.8,1.2,1.5,1.7,2.3c3.7,6.2,8.6,7.3,14.4,3.2c0.9-0.7,1.7-1.6,3-1.5c-0.9,3.8-1.5,7.8-4,11
		c-3.7,0.9-6.9,4.3-11.4,1.5c-2.7-1.7-2.9-4.6-4.8-6.5C565.6,876.7,565.3,873.3,566.7,870.1z"/>
	<path class="st2" d="M791.8,709.1c-0.7-4.7,0-9.4,1.1-14c1.8-7.3,2.2-14.9,4.9-22c1.4,5,2.9,10.1,4.1,15.1c0.3,1.2,0.2,2.8-0.3,3.9
		C798.7,698,795.9,703.9,791.8,709.1z"/>
	<path class="st3" d="M603.7,605.1c0,1.2-0.1,2.4-0.1,3.7c-0.6,1.1-1.2,2.2-1.8,3.3c-3.3-0.4-5.5,2.3-8.5,3
		c-0.6-6-1.8-11.9-1.2-17.9c3,0.3,5.3-1.8,8.1-2.5C601.6,598.1,601.7,602,603.7,605.1z"/>
	<path class="st2" d="M797.6,653.2c-2.2-0.3-1.6-2.2-1.9-3.5c-2.2-9.4-6-17.9-13-24.6c0.4-1,0.7-2,1.1-2.9l0,0c0.7,0,1-0.4,1-1l0,0
		c0.7,0,1-0.4,1-1l0,0c0.7,0,1.1-0.3,1-1l0,0c1,0.3,1.6-0.2,2-1c0.5,0.4,1.2,0.7,1.5,1.2C794.9,630.1,797.9,641.3,797.6,653.2z"/>
	<path class="st2" d="M900.7,456.3c4.1,0.1,7.8,1.6,10.8,4.3c2.4,2.2,4.5,4.9,2.6,8.3c-1.9,3.3-4.8,5.7-8.9,5
		c-2.9-0.5-5.9-0.8-8.4-2.7c0.8-1.5,2.3-1,3.5-1.3c4.2-1.3,6.1-5.3,4.2-9.2C903.7,458.8,901.2,458.5,900.7,456.3z"/>
	<path class="st3" d="M749.9,587.2c-3.6-0.4-7.2-0.8-10.9-1.1c-4.1-0.3-6.2-1.7-4.3-6.1c0.5-1.2,0.9-2.5,1.4-3.7
		c3.5-0.9,7-1.4,10.6-1.1c1.2,1.5,0,3.9,2.1,5l-0.1-0.1c-0.3,1.3-0.9,2.6,1.1,3.1l-0.1-0.1C748.6,584.5,750.3,585.8,749.9,587.2z"/>
	<path class="st2" d="M565.6,880.1c1.9,1.9,2.1,4.8,4.8,6.5c4.5,2.8,7.7-0.5,11.4-1.5c-1.4,5.1-4.6,8.7-9.1,11.2
		c-3.1,1.7-5.5,1.4-6.1-2.6C565.9,889.2,564.2,884.8,565.6,880.1z"/>
	<path class="st5" d="M809.7,564c-0.8,1.4-1.7,2.8-2.5,4.2c-3-3.7,0.7-6.8,0.9-10.1c2.3-0.1,2.9-2,3.2-3.6c0.7-3,0.7-6.1,0.3-9.2
		c0.7-0.1,1.3-0.1,2-0.2c0.2,0.5,0.8,1.5,0.9,1.3c1.7-6.1,4.7-11.8,5.3-18.2c0.6,0.3,1.3,0.6,1.9,0.9c-2.3,7.4-4.5,14.8-7,22.1
		c-1.4,4-2.2,7.9-2,12.1c-1.3,4.1-0.6,9.1-5.2,11.9c1.4-3.4,3.3-6.7,2.7-10.6c0.4-0.7,0.7-1.3,0.1-2
		C810.1,562.9,809.9,563.5,809.7,564z"/>
	<path class="st2" d="M546.8,452.1c-0.1,2.6-2.3,4.4-1.6,7.5c0.8,3.7,2.6,6.1,5.7,7.8c-3.5,0.6-6.9-0.1-10.1-1.4
		c-2.8-1.1-4.6-3.4-5-6.3c-0.3-2.8,2.2-3.9,4.1-5C542.2,453.5,544.1,451.8,546.8,452.1z"/>
	<path class="st2" d="M746.8,575.1c-3.6-0.3-7.2,0.2-10.6,1.1c5.5-9.1,11-18.1,16.6-27.3c2.1,1.7-0.6,2.8,0,4.1
		c-1.2,1.5-2.7,2.8-2,5.1l0,0c-2.4,0.4-2.2,2.7-2.8,4.2C746.6,566.4,746.7,570.8,746.8,575.1z"/>
	<path class="st3" d="M503.7,556.1c-1.2-5.5-2.4-11.1-2.9-16.7c3.8,0,7.6,0,12.4,0C509.9,545.1,506.8,550.6,503.7,556.1z"/>
	<path class="st3" d="M900.7,456.3c0.4,2.2,2.9,2.5,3.8,4.3c1.8,3.8,0,7.9-4.2,9.2c-1.2,0.4-2.7-0.1-3.5,1.3c-1.6-0.6-3.6,0.8-5-0.9
		c1.4-1.6,2.9-3.2,4.1-4.9c2.3-3.1,1.6-6.6,0.8-10C898.2,455.1,899.5,455.7,900.7,456.3z"/>
	<path class="st3" d="M595.8,779.1c-4.7-1.2-9.5-2-13.9,1c-0.5-3,0-5.9,0.3-8.9c4.2-1.6,8.4-1.1,12.6-0.1
		C595.9,773.7,596.2,776.4,595.8,779.1z"/>
	<path class="st2" d="M594.8,771.1c-4.2-1-8.4-1.5-12.6,0.1c-0.9-2.9-2.4-6.2,0-8.5c2.1-2.1,5.4-1.2,8-0.1
		C593.9,764.2,595.3,767.2,594.8,771.1z"/>
	<path class="st1" d="M593.3,615.2c2.9-0.7,5.1-3.4,8.5-3c-0.6,3.8-3.1,7.1-2.8,11c-0.6,3-0.1,6.1-0.4,9.3c-2.6-3.2-5.5-6-5.8-10.3
		c0-0.3,0-0.7,0.1-1c0-1,0-2,0.1-3C593,617.1,593.2,616.1,593.3,615.2z"/>
	<path class="st3" d="M727.8,548.1c-2.2-5.1-1.2-10.4-0.7-15.5c0.5-5.6,1.4-11.3,4.1-16.5c1,0.3-0.1,2.4,1.7,2.1
		c0,0-0.1-0.1-0.1-0.1c0,2.7,0,5.4,0,8.1l0.1-0.1c-1.7,0.6-1.8,1.7-1,3.1l0-0.1c-2.4,1.9-1.9,4.6-1.9,7.1
		C729.2,540.1,730.6,544.5,727.8,548.1z"/>
	<path class="st2" d="M600.2,594.7c-2.7,0.7-5,2.8-8.1,2.5c-0.8-4.4,0.5-8.7,0.9-13c6.3-1.3,6.3-1.3,7,5.8
		C600.1,591.6,600.1,593.2,600.2,594.7z"/>
	<path class="st3" d="M568,551.3c1.9-0.2,1.7,0.5,1.2,1.9c-1.4,4-3.8,7.6-4.4,11.9l0.1-0.1c-0.6,0.6-1.2,1.3-1.8,1.9
		c-1.4-4.2-6.2-6.4-6.5-11.2c2,0.2,4.2,1.2,5.3-1.6l0,0c2,0.8,3,0.1,3-2l0,0C566.2,553.2,567.1,552,568,551.3z"/>
	<path class="st3" d="M734.4,490.7c0.4,0.2,1.1,0.4,1.1,0.6c-1.5,9.2-0.2,18.5-0.8,27.8c-0.7-0.2-0.9-1.4-1.9-1c0,0,0.1,0.1,0.1,0.1
		c-0.3-8-2.8-16-1-24.1c0,0-0.1,0.1-0.1,0.1c1.4-1,3.1-1.8,2.1-4c0,0-0.1,0.1-0.1,0.1C733.9,490.5,734.1,490.7,734.4,490.7z"/>
	<path class="st4" d="M665.9,499c0.1,0.1,0.4,0.2,0.4,0.3c-0.2,9.6,0.6,19.2-2,28.6c-0.1,0.4-0.5,0.8-1.4,0.9c0.5-3,1.3-6,1.5-9
		c0.1-1.2,1.5-3.5-1.5-3.7c-0.3-0.4-0.6-0.8-1-1.3c3.2-3.5,1.6-7,0-10.5c0-2.2-0.4-4.4,0.1-6.4c0.3-1.4,0.9-4.5,3.7-1.8
		c0.2,0.3,0.2,0.6,0,1c-3.7,2.7-1.4,5.9-1.7,10C667,503.8,664.8,501.2,665.9,499z"/>
	<path class="st3" d="M835.7,511.1c7.7-6,14.6-12.9,20.4-20.8c0.9,0.9,0.5,1.9,0.3,2.8c-1.1,2.4-2.3,4.7-3.4,7.1
		c0,0,0.1-0.1,0.1-0.1c-1.1,0.3-2,0.7-1,2c0,0,0,0,0,0c-0.4-0.1-0.6-0.6-1.1-0.1c-0.5,0.5,0.1,0.8,0.1,1.1c0,0,0,0,0,0
		c-1.3-1-1.7,0-2,1c0,0,0.1-0.1,0.1-0.1c-0.7,0-1.2,0.2-1,1.1c0,0,0,0,0,0c-1.9,0.3-3.5,1-4,3l0,0c-1.7-0.3-2.6,0.5-3,2
		c0,0,0.1-0.1,0.1-0.1C839,509.5,837.7,512.5,835.7,511.1z"/>
	<path class="st1" d="M568.7,492.2c1.3,1.1,2.1,0.9,2.5-0.8c0.5,0,1-0.1,1.5-0.1c0.4,0.7-0.4,2,1.1,2l-0.2,0c-1,1.5,1.4,3.5-0.6,4.9
		c-3.6,0.9-1.5,3.8-2.2,5.8c-1.1,0.7-1.4,1.5-0.2,2.4c-0.6,0.5-1.7,0.6-1.5,1.7c-0.2,0.2-0.3,0.5-0.3,0.8c-3.1-4.6-4.8-9.4-0.7-14.4
		c0.5-0.6,0.6-1.1-0.2-1.6c0,0-0.1,0.1-0.1,0.1c0.4,0,0.7,0,1.1,0.1c0-0.4,0-0.8,0-1.1L568.7,492.2z M571.3,493.2
		c-0.1,0.1-0.3,0.2-0.4,0.3c0,0.1,0.2,0.3,0.3,0.4c0.1-0.1,0.3-0.2,0.4-0.3C571.6,493.4,571.4,493.3,571.3,493.2z"/>
	<path class="st2" d="M556.5,555.7c0.3,4.8,5.2,7,6.5,11.2c0,1.5-0.1,3-1.8,4.1c-3.8-6-7.8-11.8-12.5-17.2c2.1-1.4,3.5,0.2,5,0.4
		C554.3,555.4,555.7,555,556.5,555.7z"/>
	<path class="st3" d="M519,327.1c3.3,2.8,2.2,6.9,3,10.4c1.5,7.1,2.5,14.3,3.7,21.5c0.1,0.9-0.1,1.6-0.9,2.2
		C521.9,349.9,519.9,338.6,519,327.1z"/>
	<path class="st3" d="M599.5,562.6c0,4.9-0.2,8.9,0,12.9c0.2,3.5-2.2,4-4.5,3.6c-2.4-0.5-0.9-2.6-0.6-4
		C595.4,571,596.7,566.9,599.5,562.6z"/>
	<path class="st3" d="M637.6,576c-1.7,1.2-3.4,2-5.7,0.9c4.2-5.8,8.3-11.5,12.4-17.2c-0.3,5.2-3.4,9.5-4.5,14.5l0,0
		c-0.9-0.3-1.1,0.3-1,1c0,0,0,0,0,0C638.1,574.9,637.8,575.3,637.6,576z"/>
	<path class="st5" d="M660.4,531c0.9,10.5-3.9,18.4-11.6,25c-2.2-2.5,2.1-3.8,1.2-6.1c5.4-0.9,9.9-10,7.9-15.9
		C657.8,532.3,658.7,531.4,660.4,531z"/>
	<path class="st2" d="M572.9,488.2c0.4-4.6-0.8-9.3,1.2-13.8c4,9.1,3.8,14.8-0.5,18.9c0,0,0.2,0,0.2,0c-0.2-1.8,0.5-3.7-1-5.2
		L572.9,488.2z"/>
	<path class="st4" d="M593,584.2c-0.4,4.3-1.7,8.6-0.9,13c-0.6,6,0.6,12,1.2,17.9c-0.1,1-0.3,2-0.4,2.9c-2.4,0.3-3.3-0.9-3-3.2
		c1.6-1.6,1.2-3.6,1.1-5.5c-0.1-4.9-0.3-9.9-0.5-14.8c0.1-3.3,0.2-6.5,0.3-9.8C591.5,584.6,592.3,584.4,593,584.2z"/>
	<path class="st3" d="M570.9,618.2c3.1,4.5,6.4,9,9.4,13.5c0.8,1.2-0.8,1-1.4,1.3c-0.9-0.7-1.8-1.3-3-1c0,0,0.1,0,0.1,0
		c-0.3-1.1-0.7-2-2.1-1c0,0,0.1,0.1,0.1,0.1c1-1.3,0.2-1.8-1-2.1c0,0,0,0.1,0,0.1C572.3,625.5,570.5,622.1,570.9,618.2z"/>
	<path class="st3" d="M570.8,504c0.6-2-1.4-4.9,2.2-5.8c0,0.5-0.2,1.2,0,1.4c6,7.3,0.4,13.3-2.2,19.6c0.7-4,1.6-8,2.1-12.1
		C573.1,505.9,574.3,503.1,570.8,504z"/>
	<path class="st3" d="M751.6,576.2c1.6,3.8,3.1,7.5,4.7,11.3c-1.7,0.8-3,0.2-4.4-0.4c-0.6-1.4-0.4-3.2-2.1-4l0.1,0.1
		c0.3-1.3,0.4-2.5-1.1-3.1c0,0,0.1,0.1,0.1,0.1c0-1.3,0.1-2.6,0.1-4C749.9,576.2,750.7,576.2,751.6,576.2z"/>
	<path class="st2" d="M859,478.2c-1.6-6.3-0.3-8.9,4.6-8.9c0.7,2.5,0.8,5,0.5,7.6C862.3,477.2,860.9,478.5,859,478.2z"/>
	<path class="st3" d="M555.8,553.9c-0.2-0.3-0.4-0.6-0.7-0.9c0.2-0.1,0.2-0.3,0.1-0.5c6.6,0.2,11.1-4.5,16.7-6.9c-1,3.5-1,3.5-5,4.8
		c-1,0.3-2.1,0.4-2.1,1.8c0,0,0,0,0,0c-1.5-0.1-2.6,0.4-3,2l0,0C559.8,554,557.8,554,555.8,553.9z"/>
	<path class="st3" d="M569,521.2c-0.7,1.9-0.5,4.2-2.1,5.8c-1.5-4-1.2-7.9-0.1-11.9c0,0,0,0,0,0c2-1,2.1-3.2,3-5
		c0.2-0.1,0.4-0.3,0.7-0.4c0.1,0,0.3,0.2,0.3,0.3C570.1,513.7,569.6,517.4,569,521.2z"/>
	<path class="st2" d="M561.6,584.6c2.8,4.5,3.4,9.5,4,14.6c0.2,1.2,0,2.4-1.8,1.8C562.7,595.5,560.8,590.2,561.6,584.6z"/>
	<path class="st3" d="M610.8,619.1c2.1-5.3,4.9-10.1,9-14.2c0.8,0.5,0.9,1.3,0.8,2.1c-0.7,2.4-3.4,4.1-2.7,7.1c0,0,0,0,0,0
		c-3,0.5-4.4,2.8-6,5c0,0,0,0,0,0C611.6,619.2,611.2,619.2,610.8,619.1z"/>
	<path class="st4" d="M856.3,493.1c0.3-1,0.7-2-0.3-2.8c-1.6-4.3-0.1-7.9,2.6-11.2c1,1.9-1.4,5.1,2.2,6c-0.3,0.7-0.6,1.4-0.9,2
		c-2.1,1.5-1.5,4-2.4,5.9C857.2,493.1,856.7,493.1,856.3,493.1z"/>
	<path class="st3" d="M657.8,534.1c2,5.9-2.5,14.9-7.9,15.9C652.9,544.8,656.1,539.8,657.8,534.1z"/>
	<path class="st3" d="M731.8,539.1c-0.2,0.2-0.2,0.5-0.2,0.8c-0.2-0.1-0.4-0.1-0.6,0c0-1.2-0.1-2.5-0.1-3.7c0.9-2.3,1.4-4.6,1-7
		c0,0,0,0.1,0,0.1c1.5-0.6,1.3-1.9,1-3.1c0,0-0.1,0.1-0.1,0.1c1.2,0.5,1.1-2.4,2.6-0.9c1.3,2.5-0.6,4.6-0.7,6.9
		C733.1,534.2,732.7,536.8,731.8,539.1z"/>
	<path class="st2" d="M590.5,594.6c0.2,4.9,0.4,9.9,0.5,14.8c0,1.9,0.5,3.9-1.1,5.5c-0.9-6.9-1.5-13.8-1-20.8
		C589.4,594.3,590,594.5,590.5,594.6z"/>
	<path class="st4" d="M569,521.2c0.6-3.7,1.2-7.4,1.7-11.2c0-0.1-0.2-0.3-0.3-0.3c-0.2,0.1-0.5,0.2-0.7,0.4
		c-0.3-0.4-0.6-0.7-0.9-1.1c0-0.3,0-0.6,0.3-0.8c1.1-0.1,2.1-0.2,1.5-1.7c-1.2-0.9-0.9-1.7,0.2-2.4c3.5-0.9,2.3,1.9,2.1,3.1
		c-0.5,4-1.4,8.1-2.1,12.1C570.9,520.5,571.5,522.3,569,521.2z"/>
	<path class="st3" d="M819.8,528.1c-0.6,6.4-3.6,12.1-5.3,18.2c-0.1,0.3-0.6-0.8-0.9-1.3c0.1-1,0.1-2,0.2-2.9
		c1.4-2.4,1.9-5.1,2.2-7.9C817.6,532.4,816.6,529,819.8,528.1z"/>
	<path class="st4" d="M561.6,584.6c-0.8,5.7,1,11,2.2,16.4c0,0.7-0.1,1.5-0.1,2.2c-4.1-6.5-4.4-13.7-3.8-21.1
		C561.5,582.3,562,583.2,561.6,584.6z"/>
	<path class="st4" d="M600.2,594.7c-0.1-1.6-0.2-3.1-0.2-4.7c0.4,0,0.8,0,1.2,0c1.6,0.6-0.7,4.3,2.7,3.5c0,0,0,0,0,0
		c-2.4,3.7-1.3,6.8,1.9,9.4c0.2,1.6-0.8,2-2.1,2.2C601.7,602,601.6,598.1,600.2,594.7z"/>
	<path class="st4" d="M864.1,476.9c0.4-2.6,0.2-5.1-0.5-7.6c0.9-0.1,1.7-0.1,2.2,0.9c0.1,1.7,0.3,3.4,0.4,5.1
		c-0.6,3.4-1.2,6.9-4.4,9C861,481.3,865,479.8,864.1,476.9z"/>
	<path class="st5" d="M639.8,574.1c1.1-5,4.3-9.3,4.5-14.5c0.8-0.2,1.6-0.4,2.4-0.5c-1.1,3.6-2.2,7.1-3.3,10.7
		C642.1,571.1,642.6,574,639.8,574.1z"/>
	<path class="st2" d="M781.4,621.7c1.3-3.2,3.4-5.8,5.7-8.5c2.1,1.7,2.1,3.2,0.2,4.8c-0.5,0.2-1,0.4-0.4,1.1l0,0c-0.9-0.2-1.4,0-1,1
		c0,0,0,0,0,0c-1-0.3-1.4,0-1,1c0,0,0,0,0,0c-1.1-0.4-1.3,0.1-1,1c0,0,0,0,0,0c-0.7-0.7-1.2,0-1.8,0.2
		C781.8,622.1,781.6,621.9,781.4,621.7z"/>
	<path class="st2" d="M624.8,598.8c0.4,1.2,0,2.3-0.5,3.4c-0.3,0.5-0.7,0.9-1.3,0.6c-1.2-0.9-2,0.7-3.2,0.4c0.3-3.5,1.8-6.5,3.2-9.8
		C624.9,595,623.3,597.4,624.8,598.8z"/>
	<path class="st5" d="M599,623.2c-0.3-4,2.1-7.3,2.8-11c0.6-1.1,1.2-2.2,1.8-3.3c0.1,0.6,0.3,1.2,0.4,1.8c-0.1,0.9-0.1,1.8-0.2,2.6
		c0,0,0.1-0.1,0.1-0.1c-1.3,0.7-1.1,2-1,3.1c0,0,0.1-0.1,0.1-0.1c-2.2,2.1-2,4.9-2.1,7.6c0.2,0.8,0.3,1.8-0.6,1.8
		C599.8,625.5,599.4,624,599,623.2z"/>
	<path class="st2" d="M751.6,576.2c-0.9,0-1.7,0-2.6,0c-0.4-5.1-1.4-10.4,1.8-15.1l0.3,0.2C750.5,566.3,750.5,571.3,751.6,576.2z"/>
	<path class="st1" d="M811.6,545.3c0.4,3.1,0.4,6.2-0.3,9.2c-0.4,1.7-1,3.5-3.2,3.6C808.9,553.7,809.3,549.2,811.6,545.3z"/>
	<path class="st2" d="M564.7,565.1c1.2-0.5,2.5-1.2,2.1,1.2c-0.6,3.4-1.2,6.8-1.8,10.3c-2.3-1.2-2.3-2.9-1.7-4.9
		C564.1,569.6,565.3,567.4,564.7,565.1C564.8,565,564.7,565.1,564.7,565.1z"/>
	<path class="st5" d="M566.8,515c-1.1,4-1.4,7.9,0.1,11.9c-0.5,1.1-1,2.1-1.5,3.2c-0.2-0.3-0.4-0.7-0.6-1c-0.2-3.1-0.7-6.3-0.5-9.4
		C564.4,518,564.4,515.7,566.8,515z"/>
	<path class="st3" d="M864.1,476.9c0.9,2.9-3.1,4.4-2.2,7.3c0,0,0.1-0.1,0.1-0.1c-0.4,0-0.7,0-1.1-0.1c0,0.4,0,0.8,0,1.1
		c0,0,0.1-0.1,0.1-0.1c-3.7-0.9-1.3-4.1-2.2-6c0.2-0.3,0.3-0.6,0.4-0.9C860.9,478.5,862.3,477.2,864.1,476.9z"/>
	<path class="st2" d="M603.9,593.6c-3.4,0.8-1.1-2.9-2.7-3.5c0.2-2.5-0.9-5.1,1-8.4C603.3,586.2,604.1,589.8,603.9,593.6z"/>
	<path class="st2" d="M797.8,668.1c-1.5-4.3-1.6-8.6,0-13C799.2,659.5,799.2,663.8,797.8,668.1z"/>
	<path class="st2" d="M756,592.2c5.2,0.8,5.9,5,6.8,9l0.1-0.1c-0.3,0-0.7,0-1,0l0,0c0-0.7-0.3-1.1-1-1c0,0,0,0,0,0
		c0-0.7-0.3-1.1-1-1c0,0,0,0,0,0c0-0.7-0.2-1.1-1-1l0,0c0-1.4-0.4-2.3-2-2c0,0,0,0,0,0c0.7-1.2,0-1.7-1-2.1c0,0,0,0,0,0
		C755.9,593.5,755.9,592.8,756,592.2z"/>
	<path class="st4" d="M512.8,360.1c0.4,0.7,0.9,1.3,1.3,2c-0.1,0.8-0.3,1.5-0.4,2.3c-2.8-2-5.2-4.3-7.1-7.2c0.6-0.1,1.3-0.2,1.9-0.3
		C510.7,356.9,511.2,359.3,512.8,360.1z"/>
	<path class="st4" d="M735.4,525.2c-1.5-1.5-1.5,1.4-2.6,0.9c0-2.7,0-5.4,0-8.1c1-0.4,1.2,0.7,1.9,1
		C737.3,520.8,737.9,522.9,735.4,525.2z"/>
	<path class="st2" d="M791.8,901.1c-2.7-0.8-5.6-1.2-8-3C790.4,895.7,792,896.3,791.8,901.1z"/>
	<path class="st2" d="M742.1,477.5c-1.6,3.1-2.4,5.4-4.7,6.7C737.5,481.3,736.2,477.6,742.1,477.5z"/>
	<path class="st4" d="M570.9,618.2c-0.4,3.8,1.4,7.3,2,10.9c-4.1-2.7-3-7.2-4-11c0.7-0.2,0.7-1.5,1.7-1.2
		C570.8,617,570.8,617.8,570.9,618.2z"/>
	<path class="st2" d="M511.6,311.1c0.4,3.4,0.8,6.1,1.1,8.8C511.2,317.3,506.8,315.2,511.6,311.1z"/>
	<path class="st4" d="M769.3,612.3c-0.9-1.8-1.8-3.7-2.7-5.5c1.1-2.1,2.7-2.1,3.3,0C770.4,608.4,773.4,611,769.3,612.3z"/>
	<path class="st3" d="M605.8,603c-3.2-2.6-4.3-5.7-1.9-9.4C605.5,596.5,605.4,599.8,605.8,603z"/>
	<path class="st5" d="M721.7,563.1c-2.3-4.4,1.7-6.3,3.7-9c0.2,3.4-3.9,5.4-2.7,9l-0.5,0L721.7,563.1z"/>
	<path class="st5" d="M731.8,539.1c0.9-2.4,1.3-4.9,2.8-7c2.7,2.5,0.3,4.9-0.3,7.2C734.1,540.5,732.7,539.4,731.8,539.1z"/>
	<path class="st5" d="M816.1,534.3c-0.3,2.7-0.8,5.4-2.2,7.9C810.7,538.4,813.2,536.3,816.1,534.3z"/>
	<path class="st2" d="M572.7,491.2c-0.5,0-1,0.1-1.5,0.1c-0.9-4.4-0.3-8.8-0.2-14c1.8,4-0.1,7.7,1.9,10.9c0,0-0.1-0.1-0.1-0.1
		C572.8,489.1,572.7,490.2,572.7,491.2z"/>
	<path class="st2" d="M662,504.4c1.6,3.5,3.2,7,0,10.5C662,511.4,662,507.9,662,504.4z"/>
	<path class="st2" d="M771.3,619C771.3,619,771.3,618.9,771.3,619c0.3-0.5,0.4-1,0.8-1.3c0.7-0.7,0.6,0.3,0.6,0.5
		c0.1,3.1,0,6.2-1.6,9c0,0-0.3,0-0.3,0s0-0.3,0-0.3C770.9,624.2,771.1,621.6,771.3,619z"/>
	<path class="st5" d="M835.7,511.1c2.1,1.5,3.3-1.6,5.2-0.9c-1.1,2.8-3.8,3-6.1,3.9C833.6,512.6,833.9,511.6,835.7,511.1z"/>
	<path class="st5" d="M555.8,553.9c2,0.1,4,0.2,6,0.3c-1.1,2.8-3.3,1.8-5.3,1.6c-0.8-0.7-2.2-0.3-2.8-1.5
		C554.4,554.1,555.1,554,555.8,553.9z"/>
	<path class="st5" d="M590.5,594.6c-0.5-0.1-1.1-0.3-1.6-0.4c-0.2-3.3,0.3-6.5,1.9-9.4C590.7,588.1,590.6,591.3,590.5,594.6z"/>
	<path class="st4" d="M628.9,587.3c-0.2,0.6-0.5,1.2-0.7,1.9c-0.8,0-1.6,0-2.4,0l0,0c0.1-1.3-1.4-3.1,0.1-3.9
		C627.3,584.5,627.9,586.5,628.9,587.3z"/>
	<path class="st4" d="M750.8,558.1c-0.7-2.2,0.8-3.6,2-5.1c1.2,2,0.9,3.6-0.9,5.1C751.5,558.1,751.2,558.1,750.8,558.1z"/>
	<path class="st4" d="M731.9,529.1c0.4,2.4-0.1,4.8-1,7c-0.3,0-0.6,0.1-0.9,0C730,533.6,729.5,531,731.9,529.1z"/>
	<path class="st3" d="M600.8,623.7c0.1-2.7-0.1-5.5,2.1-7.6C603.4,618.9,602,621.3,600.8,623.7z"/>
	<path class="st4" d="M619.8,603.2c1.1,0.3,2-1.3,3.2-0.4c-0.4,1.4-0.8,2.9-1.2,4.3c-0.4,0-0.8,0-1.2,0c0.1-0.8,0.1-1.6-0.8-2.1
		C619.8,604.4,619.8,603.8,619.8,603.2z"/>
	<path class="st4" d="M625.8,589.1c0,1.1,0.3,2.5-1.3,2.8c-0.3,0.1-1.1-0.4-1.1-0.6C623.6,589.8,624.9,589.7,625.8,589.1
		C625.8,589.1,625.8,589.1,625.8,589.1z"/>
	<path class="st3" d="M788.7,445.8c0.8-2,1.8-2.3,3.1-0.4C790.9,446.2,789.8,446.1,788.7,445.8z"/>
	<path class="st4" d="M749.8,583.1c1.6,0.8,1.5,2.6,2.1,4c-0.7,0-1.3,0.1-2,0.1C750.3,585.8,748.6,584.5,749.8,583.1z"/>
	<path class="st2" d="M1001,753.3c-0.2-2.3,1.2-2.3,2.8-2.2C1003.3,752.4,1002.4,753.1,1001,753.3z"/>
	<path class="st4" d="M575.8,632.1c1.2-0.3,2.1,0.3,3,1c0,0.3,0.1,0.6,0,0.9c-0.6,0-1.3,0-1.9,0.1
		C576.8,633.3,575,633.4,575.8,632.1z"/>
	<path class="st4" d="M631.2,583.4c-0.4,0.6-0.8,1.2-1.2,1.8c-0.6-0.4-1.1-0.9-0.5-1.5C629.8,583.3,630.6,583.5,631.2,583.4z"/>
	<path class="st5" d="M732,540.9c0.5,0.3,1.1,0.6,1.4,1.1c0.2,0.5-0.3,1-0.8,0.7c-0.5-0.3-0.7-0.9-1-1.4
		C731.7,541.2,731.9,541.1,732,540.9z"/>
	<path class="st3" d="M525.2,364c1.5,0.3,1.9,0.9,0.6,2.1C525.1,365.6,524.9,364.9,525.2,364z"/>
	<path class="st3" d="M526.1,368c1.5,0.3,2.1,0.9,0.6,2.1C525.9,369.6,525.9,368.9,526.1,368z"/>
	<path class="st3" d="M518.3,323c1.5,0.4,1.9,1,0.5,2.1C518,324.6,518,323.8,518.3,323z"/>
	<path class="st5" d="M564.8,552.1c0-1.4,1.2-1.5,2.1-1.8c0.4,0.3,0.7,0.6,1.1,0.9C567.1,552,566.2,553.2,564.8,552.1z"/>
	<path class="st5" d="M823.6,524.1c0.2,0.6,0,1-0.6,1.1c-0.4-0.1-0.9-0.3-1.3-0.4C822.1,523.9,822.9,524.2,823.6,524.1z"/>
	<path class="st4" d="M756,592.2c0,0.7-0.1,1.3-0.1,2c-1.3,0.7-1.4-0.4-1.8-1.1C754.7,592.7,755.3,592.5,756,592.2z"/>
	<path class="st3" d="M603.8,613.2c0.1-0.9,0.1-1.8,0.2-2.6C605.2,611.5,605,612.4,603.8,613.2z"/>
	<path class="st3" d="M602.8,616.2c-0.1-1.2-0.3-2.4,1-3.1C603.8,614.2,604.6,615.6,602.8,616.2z"/>
	<path class="st2" d="M750.8,558.1c0.4,0,0.7,0,1.1,0c-0.2,1.1,0.2,2.3-0.7,3.3c0,0-0.3-0.2-0.3-0.2
		C750.8,560.1,750.8,559.1,750.8,558.1C750.8,558.1,750.8,558.1,750.8,558.1z"/>
	<path class="st4" d="M766.4,603.6C766.4,603.6,766.4,603.6,766.4,603.6c-0.3-0.8-0.5-1.6-0.7-2.4l0.2-0.2
		C766.9,601.7,766.9,602.6,766.4,603.6z"/>
	<path class="st4" d="M781,626.2c0.2,1-0.1,1.7-1,2.2c-0.1-0.5-0.1-1-0.2-1.5c-0.1-0.3-0.1-0.5,0.1-0.8l-0.1,0.1
		C780.2,626.2,780.6,626.2,781,626.2z"/>
	<path class="st2" d="M780.1,623.7c0.4-0.7,0.8-1.3,1.3-2c0.2,0.2,0.4,0.4,0.7,0.6c-0.3,0.7-0.7,1.3-1,2
		C780.7,624.1,780.4,623.9,780.1,623.7z"/>
	<path class="st4" d="M770.2,615.2c-0.1-0.4-0.2-0.7-0.3-1.1c0.4,0.1,0.8,0.3,1.2,0.4C770.7,614.8,770.4,615,770.2,615.2z"/>
	<path class="st4" d="M786.8,619.1c-0.6-0.6-0.1-0.9,0.4-1.1c0.5,0,1.1,0.1,1.6,0.1C788.4,618.9,787.8,619.4,786.8,619.1z"/>
	<path class="st5" d="M811.4,542.8c0.1,0.1,0.2,0.2,0.2,0.4c0,0.1-0.1,0.2-0.2,0.3C811.3,543.2,811.4,543,811.4,542.8z"/>
	<path class="st4" d="M592.8,621.1c0,0.3,0,0.7-0.1,1c-0.4-0.2-0.8-0.4-1.3-0.5C591.9,621.4,592.4,621.3,592.8,621.1z"/>
	<path class="st2" d="M781,626.2c-0.4,0-0.8,0-1.2,0c0.1-0.8,0.2-1.6,0.3-2.5c0.3,0.2,0.6,0.4,0.9,0.6c0,0.6-0.1,1.3-0.1,1.9
		L781,626.2z"/>
	<path class="st4" d="M734.4,490.7c-0.3,0-0.5-0.2-0.6-0.5c-0.2-0.7,0.1-1.2,0.7-1.5C734.5,489.4,734.5,490.1,734.4,490.7z"/>
	<path class="st2" d="M942.5,350.8c0.3-0.2,0.7-0.5,0.8-0.4c0.6,0.3,0.3,0.8,0,1.2C943,351.3,942.8,351,942.5,350.8z"/>
	<path class="st5" d="M555.3,552.5c0.1,0.2,0.1,0.4-0.1,0.5c-0.2-0.1-0.5-0.1-0.7-0.2C554.7,552.6,555,552.6,555.3,552.5z"/>
	<path class="st5" d="M637.6,576c0.2-0.6,0.5-1,1.2-0.9c0,0,0.3,0,0.3,0C638.6,575.4,638.1,575.7,637.6,576z"/>
	<path class="st4" d="M496.1,338.7c0.3,0.5,0.6,1,0.9,1.4C496.6,339.6,496.3,339.2,496.1,338.7z"/>
	<path class="st5" d="M731,539.9c0.2,0,0.4,0,0.6,0c0.1,0.4,0.2,0.7,0.4,1.1c-0.1,0.1-0.3,0.3-0.4,0.4
		C731.4,540.8,731.2,540.3,731,539.9z"/>
	<path class="st2" d="M779.9,626.1c-0.2,0.2-0.3,0.5-0.1,0.8c-0.2-0.1-0.3-0.3-0.5-0.4C779.4,626.3,779.7,626.2,779.9,626.1z"/>
	<path class="st5" d="M610.8,619.1c0.4,0,0.7,0,1.1,0.1c0.6,0.9-0.1,1.1-0.8,1.4C611,620.1,610.9,619.6,610.8,619.1z"/>
	<path class="st5" d="M822.5,526.3C822.5,526.3,822.5,526.3,822.5,526.3c-0.2,0.2-0.5,0.4-0.7,0.5
		C822,526.6,822.2,526.4,822.5,526.3z"/>
	<path class="st4" d="M763.6,603.4c-0.6-0.2-1.1-0.5-0.8-1.3c0,0,0.4-0.3,0.4-0.3l0.5,0C763.6,602.4,763.6,602.9,763.6,603.4z"/>
	<path class="st2" d="M763.6,601.8l-0.5,0c0,0-0.4,0.3-0.4,0.3c0,0,0,0,0,0c0-0.3,0-0.7,0-1c0,0-0.1,0.1-0.1,0.1
		C763.4,600.9,763.5,601.4,763.6,601.8z"/>
	<path class="st4" d="M765.7,601.2c-0.1-0.2-0.2-0.4-0.4-0.6c0.2,0.1,0.4,0.3,0.6,0.4C765.9,601,765.7,601.2,765.7,601.2z"/>
	<path class="st4" d="M236.7,859.9c-18.4,0.8-36.1,0.2-53.3-5.7c-9.6-3.3-17.6-8.9-25.3-15.3c-11.9-10-22.9-20.6-30.4-34.5
		c-1.3-2.3-3-4.6-3.6-7.1c-2.7-11.1-8.7-20.8-12.3-31.5c-4.5-13-8.2-26.3-8.9-40.1c-1.1-22.9,9.3-39.2,29.1-50.4
		c9.3-5.3,19.4-6.6,29.6-7.1c6.9-0.4,13.9-0.7,20.9,0.8c4.8,1,9.5-1,14.4-0.9c45.7,0.1,91.3-0.2,137,0.2c15.2,0.1,30.4,1.7,44.7,7.9
		c13.4,5.8,23.8,14.8,30.7,27.8c11.8,22.5,13.8,46.3,10,71.1c-1.4,9.2-2.6,18.5-6.3,27c-7.2,16.7-18.2,30.6-34.7,38.8
		c-12.5,6.2-26.2,8.8-40.2,10.5c-18,2.2-36.2,3.6-54.2,6.4C268.1,860.2,252.1,861.1,236.7,859.9z"/>
	<path class="st0" d="M704.2,86.9c19.1,0.9,44.3,1,67.8,11.1c42.3,18.2,75,47.4,95.6,88.8c18.2,36.3,25.9,75.1,23.1,115.6
		c-1.9,28-10.8,54.4-22.9,79.6c-9.9,20.7-27,31-49.4,35.4c-39.5,7.6-79.3,9.6-119.3,10.4c-21.8,0.4-43.6,1.8-65.4,2.6
		c-15.1,0.5-28.9-3.8-42.2-10.2c-7.6-3.7-12.7-10.1-17.7-16.6c-13.3-17.2-20.7-37-25.9-57.9c-6.1-24.7-11.9-49.5-13.6-75
		c-2.8-41.9,2.5-82.1,28.4-116.8c18.5-24.7,41.1-44.9,70.5-56.3C654.3,89.2,676.1,86.8,704.2,86.9z M885.7,289.5
		c0.6-15.9-1.1-30.6-4-45.1c-5-25.8-14.1-50.2-28.1-72.5c-10.3-16.4-24-29.7-38.7-42c-10.7-8.9-22.1-17-34.7-23.1
		c-22-10.7-45.6-13.7-69.6-14.5c-11.3-0.4-22.6,0-33.9,0.6c-18.6,1.1-35.8,6.8-52.5,14.1c-11.2,4.9-21,12.3-29.8,20.5
		c-11.9,11.1-24.1,22-32.4,36.4c-11,19.2-19.3,39.1-21.4,61.6c-1.7,17.8-2.4,35.4-0.5,53.1c2.3,20.9,6.9,41.5,11.9,61.9
		c4.8,19.6,11.3,38.4,22.6,55.5c9.4,14.2,21.9,22.6,38.1,26.6c12.3,3.1,24.6,2.7,37.1,1.6c17.5-1.6,35.2-1.1,52.8-1.9
		c16.4-0.8,32.8-1,49.3-2c22.2-1.3,44.2-3.8,66-8.3c12.1-2.5,24-5.5,33.1-14.9c8.2-8.5,14.2-18.5,18.2-29.5
		C878.1,342,887.7,316.4,885.7,289.5z"/>
	<path class="st2" d="M622.9,718.6c-0.1,9.7-7.8,17.4-17.5,17.4c-9.8,0-17.6-8-17.4-18c0.2-9.7,8.2-17.7,17.5-17.6
		C615.2,700.5,622.9,708.6,622.9,718.6z"/>
	<path class="st5" d="M606.8,676.2c-9.9,0-17.9-7.8-17.8-17.6c0-9.5,7.9-17.3,17.5-17.4c9.9-0.1,18,7.7,18.1,17.3
		C624.7,668.2,616.7,676.2,606.8,676.2z"/>
	<path class="st5" d="M611.9,619.2c1.6-2.2,3-4.5,6-5C616.6,616.7,615,618.9,611.9,619.2z"/>
	<path class="st5" d="M620.6,607.1c0.4,0,0.8,0,1.2,0c-0.7,2.7-1.4,5.3-3.8,7.1C617.2,611.2,619.8,609.5,620.6,607.1z"/>
	<path class="st3" d="M810.8,887.1c-6.9,1-14.5-1.1-22.1-3.1c-6.7-1.7-13.1-0.8-19.4,1.9c-8.9,3.9-18.3,4.1-27.8,3.4
		c-4.1-0.3-8.2-0.6-12.4,0.5c-4,1.1-8.1,1.5-12.3,1.4c-12-0.5-23.9,1.1-35.9,1.3c-11.3,0.2-21.6-3.4-32.3-5.5
		c-4.1-0.8-7.1,0.1-9.9,2.9c-7,7.1-15.4,9.4-24.6,5.3c-8.4-3.6-12.4-10.8-13-19.7c-0.3-4.1,1.3-8.1,2.4-12.1
		c4.3-14.8,5.7-30,6.2-45.2c0.2-5.7,0-11.3,0.1-17c0.2-17.4,16.8-27.9,32.7-20.7c4.4,2,8.6,4.3,12.1,7.9c0.9,0.9,2,1.9,3.2,2.2
		c10.8,2.8,21.4,6,32.8,5.6c4.7-0.2,8.5-2.7,12.5-4.6c16.1-7.8,33-9.6,50.5-7.2c12.1,1.7,20.1,9.6,27.2,18.7
		c4.5,5.8,8.5,11.9,12.2,18.2c2.2,3.6,4.7,7.7,9.9,6.7c4.7-0.9,7.9-6.3,7.9-11.9c0.1-11.8-4.7-21.6-12.7-29.9
		c-7.5-7.8-6.6-11.8,2.4-18c10-6.9,9.4-4.8,5.4-15.1c-2.4-6.1-6.6-11.5-6.3-18.7c0.2-4.8,1.2-9.1,3.2-13.4
		c5.3-11.4,12-22.3,14.5-34.9c2.7-13.7,4.9-27.4,8.5-40.9c3.2-12,5.9-24.3,10.4-35.9c4.4-11.4,14.4-19,23.8-26.4
		c10-7.9,21.2-13.8,32.6-19.4c13.3-6.6,27.2-1.5,33.1,11.3c2,4.3,1.7,9,1,13.3c-4,26.8-10.3,53.1-18.3,79
		c-6.9,22.4-15,44.4-23.2,66.4c-5.8,15.5-9.4,31.9-13.2,48c-4,16.9-9.4,33.3-16,49.2c-2.9,6.8-4.7,13.8-4.3,21.3
		c0.4,6-1,11.9-3.1,17.5c-4.9,13-16.2,16.2-28.3,17.7C817.5,887.4,814.6,887.1,810.8,887.1z M798.7,877.2c1.8,0.2,5.1-0.7,8.4-0.9
		c16.2-1.1,26.3-9.8,31.7-24.7c5-13.6,9.8-27.2,15-40.7c3.8-9.7,6.4-19.7,11.7-29c5.2-9,5.7-19.5,4.6-30c-0.9-8.3-2-16.6,0.1-25.2
		c5.5-21.8,11.6-43.3,18.7-64.6c2.1-6.1,2.7-12.6,5.1-18.7c3.9-10.2,10.5-18.9,15.3-28.5c5.5-11.1,1.5-24.2-9.2-31.6
		c-9.5-6.6-23.6-5.7-31.6,2.8c-10.1,10.7-16,24-21.9,37.2c-4.2,9.3-5.2,19.6-8.5,29.1c-7.2,20.6-13,41.5-17.8,62.7
		c-2.7,11.7-5.2,23.5-2.4,35.4c1.3,5.6,0.7,10.3-2.7,15c-2.8,3.8-3.5,8.4-3.5,13.2c-0.1,8.6,2.1,16.7,6.2,23.9
		c4.5,7.8,3.3,15,0.7,22.5c-4.9,14-19.7,22.2-33.1,19.3c-4.3-1-5.6-3.2-5.8-7.3c-0.6-19.1-16.8-38.2-39.1-38.1
		c-13.3,0.1-26,2.7-38.7,6.2c-5.9,1.7-12,4.8-17.9,3.4c-9.7-2.2-19.4-5.1-28.3-9.5c-17.2-8.5-35.6,4.2-37.2,21.5
		c-0.9,9.1,0.2,17.9,0.4,26.8c0.4,16.4,13.3,27.9,27,28.8c4.9,0.3,9.9,1.2,14.8,2.1c23.1,4.2,46.3,6.5,69.8,5.6
		c9.3-0.3,18.3-2.2,26-7.6c5.2-3.7,10.3-3.8,16-2.6C780.7,875.5,788.8,877.1,798.7,877.2z"/>
	<path class="st1" d="M1000.8,301.4c-0.2-21.1-0.2-35.7,1-50.4c0.7-8.9,5.3-15.7,12.9-19.5c7.9-3.9,15.9-3.4,24.1,1.6
		c15.2,9.2,20.4,22.7,20.1,39.5c-0.2,10,0.6,20-0.1,30c-3.6,47.7-0.8,95.5-2,143.3c-0.4,14.7-2.9,29.3-4.4,44
		c-1.6,14.7-4.1,29.2-7.1,43.7c-3.5,16.9-7.8,33.6-10.7,50.6c-4.4,26.2-10.7,51.9-15.2,78c-1.6,8.9-0.9,18.2-2.4,27.2
		c-2,11.9-3.5,24-6.4,35.7c-2.1,8.5-7.5,13.7-17,16.6c-15,4.7-31.8-7.7-34.1-19.2c-0.4-2-0.6-3.9-0.6-5.9c0-17.2-0.4-34.3,0.1-51.5
		c0.5-16.6,4.2-32.8,7.4-49.1c3.9-19.7,6.6-39.5,9.5-59.4c3.8-26.2,7-52.5,11.3-78.7c2.7-16.1,5.3-32.3,5.8-48.8
		c0.4-14.1,2.6-28.1,3.6-42.1c0.6-9.8,1.4-19.5,2.2-29.3C1000.3,336.8,1001.3,315.9,1000.8,301.4z"/>
	<path class="st4" d="M573.8,631.1c1.3-1,1.8-0.1,2.1,1C574.5,633.1,574.1,632.2,573.8,631.1z"/>
	<path class="st4" d="M572.8,629.1c1.2,0.3,2,0.8,1,2.1C572.8,630.8,571.8,630.4,572.8,629.1z"/>
	<path class="st5" d="M856.3,493.1c0.4,0,0.8,0,1.3,0c-1.1,2.7-1.2,6.1-4.7,7.1C854,497.8,855.2,495.5,856.3,493.1z"/>
	<path class="st5" d="M843.9,508.2c0.6-2.1,2.2-2.7,4-3C847.5,507.5,846.1,508.3,843.9,508.2z"/>
	<path class="st5" d="M840.9,510.2c0.5-1.5,1.4-2.4,3-2C843.7,510,842.6,510.6,840.9,510.2z"/>
	<path class="st5" d="M848.8,504.2c0.3-1,0.7-2,2-1C850.5,504.2,850.2,505.1,848.8,504.2z"/>
	<path class="st5" d="M851.9,502.2c-0.9-1.3,0-1.7,1-2C853.8,501.4,852.9,501.8,851.9,502.2z"/>
	<path class="st5" d="M850.9,503.2c-0.1-0.4-0.6-0.6-0.1-1.1c0.5-0.5,0.8,0.1,1.1,0.1C851.9,502.8,851.6,503.2,850.9,503.2z"/>
	<path class="st5" d="M847.9,505.2c-0.2-0.8,0.3-1.1,1-1.1C849.4,505.3,849,505.6,847.9,505.2z"/>
	<path class="st4" d="M491.8,386.2c-1.7-1.1-3.3-2.6-4.2-4.8c-0.3-0.8,0.4-1.4,1-1.2c2.3,0.7,3.6,2.6,4.6,4.6
		C493.6,385.5,492.9,385.9,491.8,386.2z"/>
	<path class="st0" d="M499.8,390.5c1.3,1.2,2.5,2.3,3.8,3.5c-0.6,0.5-1.1,0.9-1.7,1.4c-0.7-0.4-1.4-0.8-2.1-1.2
		C499.3,393,496.5,391.8,499.8,390.5z"/>
	<path class="st0" d="M503.7,351.6c2.2-0.2,2.9,1.5,2.8,3c-0.1,1.8-1.7,0.5-2.7,0.6C502.8,354.1,501.8,352.9,503.7,351.6z"/>
	<path class="st4" d="M477.4,415.9c1.2,0.3,2.1,1.1,2.3,2.2c0.1,0.4-0.7,1.5-0.9,1.4c-1.3-0.3-2.4-0.9-2.6-2.4
		C476.2,416.3,476.9,416.1,477.4,415.9z"/>
	<path class="st0" d="M496.4,342.9c0.2-1.1,0.7-2,1.8-1c0.9,0.9,2.4,2,1.5,3.6c-0.5,0.9-1.3,0.4-1.9-0.3
		C497.8,344.2,497.6,343.3,496.4,342.9z"/>
	<path class="st4" d="M485.1,374.1c0,1.2-0.3,1.8-1,1.8c-1.5,0-1.7-1.2-1.9-2.3c-0.2-1,0.7-1.6,1.4-1.2
		C484.4,372.8,484.8,373.7,485.1,374.1z"/>
	<path class="st4" d="M496.4,342.9c1.2,0.4,1.4,1.3,1.4,2.3C496.9,344.8,496.4,344,496.4,342.9z"/>
	<path class="st4" d="M480.5,419.3c0.1,0.1,0.2,0.2,0.4,0.4c-0.2,0.1-0.4,0.3-0.7,0.3c-0.1,0-0.2-0.2-0.3-0.3
		C480,419.5,480.3,419.4,480.5,419.3z"/>
	<path class="st0" d="M473.8,411.7c0.5,0.5,0.7,1,0.2,1.5c-0.5,0.6-1.1,0.4-1.6-0.1C472.9,412.7,473.3,412.2,473.8,411.7z"/>
	<path class="st4" d="M860.8,485.2c0-0.4,0-0.8,0-1.1c0.4,0,0.7,0,1.1,0.1C861.9,484.8,861.6,485.2,860.8,485.2z"/>
	<path class="st4" d="M731.9,494.1c-1.8,8.1,0.7,16.1,1,24.1c-1.8,0.4-0.7-1.7-1.7-2.1c-0.5-3.6-1.1-7.3-1.6-10.9
		C730.6,501.5,728.2,497.2,731.9,494.1z"/>
	<path class="st0" d="M966.8,321.5c-4.5,0.5-3.7-2.9-3.8-5.3c-0.3-19.1,2-37.9,5.3-56.6c1.6-9,3.8-17.8,6.5-26.5
		c3.5-0.5,4.6,1,3.7,4.3c-5.5,19.4-8.3,39.3-10.2,59.4c-0.6,6.5-0.5,13-0.5,19.5C967.7,318,968,319.9,966.8,321.5z"/>
	<path class="st4" d="M780.9,626.2c0-0.6,0.1-1.3,0.1-1.9c0.3-0.7,0.7-1.3,1-2c0.6-0.2,1.1-0.8,1.8-0.2c-0.4,1-0.7,2-1.1,2.9
		C782,625.1,782,626.6,780.9,626.2z"/>
	<path class="st4" d="M733.9,490.2c1,2.2-0.7,3-2.1,4c-1.2-1,0.3-1.9,0.2-2.9C732.7,490.9,733.3,490.5,733.9,490.2z"/>
	<path class="st4" d="M501.9,395.4c0.6-0.5,1.1-0.9,1.7-1.4c1,0.5,1.7,1.3,0.6,2.2C503.2,397.1,502.5,396.2,501.9,395.4z"/>
	<path class="st0" d="M508.5,357c-0.6,0.1-1.3,0.2-1.9,0.3c-0.2-0.6-0.3-1.3,0.5-1.5C508,355.5,508.3,356.1,508.5,357z"/>
	<path class="st4" d="M771.3,619c-0.2,2.6-0.3,5.2-0.5,7.8c-2,0.3-2.6-2.2-4.4-2.2C768.4,623.1,768.4,619.8,771.3,619z"/>
	<path class="st0" d="M797.8,605.2c-0.2,0.2-0.4,0.3-0.6,0.5c-0.1-0.3-0.3-0.6-0.3-0.8c0-0.2,0.3-0.4,0.5-0.5
		C797.6,604.6,797.7,604.9,797.8,605.2z"/>
	<path class="st5" d="M638.8,575.1c-0.1-0.8,0.1-1.3,1-1c0,0.4,0,0.7,0,1.1C639.5,575.2,639.2,575.2,638.8,575.1z"/>
	<path class="st5" d="M568.8,509c0.3,0.4,0.6,0.7,0.9,1.1c-0.9,1.7-1,3.9-3,5c0.9-3.7-0.7-6.9-2-10.2c-1.9-4.7-1.1-8.7,3.1-11.8
		c0.8,0.4,0.7,1,0.2,1.6C564,499.6,565.6,504.3,568.8,509z"/>
	<path class="st5" d="M568.9,492.1c0,0.4,0,0.8,0,1.1c-0.4,0-0.7,0-1.1-0.1C567.8,492.4,567.7,491.6,568.9,492.1z"/>
	<path class="st2" d="M665.9,499c-1.1,2.2,1.1,4.8-1.8,8.1c0.2-4.2-2.1-7.3,1.7-10C665.8,497.7,665.9,498.4,665.9,499z"/>
	<path class="st4" d="M756.8,596.1c1.7-0.3,2,0.7,2,2C757.2,598.4,756.9,597.4,756.8,596.1z"/>
	<path class="st4" d="M755.8,594.1c1,0.3,1.7,0.9,1,2.1C755.8,595.8,755.1,595.3,755.8,594.1z"/>
	<path class="st4" d="M762.9,601.1c0,0.3,0,0.7,0,1c-0.9,0.2-1.3,0-1-1C762.2,601.1,762.5,601.1,762.9,601.1z"/>
	<path class="st4" d="M760.8,600.1c0.7,0,1.1,0.3,1,1C760.9,601.4,760.5,601.1,760.8,600.1z"/>
	<path class="st4" d="M759.8,599.1c0.7,0,1.1,0.3,1,1C759.8,600.5,759.5,600.1,759.8,599.1z"/>
	<path class="st4" d="M758.8,598.1c0.8-0.1,1.1,0.3,1,1C758.8,599.5,758.6,599,758.8,598.1z"/>
	<path class="st4" d="M783.8,622.1c-0.3-1,0-1.4,1-1C784.8,621.8,784.5,622.2,783.8,622.1z"/>
	<path class="st4" d="M784.8,621.1c-0.3-1,0-1.4,1-1C785.8,620.8,785.5,621.1,784.8,621.1z"/>
	<path class="st4" d="M785.8,620.1c-0.4-1.1,0.1-1.3,1-1C786.9,619.8,786.5,620.1,785.8,620.1z"/>
	<path class="st4" d="M750.8,558.1c0,1,0,2,0,3c-3.2,4.7-2.2,9.9-1.8,15.1c0,1.3-0.1,2.6-0.1,4c-2.1-1.1-0.9-3.6-2.1-5
		c-0.1-4.3-0.1-8.7,1.3-12.9C748.6,560.8,748.5,558.5,750.8,558.1z"/>
	<path class="st4" d="M748.8,580.1c1.5,0.7,1.4,1.8,1.1,3.1C747.9,582.7,748.5,581.3,748.8,580.1z"/>
	<path class="st3" d="M809.7,564c0.2-0.5,0.4-1.1,0.6-1.6c0.7,0.7,0.3,1.4-0.1,2C810,564.3,809.8,564.1,809.7,564z"/>
	<path class="st4" d="M732.9,526.1c0.3,1.2,0.5,2.5-1,3.1C731,527.8,731.2,526.7,732.9,526.1z"/>
	<path class="st5" d="M561.8,554.1c0.4-1.6,1.5-2.1,3-2C564.8,554.3,563.8,554.9,561.8,554.1z"/>
	<path class="st0" d="M572.7,491.2c0-1.1,0.1-2.1,0.1-3.2c1.5,1.5,0.8,3.4,1,5.2C572.3,493.2,573.1,491.9,572.7,491.2z"/>
	<path class="st5" d="M570.5,506.4c0.7,1.6-0.4,1.6-1.5,1.7C568.9,507,569.9,506.9,570.5,506.4z"/>
	<path class="st2" d="M571.3,493.2c0.1,0.1,0.3,0.3,0.3,0.4c0,0.1-0.2,0.2-0.4,0.3c-0.1-0.1-0.3-0.3-0.3-0.4
		C571,493.4,571.2,493.3,571.3,493.2z"/>
	<path class="st4" d="M885.7,289.5c1.9,26.9-7.6,52.6-16.8,78.2c-3.9,11-9.9,21-18.2,29.5c-9.1,9.4-21,12.4-33.1,14.9
		c-21.8,4.5-43.8,7-66,8.3c-16.4,1-32.9,1.2-49.3,2c-17.6,0.8-35.2,0.3-52.8,1.9c-12.5,1.2-24.7,1.5-37.1-1.6
		c-16.2-4.1-28.7-12.4-38.1-26.6c-11.3-17.1-17.9-35.9-22.6-55.5c-5-20.4-9.6-41-11.9-61.9c-1.9-17.7-1.1-35.4,0.5-53.1
		c2.1-22.4,10.3-42.4,21.4-61.6c8.3-14.4,20.5-25.3,32.4-36.4c8.9-8.3,18.6-15.6,29.8-20.5c16.8-7.4,33.9-13.1,52.5-14.1
		c11.3-0.6,22.6-1,33.9-0.6c24,0.8,47.6,3.8,69.6,14.5c12.7,6.1,24,14.2,34.7,23.1c14.7,12.3,28.5,25.6,38.7,42
		c14,22.3,23.1,46.7,28.1,72.5C884.6,258.9,886.4,273.5,885.7,289.5z M717,309.3c4.8-0.2,9.6-0.4,14.4-1c14.9-1.7,27.9-7.7,38.6-18
		c15.3-14.8,27-32,32.2-52.9c2.8-11.2,5.1-22.5,3.8-34.2c-2.1-17.9-11.6-31-26-40.9c-21.7-14.9-45.6-17-70.5-11.1
		c-15.1,3.5-27.9,11.6-40.2,21.1c-21.8,16.7-37.3,37-41.8,64.6c-2.5,15.2,1.8,28.9,10.1,41.5c7.8,11.9,20.1,18.1,32.6,23.7
		C685,308.6,701.2,308.1,717,309.3z"/>
	<path class="st1" d="M798.7,877.2c-9.9-0.1-18-1.7-26.1-3.4c-5.7-1.1-10.8-1-16,2.6c-7.6,5.4-16.7,7.3-26,7.6
		c-23.5,0.8-46.7-1.5-69.8-5.6c-4.9-0.9-9.8-1.8-14.8-2.1c-13.7-0.9-26.7-12.4-27-28.8c-0.2-8.9-1.3-17.8-0.4-26.8
		c1.6-17.2,20-30,37.2-21.5c8.8,4.4,18.6,7.3,28.3,9.5c5.9,1.4,12-1.8,17.9-3.4c12.7-3.5,25.3-6.2,38.7-6.2
		c22.3-0.1,38.5,19,39.1,38.1c0.1,4.1,1.4,6.3,5.8,7.3c13.4,3,28.2-5.3,33.1-19.3c2.6-7.4,3.8-14.7-0.7-22.5
		c-4.1-7.1-6.3-15.3-6.2-23.9c0.1-4.8,0.7-9.4,3.5-13.2c3.5-4.7,4-9.3,2.7-15c-2.8-12-0.3-23.7,2.4-35.4
		c4.8-21.2,10.6-42.1,17.8-62.7c3.3-9.5,4.3-19.8,8.5-29.1c6-13.2,11.8-26.5,21.9-37.2c8-8.5,22.1-9.4,31.6-2.8
		c10.7,7.4,14.6,20.5,9.2,31.6c-4.8,9.7-11.4,18.4-15.3,28.5c-2.4,6.1-3,12.6-5.1,18.7c-7.1,21.3-13.2,42.8-18.7,64.6
		c-2.2,8.6-1,16.8-0.1,25.2c1.1,10.5,0.6,21-4.6,30c-5.3,9.2-7.9,19.3-11.7,29c-5.2,13.5-10,27.1-15,40.7
		c-5.4,14.8-15.5,23.6-31.7,24.7C803.8,876.5,800.5,877.4,798.7,877.2z"/>
	<path class="st5" d="M717,309.3c-15.8-1.2-32-0.6-46.8-7.3c-12.5-5.6-24.7-11.8-32.6-23.7c-8.3-12.5-12.5-26.3-10.1-41.5
		c4.5-27.6,20-47.9,41.8-64.6c12.3-9.4,25.1-17.5,40.2-21.1c24.9-5.8,48.8-3.8,70.5,11.1c14.4,9.9,23.9,23,26,40.9
		c1.4,11.8-1,23-3.8,34.2c-5.2,20.9-16.9,38.2-32.2,52.9c-10.6,10.3-23.6,16.2-38.6,18C726.6,308.8,721.8,309.1,717,309.3z
		 M733.8,186c-17.9,0.8-34.3,5.2-47.2,18.7c-8.9,9.3-11.6,23.6-6.1,33.5c7.1,12.9,18.9,16.2,32.4,15.5c8.4-0.5,15.9-3.6,23.1-7.3
		c8.7-4.5,17.6-9.1,23-17.8c5.9-9.6,6-19.8-0.1-29.3C753.2,190.5,745.1,185.1,733.8,186z"/>
	<path class="st2" d="M733.8,186c11.3-0.9,19.4,4.6,25.1,13.4c6,9.5,6,19.7,0.1,29.3c-5.3,8.7-14.3,13.3-23,17.8
		c-7.2,3.7-14.7,6.8-23.1,7.3c-13.5,0.7-25.3-2.5-32.4-15.5c-5.5-10-2.8-24.2,6.1-33.5C699.5,191.2,716,186.8,733.8,186z M730.3,203
		c-8.9,0-16.3,6-16.4,13.3c-0.1,6.6,5.1,12.3,11.6,11.6c9.2-1.1,16.4-5,16.4-13.3C741.9,207.8,737.1,203.1,730.3,203z"/>
	<path class="st3" d="M730.3,203c6.8,0,11.6,4.8,11.6,11.5c-0.1,8.3-7.2,12.3-16.4,13.3c-6.4,0.8-11.7-5-11.6-11.6
		C714,209,721.4,203,730.3,203z M725,220.1c4.2,0.1,9.6-3.9,9.6-7.1c0-2.6-1.7-3.8-4.2-3.9c-4-0.2-9.5,4-9.6,7.2
		C720.7,219.6,723.2,219.9,725,220.1z"/>
	<path class="st1" d="M725,220.1c-1.9-0.2-4.3-0.5-4.2-3.8c0.1-3.2,5.6-7.4,9.6-7.2c2.5,0.1,4.2,1.2,4.2,3.9
		C734.6,216.1,729.3,220.2,725,220.1z"/>
	<path class="st1" d="M689.1,640c0,2.1-11.3,63.5-11.3,67.3s3.8,24,3.8,24s19.8,7.1,23.1,8.4c3.4,1.3,54.2,6.7,63.9-8.4
		c9.7-15.1,15.1-14.6,17.8-34c2.8-19.4-5.2-48.8-10.7-53s-16.8-3.8-16.8-3.8"/>
	<path class="st3" d="M759.8,740.5c1.7-1.7,22.7-24.4,26.5-37.4c3.8-13-3.8,21.4-3.8,21.4l-12.2,15.1"/>
</g>
</svg>
