<svg id="Isolation_Mode" data-name="Isolation Mode" xmlns="http://www.w3.org/2000/svg" viewBox="0 0 727.64 595.68"><defs><style>.cls-1{fill:#fff;}</style></defs><title>LOGO</title><path class="cls-1" d="M140.7,595.68l51.46-89.27H1.08L0,504.85,292.88,0l95.85,166.23,45.48-78.32c98,169.5,195.41,338.15,293.43,507.77ZM29,489.05c3.79.29,5.88.59,8,.59,52.65,0,105.31-.05,158,.13,5.24,0,8.16-1.83,10.68-6.24q34.48-60.15,69.27-120.13,50.65-87.66,101.43-175.27c1.88-3.24,2.06-5.75.13-9.09q-37.77-65.16-75.3-130.46c-2.46-4.26-5.06-8.44-8.44-14.06Zm405.47-366c-1.72,2.53-2.92,4.08-3.9,5.75-9.43,16.25-18.7,32.61-28.33,48.74-2.65,4.43-2.61,7.9,0,12.36,22.66,39,45.09,78,67.61,117.07q53,91.83,106,183.63c2.69,4.68,5.2,9.48,8.26,15.05-3.39.19-5.8.44-8.21.44q-177.48,0-355-.1c-6.06,0-9.68,1.7-12.71,7.16-11.21,20.21-23,40.12-34.48,60.16-.87,1.52-1.49,3.19-2.55,5.47H697.81ZM389.1,201.31c-1.59,2.3-2.4,3.32-3,4.43Q368,237.08,349.93,268.41,288,375.51,226,482.6c-3.55,6.13-3.08,7,3.82,7q159,0,318,0a60,60,0,0,0,6.94-.93C499.3,392.51,444.42,297.29,389.1,201.31Z"/></svg>